{
.formatVersion = 3;
axes = (
{
name = Weight;
tag = wght;
},
{
name = Width;
tag = wdth;
}
);
classes = (
{
code = "zero one two three four five six seven eight nine zero one two three four five six seven eight nine";
name = case;
},
{
code = "zero.osf one.osf two.osf three.osf four.osf five.osf six.osf seven.osf eight.osf nine.osf zero.tosf one.tosf two.tosf three.tosf four.tosf five.tosf six.tosf seven.tosf eight.tosf nine.tosf";
name = case_lnum_onum;
},
{
code = "gravecomb acutecomb circumflexcomb tildecomb macroncomb brevecomb dotaccentcomb dieresiscomb ringcomb hungarumlautcomb caroncomb commaturnedabovecomb hookabovecomb";
name = ccmp;
},
{
code = "zero.dnom one.dnom two.dnom three.dnom four.dnom five.dnom six.dnom seven.dnom eight.dnom nine.dnom";
name = dnom_frac;
},
{
code = "zero one two three four five six seven eight nine";
name = dnom_frac_numr_ordn_sups;
},
{
code = "fraction zero.dnom one.dnom two.dnom three.dnom four.dnom five.dnom six.dnom seven.dnom eight.dnom nine.dnom";
name = frac;
},
{
code = "zero.numr one.numr two.numr three.numr four.numr five.numr six.numr seven.numr eight.numr nine.numr";
name = frac_numr;
},
{
code = "zero one two three four five six seven eight nine zero.tlf one.tlf two.tlf three.tlf four.tlf five.tlf six.tlf seven.tlf eight.tlf nine.tlf";
name = lnum_onum;
},
{
code = "Cacute Nacute Oacute Sacute Zacute cacute nacute oacute sacute zacute acutecomb";
name = locl;
},
{
code = "Cacute.loclPLK Nacute.loclPLK Oacute.loclPLK Sacute.loclPLK Zacute.loclPLK cacute.loclPLK nacute.loclPLK oacute.loclPLK sacute.loclPLK zacute.loclPLK acutecomb.loclPLK";
name = locl2;
},
{
code = "commaaccentcomb cedillacomb dotbelowcomb dieresisbelowcomb ringbelowcomb macronbelowcomb circumflexbelowcomb brevebelowcomb caronbelowcomb commaaccentcomb.loclMAH";
name = mkmk;
},
{

glyphs = (
{
glyphname = .notdef;
layers = (
{
layerId = "EB61547D-F7E1-476C-A885-D7B2C933109F";
shapes = (
{
closed = 1;
nodes = (
(61,0,l),
(468,0,l),
(468,707,l),
(61,707,l)
);
},
{
closed = 1;
nodes = (
(96,35,l),
(96,672,l),
(433,672,l),
(433,35,l)
);
}
);
width = 529;
},
{
layerId = "8F32FC6E-BE02-4CA7-9492-B77DE78BF7A2";
shapes = (
{
closed = 1;
nodes = (
(54,0,l),
(461,0,l),
(461,707,l),
(54,707,l)
);
},
{
closed = 1;
nodes = (
(89,35,l),
(89,672,l),
(426,672,l),
(426,35,l)
);
}
);
width = 515;
},
{
layerId = "BD06E2F8-4593-4D8E-97D3-0F0A9BC781C2";
shapes = (
{
closed = 1;
nodes = (
(61,0,l),
(468,0,l),
(468,707,l),
(61,707,l)
);
},
{
closed = 1;
nodes = (
(96,35,l),
(96,672,l),
(433,672,l),
(433,35,l)
);
}
);
width = 529;
},
{
layerId = "BED270ED-D05C-40FE-BC6A-D5F2DB2176C1";
shapes = (
{
closed = 1;
nodes = (
(75,0,l),
(482,0,l),
(482,707,l),
(75,707,l)
);
},
{
closed = 1;
nodes = (
(110,35,l),
(110,672,l),
(447,672,l),
(447,35,l)
);
}
);
width = 557;
},
{
layerId = "624BE5E0-C167-4D60-8955-1CEBAB9BFDFE";
shapes = (
{
closed = 1;
nodes = (
(75,0,l),
(482,0,l),
(482,707,l),
(75,707,l)
);
},
{
closed = 1;
nodes = (
(110,35,l),
(110,672,l),
(447,672,l),
(447,35,l)
);
}
);
width = 557;
}
);
},
{
glyphname = A;
layers = (
{
anchors = (
{
name = b.uni0324_2;
position = "{247, 0}";
},
{
name = m.uni0308_1;
position = "{347, 700}";
},
{
name = m.uni0328;
position = "{481, 7}";
}
);
layerId = "EB61547D-F7E1-476C-A885-D7B2C933109F";
shapes = (
{
closed = 1;
nodes = (
(-48,0,l),
(117,0,l),
(150.286,107,l),
(284.286,107,l),
(286,0,l),
(450,0,l),
(379.999,700,l),
(223.999,700,l)
);
},
{
closed = 1;
nodes = (
(198.714,250,l),
(273.713,495,l),
(276.714,250,l)
);
}
);
width = 486;
},
{
anchors = (
{
name = b.uni0324_2;
position = "{244, 0}";
},
{
name = m.uni0308_1;
position = "{344, 700}";
},
{
name = m.uni0328;
position = "{509, 10}";
}
);
layerId = "8F32FC6E-BE02-4CA7-9492-B77DE78BF7A2";
shapes = (
{
closed = 1;
nodes = (
(-64,0,l),
(118,0,l),
(167,115,l),
(372,115,l),
(387,0,l),
(571,0,l),
(424,700,l),
(283,700,l)
);
},
{
closed = 1;
nodes = (
(233,260,l),
(317,458,l),
(347,260,l)
);
}
);
width = 592;
},
{
anchors = (
{
name = b.uni0324_2;
position = "{211, 0}";
},
{
name = m.uni0308_1;
position = "{311, 700}";
},
{
name = m.uni0328;
position = "{395, 10}";
}
);
layerId = "BECF1E07-6E55-4435-99B7-BB5ED0FBC597";
shapes = (
{
closed = 1;
nodes = (
(-44,0,l),
(86,0,l),
(134.428,136,l),
(297.428,136,l),
(306,0,l),
(436,0,l),
(356.999,700,l),
(235.999,700,l)
);
},
{
closed = 1;
nodes = (
(173.428,248,l),
(272.999,532,l),
(290.428,248,l)
);
}
);
width = 476;
},
{
anchors = (
{
name = b.uni0324_2;
position = "{250, 0}";
},
{
name = m.uni0308_1;
position = "{350, 700}";
},
{
name = m.uni0328;
position = "{515, 10}";
}
);
layerId = "C47A9308-35A1-4D64-9609-F04248EAE8DE";
shapes = (
{
closed = 1;
nodes = (
(-56,0,l),
(85,0,l),
(145.828,137,l),
(388.828,137,l),
(414,0,l),
(556,0,l),
(404.999,700,l),
(294.999,700,l)
);
},
{
closed = 1;
nodes = (
(200.228,249,l),
(317.314,513,l),
(371.228,249,l)
);
}
);
width = 585;
},
{
anchors = (
{
name = b.uni0324_2;
position = "{156, 0}";
},
{
name = m.uni0308_1;
position = "{256, 700}";
},
{
name = m.uni0328;
position = "{267, 15}";
}
);
layerId = "A5CA3E3F-63D1-490B-B4EA-8ECA27DB3C92";
shapes = (
{
closed = 1;
nodes = (
(-39,0,l),
(39,0,l),
(109.714,180,l),
(316.714,180,l),
(336,0,l),
(415,0,l),
(321.999,700,l),
(253.999,700,l)
);
},
{
closed = 1;
nodes = (
(135.,245,l),
(271.856,587,l),
(310.,245,l)
);
}
);
width = 460;
},
{
anchors = (
{
name = b.uni0324_2;
position = "{260, 0}";
},
{
name = m.uni0308_1;
position = "{360, 700}";
},
{
name = m.uni0328;
position = "{525, 10}";
}
);
layerId = "BD06E2F8-4593-4D8E-97D3-0F0A9BC781C2";
shapes = (
{
closed = 1;
nodes = (
(-43,0,l),
(36,0,l),
(119.285,170,l),
(419.285,170,l),
(455,0,l),
(534,0,l),
(376.999,700,l),
(313.999,700,l)
);
},
{
closed = 1;
nodes = (
(150.285,233,l),
(329.999,595,l),
(407.285,233,l)
);
}
);
width = 574;
},
{
anchors = (
{
name = b.uni0324_2;
position = "{268, 0}";
},
{
name = m.uni0308_1;
position = "{368, 700}";
},
{
name = m.uni0328;
position = "{533, 10}";
}
);
layerId = "BED270ED-D05C-40FE-BC6A-D5F2DB2176C1";
shapes = (
{
closed = 1;
nodes = (
(-33,0,l),
(5,0,l),
(101.428,192,l),
(439.428,192,l),
(484,0,l),
(521,0,l),
(359.999,700,l),
(327.999,700,l)
);
},
{
closed = 1;
nodes = (
(118.714,222,l),
(336.856,650,l),
(432.714,222,l)
);
}
);
width = 570;
},
{
anchors = (
{
name = b.uni0324_2;
position = "{123, 0}";
},
{
name = m.uni0308_1;
position = "{223, 700}";
},
{
name = m.uni0328;
position = "{185, 18}";
}
);
layerId = "624BE5E0-C167-4D60-8955-1CEBAB9BFDFE";
shapes = (
{
closed = 1;
nodes = (
(-32,0,l),
(11,0,l),
(96.857,209,l),
(332.857,209,l),
(359,0,l),
(404,0,l),
(301.999,700,l),
(268.999,700,l)
);
},
{
closed = 1;
nodes = (
(112.714,243,l),
(274.142,624,l),
(326.714,243,l)
);
}
);
width = 456;
}
);
leftKerningGroup = A2;
rightKerningGroup = A;
unicode = 65;
},
{
glyphname = B;
layers = (
{
anchors = (
{
name = b.uni0324_2;
position = "{220, 0}";
},
{
name = m.uni0308_1;
position = "{320, 700}";
}
);
layerId = "EB61547D-F7E1-476C-A885-D7B2C933109F";
shapes = (
{
closed = 1;
nodes = (
(-21,0,l),
(174,0,ls),
(283,0,o),
(342.,35,o),
(370.571,95,cs),
(384.714,124,o),
(395.285,163,o),
(402.,210,cs),
(408.142,253,o),
(408.999,287,o),
(405.428,311,cs),
(401.857,335,o),
(386.714,355,o),
(360.856,370,c),
(411.999,399,o),
(435.856,440,o),
(445.428,507,cs),
(465.285,646,o),
(417.999,700,o),
(274.999,700,cs),
(78.999,700,l)
);
},
{
closed = 1;
nodes = (
(156.428,143,l),
(178.571,298,l),
(197.571,298,ls),
(244.571,298,o),
(252.714,278,o),
(244.571,221,cs),
(240.,189,o),
(234.,168,o),
(225.571,158,cs),
(217.143,148,o),
(200.428,143,o),
(175.428,143,cs)
);
},
{
closed = 1;
nodes = (
(198.142,435,l),
(215.57,557,l),
(235.57,557,ls),
(280.57,557,o),
(291.57,543,o),
(284.856,496,cs),
(277.999,448,o),
(266.142,435,o),
(219.142,435,cs)
);
}
);
width = 432;
},
{
anchors = (
{
name = b.uni0324_2;
position = "{241, 0}";
},
{
name = m.uni0308_1;
position = "{341, 700}";
}
);
layerId = "8F32FC6E-BE02-4CA7-9492-B77DE78BF7A2";
shapes = (
{
closed = 1;
nodes = (
(-20,0,l),
(277,0,ls),
(369,0,o),
(439,32,o),
(484,95,cs),
(505,126,o),
(519,164,o),
(526,207,cs),
(531,242,o),
(528,273,o),
(518,299,cs),
(506,325,o),
(489,345,o),
(464,360,c),
(514,392,o),
(552,445,o),
(559,498,cs),
(578,629,o),
(508,700,o),
(363,700,cs),
(80,700,l)
);
},
{
closed = 1;
nodes = (
(176,149,l),
(195,280,l),
(301,280,ls),
(342,280,o),
(360,256,o),
(354,219,cs),
(351,197,o),
(344,180,o),
(333,168,cs),
(321,155,o),
(304,149,o),
(282,149,cs)
);
},
{
closed = 1;
nodes = (
(216,430,l),
(234,551,l),
(330,551,ls),
(373,551,o),
(389,531,o),
(383,488,cs),
(377,451,o),
(357,430,o),
(312,430,cs)
);
}
);
width = 555;
},
{
anchors = (
{
name = b.uni0324_2;
position = "{173, 0}";
},
{
name = m.uni0308_1;
position = "{273, 700}";
}
);
layerId = "BECF1E07-6E55-4435-99B7-BB5ED0FBC597";
shapes = (
{
closed = 1;
nodes = (
(-7,0,l),
(182,0,ls),
(281,0,o),
(338.714,33,o),
(370.,91,cs),
(385.143,120,o),
(396.571,158,o),
(403.,203,cs),
(409.428,248,o),
(408.571,284,o),
(402.285,310,c),
(394.857,335,o),
(376.714,355,o),
(348.428,367,c),
(405.285,394,o),
(434.713,439,o),
(444.999,511,cs),
(463.999,644,o),
(416.999,700,o),
(281.999,700,cs),
(92.999,700,l)
);
},
{
closed = 1;
nodes = (
(133.,112,l),
(161.428,311,l),
(212.428,311,ls),
(271.428,311,o),
(289.142,281,o),
(279.285,212,cs),
(274.,175,o),
(265.143,148,o),
(251.143,134,cs),
(237.143,120,o),
(215.,112,o),
(184.,112,cs)
);
},
{
closed = 1;
nodes = (
(176.856,419,l),
(200.999,588,l),
(252.999,588,ls),
(309.999,588,o),
(327.856,566,o),
(318.856,503,cs),
(310.285,443,o),
(285.856,419,o),
(228.856,419,cs)
);
}
);
width = 446;
},
{
anchors = (
{
name = b.uni0324_2;
position = "{247, 0}";
},
{
name = m.uni0308_1;
position = "{347, 700}";
}
);
layerId = "C47A9308-35A1-4D64-9609-F04248EAE8DE";
shapes = (
{
closed = 1;
nodes = (
(1,0,l),
(285,0,ls),
(375,0,o),
(445.829,32,o),
(490.314,93,c),
(511.028,123,o),
(525.086,159,o),
(531.486,201,cs),
(536.657,239,o),
(532.543,272,o),
(520.085,299,c),
(506.628,326,o),
(484.828,347,o),
(455.571,360,c),
(514.171,388,o),
(556.371,444,o),
(563.857,505,c),
(583.,630,o),
(513.999,700,o),
(373.999,700,cs),
(100.999,700,l)
);
},
{
closed = 1;
nodes = (
(154.628,116,l),
(177.028,298,l),
(313.028,298,ls),
(376.028,298,o),
(405.2,266,o),
(399.,210,cs),
(395.286,180,o),
(384.971,157,o),
(367.057,141,cs),
(348.086,124,o),
(322.628,116,o),
(290.628,116,cs)
);
},
{
closed = 1;
nodes = (
(195.657,414,l),
(216.371,584,l),
(345.371,584,ls),
(407.371,584,o),
(434.714,555,o),
(428.4,497,cs),
(421.314,443,o),
(386.657,414,o),
(323.657,414,cs)
);
}
);
width = 578;
},
{
anchors = (
{
name = b.uni0324_2;
position = "{103, 0}";
},
{
name = m.uni0308_1;
position = "{203, 700}";
}
);
layerId = "A5CA3E3F-63D1-490B-B4EA-8ECA27DB3C92";
shapes = (
{
closed = 1;
nodes = (
(14,0,l),
(194,0,ls),
(277,0,o),
(334.143,29,o),
(369.286,86,cs),
(386.428,115,o),
(398.428,150,o),
(404.571,193,cs),
(411.428,241,o),
(408.857,279,o),
(396.999,308,c),
(383.999,336,o),
(361.571,354,o),
(329.856,363,c),
(396.142,386,o),
(432.428,437,o),
(443.856,517,cs),
(461.713,642,o),
(415.999,700,o),
(292.999,700,cs),
(113.999,700,l)
);
},
{
closed = 1;
nodes = (
(97.428,66,l),
(135.142,330,l),
(235.142,330,ls),
(311.142,330,o),
(343.857,286,o),
(331.285,198,cs),
(324.857,153,o),
(311.,119,o),
(289.,98,cs),
(267.,77,o),
(236.428,66,o),
(197.428,66,cs)
);
},
{
closed = 1;
nodes = (
(144.428,395,l),
(178.57,634,l),
(278.57,634,ls),
(354.57,634,o),
(381.713,600,o),
(369.285,513,cs),
(358.285,436,o),
(316.428,395,o),
(243.428,395,cs)
);
}
);
width = 467;
},
{
anchors = (
{
name = b.uni0324_2;
position = "{256, 0}";
},
{
name = m.uni0308_1;
position = "{356, 700}";
}
);
layerId = "BD06E2F8-4593-4D8E-97D3-0F0A9BC781C2";
shapes = (
{
closed = 1;
nodes = (
(32,0,l),
(297,0,ls),
(385,0,o),
(456.429,31,o),
(498.714,89,cs),
(519.857,118,o),
(532.714,152,o),
(538.428,192,cs),
(544.428,234,o),
(539.571,270,o),
(523.714,299,cs),
(506.857,328,o),
(479.857,349,o),
(442.428,360,c),
(513.714,383,o),
(563.285,443,o),
(573.57,515,cs),
(590.285,632,o),
(522.999,700,o),
(390.999,700,cs),
(131.999,700,l)
);
},
{
closed = 1;
nodes = (
(116.428,66,l),
(153.428,325,l),
(335.428,325,ls),
(430.428,325,o),
(475.999,280,o),
(464.142,197,cs),
(458.143,155,o),
(440.571,123,o),
(412.286,100,cs),
(383.,77,o),
(344.428,66,o),
(297.428,66,cs)
);
},
{
closed = 1;
nodes = (
(162.714,390,l),
(197.57,634,l),
(374.57,634,ls),
(466.57,634,o),
(509.57,592,o),
(497.999,511,cs),
(486.713,432,o),
(427.714,390,o),
(338.714,390,cs)
);
}
);
width = 612;
},
{
anchors = (
{
name = b.uni0324_2;
position = "{264, 0}";
},
{
name = m.uni0308_1;
position = "{364, 700}";
}
);
layerId = "BED270ED-D05C-40FE-BC6A-D5F2DB2176C1";
shapes = (
{
closed = 1;
nodes = (
(55,0,l),
(307,0,ls),
(394,0,o),
(465.286,30,o),
(506.286,86,cs),
(527.286,114,o),
(540.,147,o),
(545.571,186,cs),
(552.,231,o),
(546.285,268,o),
(527.714,299,cs),
(509.142,330,o),
(478.999,350,o),
(435.428,360,c),
(515.142,379,o),
(570.142,442,o),
(581.57,522,cs),
(597.57,634,o),
(530.999,700,o),
(403.999,700,cs),
(154.999,700,l)
);
},
{
closed = 1;
nodes = (
(94.714,33,l),
(138.999,343,l),
(350.999,343,ls),
(466.999,343,o),
(524.285,289,o),
(509.857,188,cs),
(502.714,138,o),
(481.286,100,o),
(445.428,73,cs),
(409.571,46,o),
(362.714,33,o),
(305.714,33,cs)
);
},
{
closed = 1;
nodes = (
(143.428,374,l),
(185.284,667,l),
(394.284,667,ls),
(506.284,667,o),
(560.142,617,o),
(546.285,520,cs),
(532.714,425,o),
(458.428,374,o),
(351.428,374,cs)
);
}
);
width = 639;
},
{
anchors = (
{
name = b.uni0324_2;
position = "{61, 0}";
},
{
name = m.uni0308_1;
position = "{161, 700}";
}
);
layerId = "624BE5E0-C167-4D60-8955-1CEBAB9BFDFE";
shapes = (
{
closed = 1;
nodes = (
(33,0,l),
(207,0,ls),
(279,0,o),
(336.714,26,o),
(373.857,83,cs),
(392.857,111,o),
(404.714,145,o),
(410.571,186,cs),
(417.714,236,o),
(413.428,276,o),
(397.714,306,cs),
(381.999,336,o),
(356.571,354,o),
(322.428,360,c),
(394.285,380,o),
(436.285,436,o),
(448.428,521,cs),
(465.57,641,o),
(419.999,700,o),
(304.999,700,cs),
(132.999,700,l)
);
},
{
closed = 1;
nodes = (
(79.,35,l),
(122.999,343,l),
(254.999,343,ls),
(342.999,343,o),
(385.285,289,o),
(371.,189,cs),
(363.714,138,o),
(346.286,100,o),
(319.571,74,cs),
(292.857,48,o),
(256.,35,o),
(211.,35,cs)
);
},
{
closed = 1;
nodes = (
(128.142,379,l),
(168.999,665,l),
(300.999,665,ls),
(388.999,665,o),
(422.999,623,o),
(408.285,520,cs),
(395.571,431,o),
(342.142,379,o),
(258.142,379,cs)
);
}
);
width = 491;
}
);
unicode = 66;
},
{
glyphname = C;
layers = (
{
anchors = (
{
name = b.uni0324_2;
position = "{226, 0}";
},
{
name = m.uni0308_1;
position = "{326, 702}";
}
);
layerId = "EB61547D-F7E1-476C-A885-D7B2C933109F";
shapes = (
{
closed = 1;
nodes = (
(261.857,-8,o),
(330.571,25,o),
(373.286,86,cs),
(394.714,117,o),
(407.857,153,o),
(414.,196,cs),
(417.571,221,l),
(259.571,221,l),
(256.142,197,ls),
(250.428,157,o),
(230.285,135,o),
(202.285,135,c),
(170.428,136,o),
(159.714,159,o),
(166.714,208,cs),
(206.428,486,ls),
(213.999,539,o),
(226.713,565,o),
(263.713,565,cs),
(288.713,565,o),
(305.713,544,o),
(299.999,504,cs),
(295.571,473,l),
(454.571,473,l),
(458.999,504,ls),
(471.713,593,o),
(448.427,654,o),
(393.856,685,cs),
(365.999,700,o),
(331.142,708,o),
(290.142,708,cs),
(162.142,708,o),
(68.856,636,o),
(51.57,515,cs),
(4.571,186,ls),
(-13.572,59,o),
(50.857,-8,o),
(174.857,-8,cs)
);
}
);
width = 448;
},
{
anchors = (
{
name = b.uni0324_2;
position = "{242, 0}";
},
{
name = m.uni0308_1;
position = "{342, 700}";
}
);
layerId = "8F32FC6E-BE02-4CA7-9492-B77DE78BF7A2";
shapes = (
{
closed = 1;
nodes = (
(353,-8,o),
(438,30,o),
(486,98,cs),
(510,132,o),
(525,172,o),
(531,219,cs),
(533,228,l),
(362,228,l),
(360,217,ls),
(355,181,o),
(316,147,o),
(263,147,cs),
(199,147,o),
(177,187,o),
(191,286,cs),
(208,409,ls),
(224,516,o),
(255,557,o),
(319,557,cs),
(375,557,o),
(403,519,o),
(397,474,cs),
(396,469,l),
(569,469,l),
(570,475,ls),
(584,572,o),
(551,643,o),
(477,680,cs),
(441,699,o),
(395,708,o),
(342,708,cs),
(158,708,o),
(62,610,o),
(35,419,cs),
(15,280,ls),
(-12,89,o),
(57,-8,o),
(237,-8,cs)
);
}
);
width = 561;
},
{
anchors = (
{
name = b.uni0324_2;
position = "{183, 0}";
},
{
name = m.uni0308_1;
position = "{284, 707}";
}
);
layerId = "BECF1E07-6E55-4435-99B7-BB5ED0FBC597";
shapes = (
{
closed = 1;
nodes = (
(265.857,-8,o),
(331.429,24,o),
(373.143,85,cs),
(393.571,116,o),
(406.714,152,o),
(412.857,195,cs),
(415.571,214,l),
(291.571,214,l),
(289.,196,ls),
(280.428,136,o),
(248.857,104,o),
(203.857,104,c),
(153.,105,o),
(133.714,138,o),
(143.428,206,cs),
(183.571,487,ls),
(193.999,560,o),
(220.999,595,o),
(273.999,595,cs),
(317.999,595,o),
(341.57,564,o),
(332.856,503,cs),
(329.856,482,l),
(454.856,482,l),
(457.999,504,ls),
(470.713,593,o),
(447.427,654,o),
(393.856,685,c),
(365.999,700,o),
(333.142,708,o),
(293.142,708,cs),
(169.142,708,o),
(79.713,635,o),
(61.428,507,cs),
(16.571,193,ls),
(-2.143,62,o),
(62.857,-8,o),
(183.857,-8,cs)
);
}
);
width = 459;
},
{
anchors = (
{
name = b.uni0324_2;
position = "{248, 0}";
},
{
name = m.uni0308_1;
position = "{348, 700}";
}
);
layerId = "C47A9308-35A1-4D64-9609-F04248EAE8DE";
shapes = (
{
closed = 1;
nodes = (
(356.543,-8,o),
(438.714,30,o),
(487.486,96,cs),
(511.371,129,o),
(526.6,168,o),
(533.171,213,c),
(534.571,220,l),
(402.571,220,l),
(401.114,212,l),
(394.857,155,o),
(344.4,112,o),
(271.4,112,cs),
(185.4,112,o),
(152.314,163,o),
(166.714,275,cs),
(185.943,419,ls),
(201.914,541,o),
(246.714,590,o),
(331.714,590,cs),
(406.714,590,o),
(446.142,545,o),
(438.485,481,c),
(437.257,477,l),
(571.257,477,l),
(572.543,482,l),
(585.8,574,o),
(553.8,644,o),
(481.857,680,c),
(446.942,699,o),
(403.457,708,o),
(352.457,708,cs),
(178.457,708,o),
(79.085,614,o),
(52.343,426,c),
(31.6,273,l),
(4.857,85,o),
(77.543,-8,o),
(248.543,-8,cs)
);
}
);
width = 580;
},
{
anchors = (
{
name = b.uni0324_2;
position = "{119, 0}";
},
{
name = m.uni0308_1;
position = "{221, 714}";
}
);
layerId = "A5CA3E3F-63D1-490B-B4EA-8ECA27DB3C92";
shapes = (
{
closed = 1;
nodes = (
(271.857,-8,o),
(332.286,23,o),
(372.,84,cs),
(391.286,114,o),
(404.571,151,o),
(410.714,194,cs),
(412.142,204,l),
(340.142,204,l),
(338.857,195,ls),
(325.857,104,o),
(277.286,58,o),
(206.286,58,cs),
(127.428,59,o),
(95.286,107,o),
(109.,203,cs),
(149.713,488,ls),
(164.57,592,o),
(212.427,640,o),
(289.427,640,cs),
(361.427,640,o),
(395.999,595,o),
(382.713,502,cs),
(381.713,495,l),
(455.713,495,l),
(456.999,504,ls),
(469.713,593,o),
(445.427,654,o),
(393.856,685,c),
(366.999,700,o),
(335.142,708,o),
(298.142,708,cs),
(179.142,708,o),
(96.57,634,o),
(76.713,495,cs),
(35.142,204,ls),
(15.571,67,o),
(79.857,-8,o),
(196.857,-8,cs)
);
}
);
width = 475;
},
{
anchors = (
{
name = b.uni0324_2;
position = "{257, 0}";
},
{
name = m.uni0308_1;
position = "{357, 700}";
}
);
layerId = "BD06E2F8-4593-4D8E-97D3-0F0A9BC781C2";
shapes = (
{
closed = 1;
nodes = (
(360.857,-8,o),
(440.143,29,o),
(489.286,93,cs),
(512.857,125,o),
(528.143,162,o),
(534.142,204,cs),
(534.714,208,l),
(461.714,208,l),
(461.142,204,ls),
(448.571,116,o),
(378.571,60,o),
(275.571,60,cs),
(158.571,60,o),
(110.,126,o),
(128.857,258,cs),
(153.999,434,ls),
(174.57,578,o),
(241.427,640,o),
(357.427,640,cs),
(460.427,640,o),
(515.428,584,o),
(502.285,492,cs),
(501.856,489,l),
(576.856,489,l),
(577.285,492,ls),
(589.428,577,o),
(557.142,645,o),
(490.284,681,cs),
(455.856,699,o),
(415.142,708,o),
(367.142,708,cs),
(210.142,708,o),
(106.57,620,o),
(80.428,437,cs),
(55.428,262,ls),
(29.286,79,o),
(107.857,-8,o),
(264.857,-8,cs)
);
}
);
width = 608;
},
{
anchors = (
{
name = b.uni0324_2;
position = "{265, 0}";
},
{
name = m.uni0308_1;
position = "{365, 700}";
}
);
layerId = "BED270ED-D05C-40FE-BC6A-D5F2DB2176C1";
shapes = (
{
closed = 1;
nodes = (
(365.857,-8,o),
(443.,28,o),
(492.,91,cs),
(516.428,122,o),
(531.571,158,o),
(537.285,198,cs),
(537.571,200,l),
(503.571,200,l),
(503.428,199,ls),
(487.857,90,o),
(405.571,25,o),
(282.571,25,cs),
(143.571,25,o),
(85.571,102,o),
(106.285,247,cs),
(134.428,444,ls),
(157.142,603,o),
(238.142,673,o),
(375.142,673,cs),
(496.142,673,o),
(562.142,610,o),
(546.285,499,cs),
(545.999,497,l),
(581.999,497,l),
(582.285,499,ls),
(593.713,579,o),
(562.285,646,o),
(497.427,682,cs),
(464.856,699,o),
(425.142,708,o),
(379.142,708,cs),
(232.142,708,o),
(126.142,624,o),
(100.428,444,cs),
(73.428,255,ls),
(47.714,75,o),
(129.857,-8,o),
(277.857,-8,cs)
);
}
);
width = 631;
},
{
anchors = (
{
name = b.uni0324_2;
position = "{81, 0}";
},
{
name = m.uni0308_1;
position = "{184, 719}";
}
);
layerId = "624BE5E0-C167-4D60-8955-1CEBAB9BFDFE";
shapes = (
{
closed = 1;
nodes = (
(279.857,-8,o),
(339.143,22,o),
(376.857,83,cs),
(396.143,113,o),
(408.428,150,o),
(414.571,193,cs),
(415.142,197,l),
(377.142,197,l),
(376.714,194,ls),
(360.857,83,o),
(300.857,27,o),
(212.857,27,cs),
(116.,28,o),
(74.286,86,o),
(90.714,201,cs),
(131.856,489,ls),
(149.57,613,o),
(211.713,670,o),
(304.713,670,cs),
(395.713,670,o),
(436.999,616,o),
(420.571,501,c),
(420.999,504,l),
(460.999,504,l),
(460.999,504,l),
(473.713,593,o),
(449.427,654,o),
(398.856,685,cs),
(372.999,700,o),
(342.142,708,o),
(306.142,708,cs),
(191.142,708,o),
(112.285,632,o),
(91.571,487,cs),
(52.142,211,ls),
(32.,70,o),
(95.857,-8,o),
(210.857,-8,cs)
);
}
);
width = 496;
}
);
leftKerningGroup = C;
unicode = 67;
},
{
glyphname = Ccedilla;
layers = (
{
anchors = (
{
name = b.uni0324_2;
position = "{170, -167}";
},
{
name = m.uni0308_1;
position = "{326, 702}";
}
);
layerId = "EB61547D-F7E1-476C-A885-D7B2C933109F";
shapes = (
{
closed = 1;
nodes = (
(53,-220,l),
(127,-220,l),
(200,-222,o),
(250,-186,o),
(258,-131,c),
(268,-75,o),
(247,-40,o),
(190,-34,c),
(202,-7,l),
(276,-1,o),
(336,32,o),
(373,86,cs),
(395,117,o),
(408,153,o),
(414,196,cs),
(418,221,l),
(260,221,l),
(256,197,ls),
(250,157,o),
(230,135,o),
(202,135,c),
(170,136,o),
(160,159,o),
(167,208,cs),
(206,486,ls),
(214,539,o),
(227,565,o),
(264,565,cs),
(289,565,o),
(306,544,o),
(300,504,cs),
(296,473,l),
(455,473,l),
(459,504,ls),
(472,593,o),
(448,654,o),
(394,685,cs),
(366,700,o),
(331,708,o),
(290,708,cs),
(162,708,o),
(69,636,o),
(52,515,cs),
(5,186,ls),
(-11,77,o),
(34,12,o),
(125,-4,c),
(105,-52,l),
(100,-85,l),
(146,-85,ls),
(163,-85,o),
(184,-93,o),
(181,-113,cs),
(178,-132,o),
(151,-133,o),
(139,-133,cs),
(65,-133,l)
);
}
);
width = 448;
},
{
anchors = (
{
name = b.uni0324_2;
position = "{189, -160}";
},
{
name = m.uni0308_1;
position = "{342, 700}";
}
);
layerId = "8F32FC6E-BE02-4CA7-9492-B77DE78BF7A2";
shapes = (
{
closed = 1;
nodes = (
(131,-220,l),
(205,-220,l),
(278,-222,o),
(328,-186,o),
(336,-131,c),
(346,-75,o),
(325,-40,o),
(268,-34,c),
(281,-6,l),
(375,3,o),
(445,39,o),
(486,98,cs),
(510,132,o),
(525,172,o),
(531,219,cs),
(533,228,l),
(362,228,l),
(360,217,ls),
(355,181,o),
(316,147,o),
(263,147,cs),
(199,147,o),
(177,187,o),
(191,286,cs),
(208,409,ls),
(224,516,o),
(255,557,o),
(319,557,cs),
(375,557,o),
(403,519,o),
(397,474,cs),
(396,469,l),
(569,469,l),
(570,475,ls),
(584,572,o),
(551,643,o),
(477,680,cs),
(441,699,o),
(395,708,o),
(342,708,cs),
(158,708,o),
(62,610,o),
(35,419,cs),
(15,280,ls),
(-10,102,o),
(48,5,o),
(202,-7,c),
(183,-52,l),
(178,-85,l),
(224,-85,ls),
(241,-85,o),
(262,-93,o),
(259,-113,cs),
(256,-132,o),
(229,-133,o),
(217,-133,cs),
(143,-133,l)
);
}
);
width = 561;
},
{
anchors = (
{
name = b.uni0324_2;
position = "{123, -168}";
},
{
name = m.uni0308_1;
position = "{284, 707}";
}
);
layerId = "BECF1E07-6E55-4435-99B7-BB5ED0FBC597";
shapes = (
{
closed = 1;
nodes = (
(71,-220,l),
(139,-220,l),
(208,-221,o),
(262,-190,o),
(270,-131,c),
(279,-76,o),
(256,-43,o),
(201,-37,c),
(214,-6,l),
(282,1,o),
(337,32,o),
(373,85,cs),
(393,116,o),
(407,152,o),
(413,195,cs),
(416,214,l),
(292,214,l),
(289,196,ls),
(280,136,o),
(249,104,o),
(204,104,c),
(153,105,o),
(134,138,o),
(144,206,cs),
(184,487,ls),
(194,560,o),
(221,595,o),
(274,595,cs),
(318,595,o),
(342,564,o),
(333,503,cs),
(330,482,l),
(455,482,l),
(458,504,ls),
(471,593,o),
(447,654,o),
(394,685,c),
(366,700,o),
(333,708,o),
(293,708,cs),
(169,708,o),
(80,635,o),
(62,507,cs),
(17,193,ls),
(1,79,o),
(47,10,o),
(140,-5,c),
(121,-50,l),
(116,-85,l),
(158,-85,ls),
(179,-85,o),
(204,-93,o),
(201,-117,cs),
(198,-139,o),
(167,-143,o),
(150,-143,cs),
(82,-143,l)
);
}
);
width = 459;
},
{
anchors = (
{
name = b.uni0324_2;
position = "{195, -160}";
},
{
name = m.uni0308_1;
position = "{348, 700}";
}
);
layerId = "C47A9308-35A1-4D64-9609-F04248EAE8DE";
shapes = (
{
closed = 1;
nodes = (
(145,-220,l),
(213,-220,l),
(281,-221,o),
(335,-190,o),
(344,-131,c),
(353,-76,o),
(330,-43,o),
(274,-37,c),
(288,-6,l),
(377,3,o),
(445,38,o),
(487,96,cs),
(511,129,o),
(526,168,o),
(532,213,c),
(534,220,l),
(402,220,l),
(400,212,l),
(393,155,o),
(341,112,o),
(268,112,cs),
(183,112,o),
(150,163,o),
(166,275,cs),
(186,419,ls),
(204,541,o),
(249,590,o),
(334,590,cs),
(409,590,o),
(448,545,o),
(439,481,c),
(438,477,l),
(572,477,l),
(573,482,l),
(586,574,o),
(553,644,o),
(482,680,c),
(447,699,o),
(403,708,o),
(352,708,cs),
(179,708,o),
(80,614,o),
(53,426,cs),
(31,273,ls),
(6,98,o),
(67,5,o),
(213,-7,c),
(195,-50,l),
(190,-85,l),
(232,-85,ls),
(253,-85,o),
(278,-93,o),
(274,-117,cs),
(271,-139,o),
(241,-143,o),
(223,-143,cs),
(156,-143,l)
);
}
);
width = 580;
},
{
anchors = (
{
name = b.uni0324_2;
position = "{53, -170}";
},
{
name = m.uni0308_1;
position = "{221, 714}";
}
);
layerId = "A5CA3E3F-63D1-490B-B4EA-8ECA27DB3C92";
shapes = (
{
closed = 1;
nodes = (
(99,-220,l),
(157,-220,ls),
(219,-220,o),
(279,-197,o),
(288,-131,cs),
(296,-78,o),
(270,-47,o),
(217,-42,c),
(232,-5,l),
(290,3,o),
(339,33,o),
(372,84,cs),
(391,114,o),
(405,151,o),
(411,194,cs),
(412,204,l),
(340,204,l),
(339,195,ls),
(326,104,o),
(277,58,o),
(206,58,cs),
(127,59,o),
(95,107,o),
(109,203,cs),
(150,488,ls),
(165,592,o),
(212,640,o),
(289,640,cs),
(361,640,o),
(396,595,o),
(383,502,cs),
(382,495,l),
(456,495,l),
(457,504,ls),
(470,593,o),
(445,654,o),
(394,685,c),
(367,700,o),
(335,708,o),
(298,708,cs),
(179,708,o),
(97,634,o),
(77,495,cs),
(35,204,ls),
(18,81,o),
(67,7,o),
(163,-6,c),
(145,-48,l),
(140,-85,l),
(176,-85,ls),
(203,-85,o),
(235,-94,o),
(230,-123,cs),
(227,-150,o),
(192,-157,o),
(166,-157,cs),
(108,-157,l)
);
}
);
width = 475;
},
{
anchors = (
{
name = b.uni0324_2;
position = "{204, -160}";
},
{
name = m.uni0308_1;
position = "{357, 700}";
}
);
layerId = "BD06E2F8-4593-4D8E-97D3-0F0A9BC781C2";
shapes = (
{
closed = 1;
nodes = (
(166,-220,l),
(224,-220,ls),
(286,-220,o),
(346,-197,o),
(355,-131,cs),
(363,-78,o),
(337,-47,o),
(284,-42,c),
(299,-6,l),
(379,2,o),
(446,37,o),
(489,93,cs),
(513,125,o),
(528,162,o),
(534,204,cs),
(535,208,l),
(462,208,l),
(461,204,ls),
(449,116,o),
(379,60,o),
(276,60,cs),
(159,60,o),
(110,126,o),
(129,258,cs),
(154,434,ls),
(175,578,o),
(241,640,o),
(357,640,cs),
(460,640,o),
(515,584,o),
(502,492,cs),
(502,489,l),
(577,489,l),
(577,492,ls),
(589,577,o),
(557,645,o),
(490,681,cs),
(456,699,o),
(415,708,o),
(367,708,cs),
(210,708,o),
(107,620,o),
(80,437,cs),
(55,262,ls),
(31,93,o),
(96,6,o),
(230,-6,c),
(212,-48,l),
(207,-85,l),
(243,-85,ls),
(270,-85,o),
(302,-94,o),
(297,-123,cs),
(294,-150,o),
(259,-157,o),
(233,-157,cs),
(175,-157,l)
);
}
);
width = 608;
},
{
anchors = (
{
name = b.uni0324_2;
position = "{212, -160}";
},
{
name = m.uni0308_1;
position = "{365, 700}";
}
);
layerId = "BED270ED-D05C-40FE-BC6A-D5F2DB2176C1";
shapes = (
{
closed = 1;
nodes = (
(175,-220,l),
(222,-220,l),
(290,-221,o),
(345,-192,o),
(352,-138,cs),
(359,-90,o),
(326,-58,o),
(262,-54,c),
(283,-8,l),
(369,-7,o),
(444,29,o),
(492,91,cs),
(516,122,o),
(532,158,o),
(537,198,cs),
(538,200,l),
(504,200,l),
(503,199,ls),
(488,90,o),
(406,25,o),
(283,25,cs),
(144,25,o),
(86,102,o),
(106,247,cs),
(134,444,ls),
(157,603,o),
(238,673,o),
(375,673,cs),
(496,673,o),
(562,610,o),
(546,499,cs),
(546,497,l),
(582,497,l),
(582,499,ls),
(594,579,o),
(562,646,o),
(497,682,cs),
(465,699,o),
(425,708,o),
(379,708,cs),
(232,708,o),
(126,624,o),
(100,444,cs),
(73,255,ls),
(49,87,o),
(119,3,o),
(250,-7,c),
(225,-61,l),
(222,-83,l),
(241,-83,ls),
(290,-83,o),
(325,-101,o),
(320,-135,cs),
(315,-169,o),
(275,-186,o),
(226,-186,cs),
(179,-186,l)
);
}
);
width = 631;
},
{
anchors = (
{
name = b.uni0324_2;
position = "{11, -171}";
},
{
name = m.uni0308_1;
position = "{184, 719}";
}
);
layerId = "624BE5E0-C167-4D60-8955-1CEBAB9BFDFE";
shapes = (
{
closed = 1;
nodes = (
(117,-220,l),
(164,-220,l),
(232,-221,o),
(287,-192,o),
(294,-138,cs),
(301,-90,o),
(268,-58,o),
(204,-54,c),
(225,-8,l),
(288,-4,o),
(342,26,o),
(377,83,cs),
(396,113,o),
(408,150,o),
(415,193,cs),
(415,197,l),
(377,197,l),
(377,194,ls),
(361,83,o),
(301,27,o),
(213,27,cs),
(116,28,o),
(74,86,o),
(91,201,cs),
(132,489,ls),
(150,613,o),
(212,670,o),
(305,670,cs),
(396,670,o),
(437,616,o),
(421,501,c),
(421,504,l),
(461,504,l),
(461,504,l),
(474,593,o),
(449,654,o),
(399,685,cs),
(373,700,o),
(342,708,o),
(306,708,cs),
(191,708,o),
(112,632,o),
(92,487,cs),
(52,211,ls),
(33,78,o),
(89,1,o),
(192,-7,c),
(167,-61,l),
(164,-83,l),
(183,-83,ls),
(232,-83,o),
(267,-101,o),
(262,-135,cs),
(257,-169,o),
(217,-186,o),
(168,-186,cs),
(121,-186,l)
);
}
);
width = 496;
}
);
leftKerningGroup = C;
unicode = 199;
},
{
glyphname = D;
layers = (
{
anchors = (
{
name = b.uni0324_2;
position = "{221, 0}";
},
{
name = m.uni0308_1;
position = "{321, 700}";
}
);
layerId = "EB61547D-F7E1-476C-A885-D7B2C933109F";
shapes = (
{
closed = 1;
nodes = (
(-20,0,l),
(169,0,ls),
(300,0,o),
(388.286,72,o),
(405.428,192,cs),
(450.571,508,ls),
(468.285,632,o),
(399.999,700,o),
(280.999,700,cs),
(79.999,700,l)
);
},
{
closed = 1;
nodes = (
(157.285,142,l),
(216.428,556,l),
(255.428,556,ls),
(282.428,556,o),
(294.856,531,o),
(286.999,476,cs),
(249.857,216,ls),
(243.428,171,o),
(224.285,142,o),
(196.285,142,cs)
);
}
);
width = 441;
},
{
anchors = (
{
name = b.uni0324_2;
position = "{243, 0}";
},
{
name = m.uni0308_1;
position = "{343, 700}";
}
);
layerId = "8F32FC6E-BE02-4CA7-9492-B77DE78BF7A2";
shapes = (
{
closed = 1;
nodes = (
(-19,0,l),
(228,0,ls),
(411,0,o),
(510,99,o),
(537,290,cs),
(555,412,ls),
(583,612,o),
(504,700,o),
(335,700,cs),
(81,700,l)
);
},
{
closed = 1;
nodes = (
(177,150,l),
(235,550,l),
(312,550,ls),
(377,550,o),
(394,506,o),
(380,403,cs),
(364,294,ls),
(350,195,o),
(313,150,o),
(254,150,cs)
);
}
);
width = 556;
},
{
anchors = (
{
name = b.uni0324_2;
position = "{174, 0}";
},
{
name = m.uni0308_1;
position = "{274, 700}";
}
);
layerId = "BECF1E07-6E55-4435-99B7-BB5ED0FBC597";
shapes = (
{
closed = 1;
nodes = (
(-7,0,l),
(180,0,ls),
(305,0,o),
(391.428,73,o),
(409.714,201,cs),
(452.285,499,ls),
(470.713,628,o),
(405.999,700,o),
(286.999,700,cs),
(92.999,700,l)
);
},
{
closed = 1;
nodes = (
(133.,112,l),
(200.856,587,l),
(267.856,587,ls),
(314.856,587,o),
(334.713,551,o),
(324.142,477,cs),
(286.714,215,ls),
(277.285,149,o),
(247.,112,o),
(200.,112,cs)
);
}
);
width = 454;
},
{
anchors = (
{
name = b.uni0324_2;
position = "{249, 0}";
},
{
name = m.uni0308_1;
position = "{349, 700}";
}
);
layerId = "C47A9308-35A1-4D64-9609-F04248EAE8DE";
shapes = (
{
closed = 1;
nodes = (
(2,0,l),
(247,0,ls),
(419,0,o),
(519.429,95,o),
(546.114,282,c),
(564.943,419,l),
(591.914,611,o),
(514.999,700,o),
(350.999,700,cs),
(101.999,700,l)
);
},
{
closed = 1;
nodes = (
(156.686,117,l),
(218.314,583,l),
(331.314,583,ls),
(414.314,583,o),
(444.285,530,o),
(429.543,412,cs),
(412.171,283,ls),
(397.771,171,o),
(349.686,117,o),
(269.686,117,cs)
);
}
);
width = 581;
},
{
anchors = (
{
name = b.uni0324_2;
position = "{103, 0}";
},
{
name = m.uni0308_1;
position = "{203, 700}";
}
);
layerId = "A5CA3E3F-63D1-490B-B4EA-8ECA27DB3C92";
shapes = (
{
closed = 1;
nodes = (
(12,0,l),
(196,0,ls),
(313,0,o),
(396.714,75,o),
(416.571,214,cs),
(455.428,486,ls),
(474.999,623,o),
(414.999,700,o),
(295.999,700,cs),
(111.999,700,l)
);
},
{
closed = 1;
nodes = (
(96.571,67,l),
(177.427,633,l),
(286.427,633,ls),
(362.427,633,o),
(393.999,581,o),
(379.285,478,cs),
(341.428,213,ls),
(327.571,116,o),
(280.571,67,o),
(205.571,67,cs)
);
}
);
width = 474;
},
{
anchors = (
{
name = b.uni0324_2;
position = "{257, 0}";
},
{
name = m.uni0308_1;
position = "{357, 700}";
}
);
layerId = "BD06E2F8-4593-4D8E-97D3-0F0A9BC781C2";
shapes = (
{
closed = 1;
nodes = (
(32,0,l),
(274,0,ls),
(430,0,o),
(530.857,90,o),
(556.571,270,cs),
(579.285,429,ls),
(604.999,609,o),
(529.999,700,o),
(373.999,700,cs),
(131.999,700,l)
);
},
{
closed = 1;
nodes = (
(117.714,68,l),
(198.285,632,l),
(365.285,632,ls),
(476.285,632,o),
(523.999,567,o),
(503.856,426,cs),
(481.,266,ls),
(462.143,134,o),
(396.714,68,o),
(284.714,68,cs)
);
}
);
width = 619;
},
{
anchors = (
{
name = b.uni0324_2;
position = "{265, 0}";
},
{
name = m.uni0308_1;
position = "{365, 700}";
}
);
layerId = "BED270ED-D05C-40FE-BC6A-D5F2DB2176C1";
shapes = (
{
closed = 1;
nodes = (
(55,0,l),
(295,0,ls),
(440,0,o),
(541.286,86,o),
(566.428,262,cs),
(591.285,436,ls),
(615.856,608,o),
(542.999,700,o),
(391.999,700,cs),
(154.999,700,l)
);
},
{
closed = 1;
nodes = (
(96.,35,l),
(185.999,665,l),
(388.999,665,ls),
(517.999,665,o),
(578.57,592,o),
(556.142,435,cs),
(530.428,255,ls),
(509.714,110,o),
(432.,35,o),
(299.,35,cs)
);
}
);
width = 649;
},
{
anchors = (
{
name = b.uni0324_2;
position = "{61, 0}";
},
{
name = m.uni0308_1;
position = "{161, 700}";
}
);
layerId = "624BE5E0-C167-4D60-8955-1CEBAB9BFDFE";
shapes = (
{
closed = 1;
nodes = (
(30,0,l),
(212,0,ls),
(324,0,o),
(404.857,76,o),
(425.857,223,cs),
(462.142,477,ls),
(482.57,620,o),
(425.999,700,o),
(306.999,700,cs),
(129.999,700,l)
);
},
{
closed = 1;
nodes = (
(77.286,37,l),
(166.856,664,l),
(303.856,664,ls),
(399.856,664,o),
(438.713,600,o),
(421.428,479,cs),
(383.285,212,ls),
(366.286,93,o),
(307.286,37,o),
(214.286,37,cs)
);
}
);
width = 497;
}
);
unicode = 68;
},
{
glyphname = E;
layers = (
{
anchors = (
{
name = b.uni0324_2;
position = "{209, 0}";
},
{
name = m.uni0308_1;
position = "{309, 700}";
},
{
name = m.uni0328;
position = "{419, 10}";
}
);
layerId = "EB61547D-F7E1-476C-A885-D7B2C933109F";
shapes = (
{
closed = 1;
nodes = (
(-20,0,l),
(344,0,l),
(364.428,143,l),
(156.428,143,l),
(176.714,285,l),
(365.714,285,l),
(385.999,427,l),
(196.999,427,l),
(215.428,556,l),
(423.428,556,l),
(443.999,700,l),
(79.999,700,l)
);
}
);
width = 397;
},
{
anchors = (
{
name = b.uni0324_2;
position = "{221, 0}";
},
{
name = m.uni0308_1;
position = "{321, 700}";
},
{
name = m.uni0328;
position = "{449, 10}";
}
);
layerId = "8F32FC6E-BE02-4CA7-9492-B77DE78BF7A2";
shapes = (
{
closed = 1;
nodes = (
(-19,0,l),
(477,0,l),
(498,150,l),
(177,150,l),
(196,278,l),
(474,278,l),
(495,427,l),
(217,427,l),
(235,550,l),
(556,550,l),
(577,700,l),
(81,700,l)
);
}
);
width = 531;
},
{
anchors = (
{
name = b.uni0324_2;
position = "{162, 0}";
},
{
name = m.uni0308_1;
position = "{262, 700}";
},
{
name = m.uni0328;
position = "{332, 10}";
}
);
layerId = "BECF1E07-6E55-4435-99B7-BB5ED0FBC597";
shapes = (
{
closed = 1;
nodes = (
(-6,0,l),
(337,0,l),
(353.,112,l),
(133.,112,l),
(159.857,300,l),
(354.857,300,l),
(370.856,412,l),
(175.856,412,l),
(200.856,587,l),
(420.856,587,l),
(436.999,700,l),
(93.999,700,l)
);
}
);
width = 398;
},
{
anchors = (
{
name = b.uni0324_2;
position = "{227, 0}";
},
{
name = m.uni0308_1;
position = "{327, 700}";
},
{
name = m.uni0328;
position = "{455, 10}";
}
);
layerId = "C47A9308-35A1-4D64-9609-F04248EAE8DE";
shapes = (
{
closed = 1;
nodes = (
(2,0,l),
(471,0,l),
(490.686,117,l),
(155.686,117,l),
(177.971,297,l),
(465.971,297,l),
(484.657,414,l),
(196.657,414,l),
(217.314,583,l),
(551.314,583,l),
(570.999,700,l),
(101.999,700,l)
);
}
);
width = 537;
},
{
anchors = (
{
name = b.uni0324_2;
position = "{91, 0}";
},
{
name = m.uni0308_1;
position = "{191, 700}";
},
{
name = m.uni0328;
position = "{202, 10}";
}
);
layerId = "A5CA3E3F-63D1-490B-B4EA-8ECA27DB3C92";
shapes = (
{
closed = 1;
nodes = (
(15,0,l),
(326,0,l),
(335.428,66,l),
(97.428,66,l),
(134.142,323,l),
(339.142,323,l),
(348.571,389,l),
(143.571,389,l),
(178.57,634,l),
(416.57,634,l),
(425.999,700,l),
(114.999,700,l)
);
}
);
width = 400;
},
{
anchors = (
{
name = b.uni0324_2;
position = "{236, 0}";
},
{
name = m.uni0308_1;
position = "{336, 700}";
},
{
name = m.uni0328;
position = "{464, 10}";
}
);
layerId = "BD06E2F8-4593-4D8E-97D3-0F0A9BC781C2";
shapes = (
{
closed = 1;
nodes = (
(33,0,l),
(462,0,l),
(471.714,68,l),
(117.714,68,l),
(154.571,326,l),
(457.571,326,l),
(467.285,394,l),
(164.285,394,l),
(198.285,632,l),
(552.285,632,l),
(561.999,700,l),
(132.999,700,l)
);
}
);
width = 546;
},
{
anchors = (
{
name = b.uni0324_2;
position = "{243, 0}";
},
{
name = m.uni0308_1;
position = "{343, 700}";
},
{
name = m.uni0328;
position = "{471, 10}";
}
);
layerId = "BED270ED-D05C-40FE-BC6A-D5F2DB2176C1";
shapes = (
{
closed = 1;
nodes = (
(55,0,l),
(457,0,l),
(462.,35,l),
(95.,35,l),
(139.285,345,l),
(452.285,345,l),
(457.428,381,l),
(144.428,381,l),
(184.999,665,l),
(551.999,665,l),
(556.999,700,l),
(154.999,700,l)
);
}
);
width = 554;
},
{
anchors = (
{
name = b.uni0324_2;
position = "{48, 0}";
},
{
name = m.uni0308_1;
position = "{148, 700}";
},
{
name = m.uni0328;
position = "{119, 10}";
}
);
layerId = "624BE5E0-C167-4D60-8955-1CEBAB9BFDFE";
shapes = (
{
closed = 1;
nodes = (
(33,0,l),
(323,0,l),
(328.,35,l),
(78.,35,l),
(121.285,338,l),
(332.285,338,l),
(337.428,374,l),
(126.428,374,l),
(167.999,665,l),
(417.999,665,l),
(422.999,700,l),
(132.999,700,l)
);
}
);
width = 409;
}
);
unicode = 69;
},
{
glyphname = Ecedilla;
layers = (
{
anchors = (
{
name = b.uni0324_2;
position = "{153, -167}";
},
{
name = m.uni0308_1;
position = "{309, 700}";
},
{
name = m.uni0328;
position = "{419, 10}";
}
);
layerId = "EB61547D-F7E1-476C-A885-D7B2C933109F";
shapes = (
{
closed = 1;
nodes = (
(-20,0,l),
(101,0,l),
(79,-52,l),
(74,-85,l),
(120,-85,ls),
(137,-85,o),
(158,-93,o),
(155,-113,cs),
(152,-132,o),
(125,-133,o),
(113,-133,cs),
(39,-133,l),
(27,-220,l),
(101,-220,l),
(174,-222,o),
(224,-186,o),
(232,-131,c),
(242,-75,o),
(221,-40,o),
(164,-34,c),
(179,0,l),
(344,0,l),
(364,143,l),
(156,143,l),
(177,285,l),
(366,285,l),
(386,427,l),
(197,427,l),
(215,556,l),
(423,556,l),
(444,700,l),
(80,700,l)
);
}
);
width = 397;
},
{
anchors = (
{
name = b.uni0324_2;
position = "{168, -160}";
},
{
name = m.uni0308_1;
position = "{321, 700}";
},
{
name = m.uni0328;
position = "{449, 10}";
}
);
layerId = "8F32FC6E-BE02-4CA7-9492-B77DE78BF7A2";
shapes = (
{
closed = 1;
nodes = (
(-19,0,l),
(191,0,l),
(169,-52,l),
(164,-85,l),
(210,-85,ls),
(227,-85,o),
(248,-93,o),
(245,-113,cs),
(242,-132,o),
(215,-133,o),
(203,-133,cs),
(129,-133,l),
(117,-220,l),
(191,-220,l),
(264,-222,o),
(314,-186,o),
(322,-131,c),
(332,-75,o),
(311,-40,o),
(254,-34,c),
(269,0,l),
(477,0,l),
(498,150,l),
(177,150,l),
(196,278,l),
(474,278,l),
(495,427,l),
(217,427,l),
(235,550,l),
(556,550,l),
(577,700,l),
(81,700,l)
);
}
);
width = 531;
},
{
anchors = (
{
name = b.uni0324_2;
position = "{102, -168}";
},
{
name = m.uni0308_1;
position = "{262, 700}";
},
{
name = m.uni0328;
position = "{332, 10}";
}
);
layerId = "BECF1E07-6E55-4435-99B7-BB5ED0FBC597";
shapes = (
{
closed = 1;
nodes = (
(-6,0,l),
(112,0,l),
(90,-50,l),
(85,-85,l),
(127,-85,ls),
(148,-85,o),
(174,-93,o),
(170,-117,cs),
(167,-139,o),
(137,-143,o),
(119,-143,cs),
(51,-143,l),
(41,-220,l),
(108,-220,l),
(177,-221,o),
(231,-190,o),
(239,-131,c),
(248,-76,o),
(225,-43,o),
(170,-37,c),
(186,0,l),
(337,0,l),
(352,112,l),
(132,112,l),
(160,300,l),
(355,300,l),
(371,412,l),
(176,412,l),
(201,587,l),
(421,587,l),
(437,700,l),
(94,700,l)
);
}
);
width = 398;
},
{
anchors = (
{
name = b.uni0324_2;
position = "{174, -160}";
},
{
name = m.uni0308_1;
position = "{327, 700}";
},
{
name = m.uni0328;
position = "{455, 10}";
}
);
layerId = "C47A9308-35A1-4D64-9609-F04248EAE8DE";
shapes = (
{
closed = 1;
nodes = (
(2,0,l),
(195,0,l),
(174,-50,l),
(169,-85,l),
(211,-85,ls),
(232,-85,o),
(257,-93,o),
(253,-117,cs),
(250,-139,o),
(220,-143,o),
(203,-143,cs),
(135,-143,l),
(124,-220,l),
(192,-220,l),
(260,-221,o),
(314,-190,o),
(323,-131,c),
(332,-76,o),
(309,-43,o),
(254,-37,c),
(270,0,l),
(471,0,l),
(488,117,l),
(153,117,l),
(180,297,l),
(468,297,l),
(484,414,l),
(196,414,l),
(220,583,l),
(554,583,l),
(571,700,l),
(102,700,l)
);
}
);
width = 537;
},
{
anchors = (
{
name = b.uni0324_2;
position = "{25, -170}";
},
{
name = m.uni0308_1;
position = "{191, 700}";
},
{
name = m.uni0328;
position = "{202, 10}";
}
);
layerId = "A5CA3E3F-63D1-490B-B4EA-8ECA27DB3C92";
shapes = (
{
closed = 1;
nodes = (
(15,0,l),
(128,0,l),
(107,-48,l),
(102,-85,l),
(138,-85,ls),
(165,-85,o),
(197,-94,o),
(192,-123,cs),
(189,-150,o),
(154,-157,o),
(128,-157,cs),
(70,-157,l),
(61,-220,l),
(119,-220,ls),
(181,-220,o),
(241,-197,o),
(250,-131,cs),
(258,-78,o),
(232,-47,o),
(179,-42,c),
(197,0,l),
(326,0,l),
(335,66,l),
(97,66,l),
(134,323,l),
(339,323,l),
(349,389,l),
(144,389,l),
(179,634,l),
(417,634,l),
(426,700,l),
(115,700,l)
);
}
);
width = 400;
},
{
anchors = (
{
name = b.uni0324_2;
position = "{183, -160}";
},
{
name = m.uni0308_1;
position = "{336, 700}";
},
{
name = m.uni0328;
position = "{464, 10}";
}
);
layerId = "BD06E2F8-4593-4D8E-97D3-0F0A9BC781C2";
shapes = (
{
closed = 1;
nodes = (
(33,0,l),
(202,0,l),
(181,-48,l),
(176,-85,l),
(212,-85,ls),
(239,-85,o),
(271,-94,o),
(266,-123,cs),
(263,-150,o),
(228,-157,o),
(202,-157,cs),
(144,-157,l),
(135,-220,l),
(193,-220,ls),
(255,-220,o),
(315,-197,o),
(324,-131,cs),
(332,-78,o),
(306,-47,o),
(253,-42,c),
(271,0,l),
(462,0,l),
(472,68,l),
(118,68,l),
(155,326,l),
(458,326,l),
(467,394,l),
(164,394,l),
(198,632,l),
(552,632,l),
(562,700,l),
(133,700,l)
);
}
);
width = 546;
},
{
anchors = (
{
name = b.uni0324_2;
position = "{190, -160}";
},
{
name = m.uni0308_1;
position = "{343, 700}";
},
{
name = m.uni0328;
position = "{471, 10}";
}
);
layerId = "BED270ED-D05C-40FE-BC6A-D5F2DB2176C1";
shapes = (
{
closed = 1;
nodes = (
(55,0,l),
(214,0,l),
(186,-61,l),
(183,-83,l),
(202,-83,ls),
(251,-83,o),
(286,-101,o),
(281,-135,cs),
(276,-169,o),
(236,-186,o),
(187,-186,cs),
(140,-186,l),
(136,-220,l),
(183,-220,l),
(251,-221,o),
(306,-192,o),
(313,-138,cs),
(320,-90,o),
(287,-58,o),
(223,-54,c),
(247,0,l),
(457,0,l),
(462,35,l),
(95,35,l),
(139,345,l),
(452,345,l),
(457,381,l),
(144,381,l),
(185,665,l),
(552,665,l),
(557,700,l),
(155,700,l)
);
}
);
width = 554;
},
{
anchors = (
{
name = b.uni0324_2;
position = "{-22, -171}";
},
{
name = m.uni0308_1;
position = "{148, 700}";
},
{
name = m.uni0328;
position = "{119, 10}";
}
);
layerId = "624BE5E0-C167-4D60-8955-1CEBAB9BFDFE";
shapes = (
{
closed = 1;
nodes = (
(33,0,l),
(151,0,l),
(123,-61,l),
(120,-83,l),
(139,-83,ls),
(188,-83,o),
(223,-101,o),
(218,-135,cs),
(213,-169,o),
(173,-186,o),
(124,-186,cs),
(77,-186,l),
(73,-220,l),
(120,-220,l),
(188,-221,o),
(243,-192,o),
(250,-138,cs),
(257,-90,o),
(224,-58,o),
(160,-54,c),
(184,0,l),
(323,0,l),
(328,35,l),
(78,35,l),
(121,338,l),
(332,338,l),
(337,374,l),
(126,374,l),
(168,665,l),
(418,665,l),
(423,700,l),
(133,700,l)
);
}
);
width = 409;
}
);
unicode = 552;
},
{
glyphname = F;
layers = (
{
anchors = (
{
name = b.uni0324_2;
position = "{213, 0}";
},
{
name = m.uni0308_1;
position = "{313, 700}";
}
);
layerId = "EB61547D-F7E1-476C-A885-D7B2C933109F";
shapes = (
{
closed = 1;
nodes = (
(-20,0,l),
(137,0,l),
(178,285,l),
(367,285,l),
(387,429,l),
(198,429,l),
(216,556,l),
(423,556,l),
(444,700,l),
(80,700,l)
);
}
);
width = 407;
},
{
anchors = (
{
name = b.uni0324_2;
position = "{221, 0}";
},
{
name = m.uni0308_1;
position = "{321, 700}";
}
);
layerId = "8F32FC6E-BE02-4CA7-9492-B77DE78BF7A2";
shapes = (
{
closed = 1;
nodes = (
(-19,0,l),
(156,0,l),
(196,278,l),
(476,278,l),
(497,427,l),
(217,427,l),
(235,550,l),
(556,550,l),
(577,700,l),
(81,700,l)
);
}
);
width = 530;
},
{
anchors = (
{
name = b.uni0324_2;
position = "{163, 0}";
},
{
name = m.uni0308_1;
position = "{263, 700}";
}
);
layerId = "BECF1E07-6E55-4435-99B7-BB5ED0FBC597";
shapes = (
{
closed = 1;
nodes = (
(-6,0,l),
(118,0,l),
(161,299,l),
(356,299,l),
(372,412,l),
(176,412,l),
(202,587,l),
(421,587,l),
(437,700,l),
(94,700,l)
);
}
);
width = 402;
},
{
anchors = (
{
name = b.uni0324_2;
position = "{227, 0}";
},
{
name = m.uni0308_1;
position = "{327, 700}";
}
);
layerId = "C47A9308-35A1-4D64-9609-F04248EAE8DE";
shapes = (
{
closed = 1;
nodes = (
(1,0,l),
(136,0,l),
(179,297,l),
(468,297,l),
(485,414,l),
(195,414,l),
(220,583,l),
(554,583,l),
(571,700,l),
(101,700,l)
);
}
);
width = 536;
},
{
anchors = (
{
name = b.uni0324_2;
position = "{88, 0}";
},
{
name = m.uni0308_1;
position = "{188, 700}";
}
);
layerId = "A5CA3E3F-63D1-490B-B4EA-8ECA27DB3C92";
shapes = (
{
closed = 1;
nodes = (
(15,0,l),
(89,0,l),
(135,320,l),
(340,320,l),
(349,386,l),
(144,386,l),
(180,634,l),
(417,634,l),
(426,700,l),
(115,700,l)
);
}
);
width = 394;
},
{
anchors = (
{
name = b.uni0324_2;
position = "{235, 0}";
},
{
name = m.uni0308_1;
position = "{335, 700}";
}
);
layerId = "BD06E2F8-4593-4D8E-97D3-0F0A9BC781C2";
shapes = (
{
closed = 1;
nodes = (
(32,0,l),
(107,0,l),
(154,326,l),
(457,326,l),
(466,394,l),
(163,394,l),
(197,632,l),
(551,632,l),
(561,700,l),
(132,700,l)
);
}
);
width = 545;
},
{
anchors = (
{
name = b.uni0324_2;
position = "{243, 0}";
},
{
name = m.uni0308_1;
position = "{343, 700}";
}
);
layerId = "BED270ED-D05C-40FE-BC6A-D5F2DB2176C1";
shapes = (
{
closed = 1;
nodes = (
(55,0,l),
(90,0,l),
(139,345,l),
(451,345,l),
(456,381,l),
(144,381,l),
(185,665,l),
(552,665,l),
(557,700,l),
(155,700,l)
);
}
);
width = 556;
},
{
anchors = (
{
name = b.uni0324_2;
position = "{42, 0}";
},
{
name = m.uni0308_1;
position = "{142, 700}";
}
);
layerId = "624BE5E0-C167-4D60-8955-1CEBAB9BFDFE";
shapes = (
{
closed = 1;
nodes = (
(33,0,l),
(74,0,l),
(122,334,l),
(333,334,l),
(338,369,l),
(127,369,l),
(169,665,l),
(418,665,l),
(423,700,l),
(133,700,l)
);
}
);
width = 397;
}
);
unicode = 70;
},
{
glyphname = G;
layers = (
{
anchors = (
{
name = b.uni0324_2;
position = "{226, 0}";
},
{
name = m.uni0308_1;
position = "{326, 700}";
}
);
layerId = "EB61547D-F7E1-476C-A885-D7B2C933109F";
shapes = (
{
closed = 1;
nodes = (
(237.857,-8,o),
(290.429,10,o),
(334.428,45,cs),
(377.428,80,o),
(403.143,127,o),
(411.428,185,cs),
(439.428,381,l),
(237.428,381,l),
(220.142,260,l),
(265.142,260,l),
(256.571,200,ls),
(250.714,159,o),
(236.285,135,o),
(203.285,135,c),
(171.428,136,o),
(159.714,159,o),
(166.714,208,cs),
(206.428,486,ls),
(214.285,541,o),
(227.57,564,o),
(264.57,564,cs),
(288.57,564,o),
(305.713,544,o),
(300.999,511,cs),
(297.142,484,l),
(454.142,484,l),
(457.999,511,ls),
(469.856,594,o),
(445.713,656,o),
(390.999,686,cs),
(363.142,701,o),
(329.142,708,o),
(290.142,708,cs),
(226.142,708,o),
(172.713,691,o),
(129.856,657,cs),
(86.999,623,o),
(61.285,576,o),
(52.57,515,cs),
(5.285,184,ls),
(-3.715,121,o),
(7.571,74,o),
(37.857,41,cs),
(68.143,8,o),
(113.857,-8,o),
(175.857,-8,cs)
);
}
);
width = 448;
},
{
anchors = (
{
name = b.uni0324_2;
position = "{242, 0}";
},
{
name = m.uni0308_1;
position = "{342, 700}";
}
);
layerId = "8F32FC6E-BE02-4CA7-9492-B77DE78BF7A2";
shapes = (
{
closed = 1;
nodes = (
(327,-8,o),
(397,15,o),
(447,61,cs),
(496,107,o),
(527,175,o),
(540,266,cs),
(558,391,l),
(294,391,l),
(274,250,l),
(370,250,l),
(368,237,ls),
(359,177,o),
(332,147,o),
(269,147,cs),
(197,147,o),
(176,183,o),
(191,286,cs),
(208,409,ls),
(224,517,o),
(255,557,o),
(320,557,cs),
(376,557,o),
(404,516,o),
(397,467,cs),
(395,458,l),
(568,458,l),
(570,467,ls),
(584,570,o),
(551,644,o),
(478,681,cs),
(442,699,o),
(396,708,o),
(343,708,cs),
(250,708,o),
(180,684,o),
(130,635,cs),
(80,586,o),
(48,514,o),
(35,419,cs),
(15,280,ls),
(1,185,o),
(12,113,o),
(48,65,cs),
(84,16,o),
(147,-8,o),
(238,-8,cs)
);
}
);
width = 561;
},
{
anchors = (
{
name = b.uni0324_2;
position = "{183, 0}";
},
{
name = m.uni0308_1;
position = "{283, 700}";
}
);
layerId = "BECF1E07-6E55-4435-99B7-BB5ED0FBC597";
shapes = (
{
closed = 1;
nodes = (
(244.857,-8,o),
(295.429,10,o),
(337.571,46,cs),
(378.571,81,o),
(403.571,130,o),
(412.428,192,cs),
(438.142,372,l),
(241.142,372,l),
(227.285,275,l),
(300.285,275,l),
(289.571,200,ls),
(280.571,137,o),
(252.857,104,o),
(203.857,104,c),
(153.,105,o),
(133.714,138,o),
(143.428,206,cs),
(183.571,487,ls),
(194.142,561,o),
(220.999,595,o),
(273.999,595,cs),
(316.999,595,o),
(341.57,564,o),
(334.142,512,cs),
(331.142,491,l),
(455.142,491,l),
(458.142,512,ls),
(469.999,595,o),
(445.713,656,o),
(392.999,686,cs),
(365.142,701,o),
(332.142,708,o),
(293.142,708,cs),
(231.142,708,o),
(179.713,691,o),
(137.713,656,cs),
(96.713,621,o),
(71.57,571,o),
(62.428,507,cs),
(17.428,192,ls),
(8.143,127,o),
(18.,77,o),
(48.143,43,cs),
(78.286,9,o),
(122.857,-8,o),
(183.857,-8,cs)
);
}
);
width = 459;
},
{
anchors = (
{
name = b.uni0324_2;
position = "{248, 0}";
},
{
name = m.uni0308_1;
position = "{348, 700}";
}
);
layerId = "C47A9308-35A1-4D64-9609-F04248EAE8DE";
shapes = (
{
closed = 1;
nodes = (
(332.543,-8,o),
(399.857,15,o),
(449.429,60,cs),
(498.,105,o),
(528.886,173,o),
(542.028,263,cs),
(559.943,384,l),
(303.943,384,l),
(285.6,273,l),
(410.6,273,l),
(407.714,240,l),
(396.743,153,o),
(355.4,112,o),
(274.4,112,cs),
(184.4,112,o),
(151.143,160,o),
(166.714,275,cs),
(185.943,419,l),
(201.857,540,o),
(246.714,590,o),
(331.714,590,cs),
(406.714,590,o),
(445.085,544,o),
(437.314,478,c),
(435.914,471,l),
(569.914,471,l),
(571.314,478,l),
(584.742,573,o),
(552.8,644,o),
(482.914,681,cs),
(446.942,699,o),
(403.457,708,o),
(351.457,708,cs),
(265.457,708,o),
(197.142,685,o),
(147.4,637,cs),
(97.714,590,o),
(65.714,520,o),
(52.343,426,cs),
(31.6,273,l),
(18.228,179,o),
(29.228,109,o),
(65.6,63,cs),
(101.857,15,o),
(162.543,-8,o),
(247.543,-8,cs)
);
}
);
width = 580;
},
{
anchors = (
{
name = b.uni0324_2;
position = "{119, 0}";
},
{
name = m.uni0308_1;
position = "{219, 700}";
}
);
layerId = "A5CA3E3F-63D1-490B-B4EA-8ECA27DB3C92";
shapes = (
{
closed = 1;
nodes = (
(254.857,-8,o),
(303.429,10,o),
(341.714,47,cs),
(379.857,83,o),
(404.285,135,o),
(414.,203,cs),
(436.142,358,l),
(247.142,358,l),
(238.428,297,l),
(353.428,297,l),
(339.571,200,ls),
(326.,105,o),
(277.286,58,o),
(205.286,58,cs),
(126.428,59,o),
(95.286,107,o),
(109.,203,cs),
(149.713,488,ls),
(164.427,591,o),
(211.57,641,o),
(288.57,641,cs),
(359.57,641,o),
(395.856,594,o),
(384.428,514,cs),
(382.713,502,l),
(456.713,502,l),
(458.428,514,ls),
(470.285,597,o),
(446.713,656,o),
(394.999,686,cs),
(369.142,701,o),
(337.142,708,o),
(298.142,708,cs),
(239.142,708,o),
(189.57,690,o),
(150.427,654,cs),
(111.142,617,o),
(86.57,564,o),
(76.713,495,cs),
(35.142,204,ls),
(25.285,135,o),
(34.714,82,o),
(64.571,46,cs),
(93.429,10,o),
(136.857,-8,o),
(195.857,-8,cs)
);
}
);
width = 475;
},
{
anchors = (
{
name = b.uni0324_2;
position = "{257, 0}";
},
{
name = m.uni0308_1;
position = "{357, 700}";
}
);
layerId = "BD06E2F8-4593-4D8E-97D3-0F0A9BC781C2";
shapes = (
{
closed = 1;
nodes = (
(339.857,-8,o),
(403.,14,o),
(452.428,59,cs),
(500.714,103,o),
(531.143,169,o),
(543.857,258,cs),
(560.285,373,l),
(316.285,373,l),
(306.857,307,l),
(475.857,307,l),
(467.,245,ls),
(448.857,118,o),
(383.571,60,o),
(274.571,60,cs),
(158.571,60,o),
(110.,126,o),
(128.857,258,cs),
(153.999,434,ls),
(174.142,575,o),
(241.427,640,o),
(356.427,640,cs),
(459.427,640,o),
(513.57,585,o),
(500.571,494,cs),
(499.999,490,l),
(574.999,490,l),
(575.571,494,ls),
(587.428,577,o),
(555.999,644,o),
(489.284,681,cs),
(454.856,699,o),
(414.142,708,o),
(365.142,708,cs),
(288.142,708,o),
(223.999,686,o),
(174.57,641,cs),
(125.142,596,o),
(93.428,528,o),
(80.428,437,cs),
(55.428,262,ls),
(42.428,171,o),
(54.714,103,o),
(91.428,59,cs),
(128.,14,o),
(185.857,-8,o),
(262.857,-8,cs)
);
}
);
width = 608;
},
{
anchors = (
{
name = b.uni0324_2;
position = "{265, 0}";
},
{
name = m.uni0308_1;
position = "{365, 700}";
}
);
layerId = "BED270ED-D05C-40FE-BC6A-D5F2DB2176C1";
shapes = (
{
closed = 1;
nodes = (
(347.857,-8,o),
(408.,14,o),
(456.286,58,cs),
(504.428,101,o),
(534.857,167,o),
(547.428,255,cs),
(563.285,366,l),
(327.285,366,l),
(322.142,330,l),
(520.142,330,l),
(508.428,248,ls),
(486.571,95,o),
(406.571,25,o),
(278.571,25,cs),
(145.571,25,o),
(85.714,103,o),
(106.285,247,cs),
(134.428,444,ls),
(156.57,599,o),
(238.142,673,o),
(373.142,673,cs),
(494.142,673,o),
(559.427,612,o),
(544.142,505,cs),
(543.856,503,l),
(579.856,503,l),
(580.142,505,ls),
(590.856,580,o),
(560.999,644,o),
(495.284,681,cs),
(462.856,699,o),
(423.142,708,o),
(376.142,708,cs),
(305.142,708,o),
(244.142,687,o),
(194.999,644,cs),
(144.856,601,o),
(113.285,534,o),
(100.428,444,cs),
(73.428,255,ls),
(60.571,165,o),
(73.143,99,o),
(111.,56,cs),
(147.857,13,o),
(202.857,-8,o),
(274.857,-8,cs)
);
}
);
width = 631;
},
{
anchors = (
{
name = b.uni0324_2;
position = "{81, 0}";
},
{
name = m.uni0308_1;
position = "{181, 700}";
}
);
layerId = "624BE5E0-C167-4D60-8955-1CEBAB9BFDFE";
shapes = (
{
closed = 1;
nodes = (
(265.857,-8,o),
(313.429,10,o),
(349.714,47,cs),
(386.,84,o),
(409.714,138,o),
(420.,210,cs),
(439.857,349,l),
(255.857,349,l),
(250.571,312,l),
(393.571,312,l),
(377.571,200,ls),
(361.,84,o),
(298.857,27,o),
(210.857,27,cs),
(114.,28,o),
(74.286,86,o),
(90.714,201,cs),
(131.856,489,ls),
(149.142,610,o),
(209.999,672,o),
(302.999,672,cs),
(391.999,672,o),
(436.713,614,o),
(422.57,515,cs),
(421.713,509,l),
(462.713,509,l),
(463.57,515,ls),
(475.427,598,o),
(452.713,656,o),
(401.999,686,cs),
(377.142,701,o),
(345.142,708,o),
(306.142,708,cs),
(249.142,708,o),
(201.427,689,o),
(164.142,652,cs),
(125.856,615,o),
(101.999,560,o),
(91.571,487,cs),
(52.285,212,ls),
(42.,140,o),
(51.143,85,o),
(79.857,48,cs),
(108.571,11,o),
(151.857,-8,o),
(208.857,-8,cs)
);
}
);
width = 496;
}
);
unicode = 71;
},
{
glyphname = H;
layers = (
{
anchors = (
{
name = b.uni0324_2;
position = "{223, 0}";
},
{
name = m.uni0308_1;
position = "{323, 700}";
}
);
layerId = "EB61547D-F7E1-476C-A885-D7B2C933109F";
shapes = (
{
closed = 1;
nodes = (
(-21,0,l),
(138,0,l),
(178.571,284,l),
(253.571,284,l),
(213,0,l),
(372,0,l),
(471.999,700,l),
(312.999,700,l),
(273.999,427,l),
(198.999,427,l),
(237.999,700,l),
(78.999,700,l)
);
}
);
width = 435;
},
{
anchors = (
{
name = b.uni0324_2;
position = "{247, 0}";
},
{
name = m.uni0308_1;
position = "{347, 700}";
}
);
layerId = "8F32FC6E-BE02-4CA7-9492-B77DE78BF7A2";
shapes = (
{
closed = 1;
nodes = (
(-20,0,l),
(155,0,l),
(195,278,l),
(365,278,l),
(325,0,l),
(499,0,l),
(599,700,l),
(425,700,l),
(386,427,l),
(216,427,l),
(255,700,l),
(80,700,l)
);
}
);
width = 563;
},
{
anchors = (
{
name = b.uni0324_2;
position = "{174, 0}";
},
{
name = m.uni0308_1;
position = "{274, 700}";
}
);
layerId = "BECF1E07-6E55-4435-99B7-BB5ED0FBC597";
shapes = (
{
closed = 1;
nodes = (
(-7,0,l),
(118,0,l),
(160.857,300,l),
(291.857,300,l),
(249,0,l),
(374,0,l),
(473.999,700,l),
(348.999,700,l),
(307.856,412,l),
(176.856,412,l),
(217.999,700,l),
(92.999,700,l)
);
}
);
width = 451;
},
{
anchors = (
{
name = b.uni0324_2;
position = "{253, 0}";
},
{
name = m.uni0308_1;
position = "{353, 700}";
}
);
layerId = "C47A9308-35A1-4D64-9609-F04248EAE8DE";
shapes = (
{
closed = 1;
nodes = (
(1,0,l),
(136,0,l),
(176.971,297,l),
(410.971,297,l),
(370,0,l),
(504,0,l),
(603.999,700,l),
(469.999,700,l),
(429.657,414,l),
(195.657,414,l),
(235.999,700,l),
(100.999,700,l)
);
}
);
width = 588;
},
{
anchors = (
{
name = b.uni0324_2;
position = "{100, 0}";
},
{
name = m.uni0308_1;
position = "{200, 700}";
}
);
layerId = "A5CA3E3F-63D1-490B-B4EA-8ECA27DB3C92";
shapes = (
{
closed = 1;
nodes = (
(14,0,l),
(88,0,l),
(134.285,324,l),
(349.285,324,l),
(303,0,l),
(377,0,l),
(476.999,700,l),
(402.999,700,l),
(358.571,389,l),
(143.571,389,l),
(187.999,700,l),
(113.999,700,l)
);
}
);
width = 475;
},
{
anchors = (
{
name = b.uni0324_2;
position = "{261, 0}";
},
{
name = m.uni0308_1;
position = "{361, 700}";
}
);
layerId = "BD06E2F8-4593-4D8E-97D3-0F0A9BC781C2";
shapes = (
{
closed = 1;
nodes = (
(31,0,l),
(106,0,l),
(152.571,326,l),
(482.571,326,l),
(436,0,l),
(511,0,l),
(610.999,700,l),
(535.999,700,l),
(492.285,394,l),
(162.285,394,l),
(205.999,700,l),
(130.999,700,l)
);
}
);
width = 626;
},
{
anchors = (
{
name = b.uni0324_2;
position = "{270, 0}";
},
{
name = m.uni0308_1;
position = "{370, 700}";
}
);
layerId = "BED270ED-D05C-40FE-BC6A-D5F2DB2176C1";
shapes = (
{
closed = 1;
nodes = (
(55,0,l),
(90,0,l),
(139.285,345,l),
(533.285,345,l),
(484,0,l),
(519,0,l),
(618.999,700,l),
(583.999,700,l),
(538.428,381,l),
(144.428,381,l),
(189.999,700,l),
(154.999,700,l)
);
}
);
width = 658;
},
{
anchors = (
{
name = b.uni0324_2;
position = "{56, 0}";
},
{
name = m.uni0308_1;
position = "{156, 700}";
}
);
layerId = "624BE5E0-C167-4D60-8955-1CEBAB9BFDFE";
shapes = (
{
closed = 1;
nodes = (
(33,0,l),
(73,0,l),
(121.571,340,l),
(392.571,340,l),
(344,0,l),
(384,0,l),
(483.999,700,l),
(443.999,700,l),
(397.428,374,l),
(126.428,374,l),
(172.999,700,l),
(132.999,700,l)
);
}
);
width = 501;
}
);
unicode = 72;
},
{
glyphname = Hbar;
layers = (
{
layerId = "EB61547D-F7E1-476C-A885-D7B2C933109F";
shapes = (
{
closed = 1;
nodes = (
(14,521,l),
(480,521,l),
(501,666,l),
(35,666,l)
);
},
{
closed = 1;
nodes = (
(-23,0,l),
(137,0,l),
(178,287,l),
(255,287,l),
(214,0,l),
(374,0,l),
(475,707,l),
(315,707,l),
(276,431,l),
(199,431,l),
(238,707,l),
(78,707,l)
);
}
);
width = 435;
},
{
layerId = "8F32FC6E-BE02-4CA7-9492-B77DE78BF7A2";
shapes = (
{
closed = 1;
nodes = (
(0,524,l),
(629,524,l),
(651,676,l),
(22,676,l)
);
},
{
closed = 1;
nodes = (
(-20,0,l),
(155,0,l),
(195,280,l),
(365,280,l),
(325,0,l),
(499,0,l),
(600,707,l),
(426,707,l),
(386,430,l),
(216,430,l),
(256,707,l),
(81,707,l)
);
}
);
width = 563;
},
{
layerId = "BECF1E07-6E55-4435-99B7-BB5ED0FBC597";
shapes = (
{
closed = 1;
nodes = (
(30,518,l),
(483,518,l),
(499,631,l),
(47,631,l)
);
},
{
closed = 1;
nodes = (
(-9,0,l),
(117,0,l),
(160,303,l),
(293,303,l),
(250,0,l),
(376,0,l),
(477,707,l),
(351,707,l),
(310,416,l),
(177,416,l),
(218,707,l),
(92,707,l)
);
}
);
width = 451;
},
{
layerId = "C47A9308-35A1-4D64-9609-F04248EAE8DE";
shapes = (
{
closed = 1;
nodes = (
(24,515,l),
(627,515,l),
(643,633,l),
(41,633,l)
);
},
{
closed = 1;
nodes = (
(0,0,l),
(135,0,l),
(178,299,l),
(412,299,l),
(369,0,l),
(504,0,l),
(605,707,l),
(470,707,l),
(428,416,l),
(194,416,l),
(236,707,l),
(101,707,l)
);
}
);
width = 588;
},
{
layerId = "A5CA3E3F-63D1-490B-B4EA-8ECA27DB3C92";
shapes = (
{
closed = 1;
nodes = (
(55,513,l),
(487,513,l),
(497,579,l),
(65,579,l)
);
},
{
closed = 1;
nodes = (
(12,0,l),
(87,0,l),
(134,327,l),
(351,327,l),
(304,0,l),
(379,0,l),
(480,707,l),
(405,707,l),
(360,393,l),
(143,393,l),
(188,707,l),
(113,707,l)
);
}
);
width = 475;
},
{
layerId = "BD06E2F8-4593-4D8E-97D3-0F0A9BC781C2";
shapes = (
{
closed = 1;
nodes = (
(61,502,l),
(623,502,l),
(632,569,l),
(70,569,l)
);
},
{
closed = 1;
nodes = (
(31,0,l),
(106,0,l),
(153,328,l),
(483,328,l),
(436,0,l),
(511,0,l),
(612,707,l),
(537,707,l),
(492,395,l),
(162,395,l),
(207,707,l),
(132,707,l)
);
}
);
width = 626;
},
{
layerId = "BED270ED-D05C-40FE-BC6A-D5F2DB2176C1";
shapes = (
{
closed = 1;
nodes = (
(88,493,l),
(623,493,l),
(628,526,l),
(93,526,l)
);
},
{
closed = 1;
nodes = (
(55,0,l),
(90,0,l),
(140,347,l),
(534,347,l),
(484,0,l),
(519,0,l),
(620,707,l),
(585,707,l),
(538,381,l),
(144,381,l),
(191,707,l),
(156,707,l)
);
}
);
width = 658;
},
{
layerId = "624BE5E0-C167-4D60-8955-1CEBAB9BFDFE";
shapes = (
{
closed = 1;
nodes = (
(77,510,l),
(495,510,l),
(500,544,l),
(82,544,l)
);
},
{
closed = 1;
nodes = (
(31,0,l),
(72,0,l),
(121,343,l),
(394,343,l),
(345,0,l),
(386,0,l),
(487,707,l),
(446,707,l),
(399,378,l),
(126,378,l),
(173,707,l),
(132,707,l)
);
}
);
width = 501;
}
);
unicode = 294;
},
{
glyphname = I;
layers = (
{
anchors = (
{
name = b.uni0324_2;
position = "{77, 0}";
},
{
name = m.uni0308_1;
position = "{177, 700}";
},
{
name = m.uni0328;
position = "{141, 10}";
}
);
layerId = "EB61547D-F7E1-476C-A885-D7B2C933109F";
shapes = (
{
closed = 1;
nodes = (
(-15,0,l),
(145,0,l),
(244.999,700,l),
(84.999,700,l)
);
}
);
width = 214;
},
{
anchors = (
{
name = b.uni0324_2;
position = "{75, 0}";
},
{
name = m.uni0308_1;
position = "{175, 700}";
},
{
name = m.uni0328;
position = "{128, 10}";
}
);
layerId = "8F32FC6E-BE02-4CA7-9492-B77DE78BF7A2";
shapes = (
{
closed = 1;
nodes = (
(-12,0,l),
(161,0,l),
(261,700,l),
(88,700,l)
);
}
);
width = 234;
},
{
anchors = (
{
name = b.uni0324_2;
position = "{63, 0}";
},
{
name = m.uni0308_1;
position = "{163, 700}";
},
{
name = m.uni0328;
position = "{126, 10}";
}
);
layerId = "BECF1E07-6E55-4435-99B7-BB5ED0FBC597";
shapes = (
{
closed = 1;
nodes = (
(0,0,l),
(125,0,l),
(224.999,700,l),
(99.999,700,l)
);
}
);
width = 209;
},
{
anchors = (
{
name = b.uni0324_2;
position = "{77, 0}";
},
{
name = m.uni0308_1;
position = "{177, 700}";
},
{
name = m.uni0328;
position = "{130, 10}";
}
);
layerId = "C47A9308-35A1-4D64-9609-F04248EAE8DE";
shapes = (
{
closed = 1;
nodes = (
(10,0,l),
(144,0,l),
(243.999,700,l),
(109.999,700,l)
);
}
);
width = 239;
},
{
anchors = (
{
name = b.uni0324_2;
position = "{42, 0}";
},
{
name = m.uni0308_1;
position = "{142, 700}";
},
{
name = m.uni0328;
position = "{104, 10}";
}
);
layerId = "A5CA3E3F-63D1-490B-B4EA-8ECA27DB3C92";
shapes = (
{
closed = 1;
nodes = (
(23,0,l),
(96,0,l),
(195.999,700,l),
(122.999,700,l)
);
}
);
width = 202;
},
{
anchors = (
{
name = b.uni0324_2;
position = "{81, 0}";
},
{
name = m.uni0308_1;
position = "{181, 700}";
},
{
name = m.uni0328;
position = "{134, 10}";
}
);
layerId = "BD06E2F8-4593-4D8E-97D3-0F0A9BC781C2";
shapes = (
{
closed = 1;
nodes = (
(44,0,l),
(119,0,l),
(218.999,700,l),
(143.999,700,l)
);
}
);
width = 246;
},
{
anchors = (
{
name = b.uni0324_2;
position = "{85, 0}";
},
{
name = m.uni0308_1;
position = "{185, 700}";
},
{
name = m.uni0328;
position = "{138, 10}";
}
);
layerId = "BED270ED-D05C-40FE-BC6A-D5F2DB2176C1";
shapes = (
{
closed = 1;
nodes = (
(68,0,l),
(104,0,l),
(203.999,700,l),
(167.999,700,l)
);
}
);
width = 254;
},
{
anchors = (
{
name = b.uni0324_2;
position = "{30, 0}";
},
{
name = m.uni0308_1;
position = "{130, 700}";
},
{
name = m.uni0328;
position = "{91, 10}";
}
);
layerId = "624BE5E0-C167-4D60-8955-1CEBAB9BFDFE";
shapes = (
{
closed = 1;
nodes = (
(40,0,l),
(78,0,l),
(177.999,700,l),
(139.999,700,l)
);
}
);
width = 201;
}
);
unicode = 73;
},
{
glyphname = J;
layers = (
{
anchors = (
{
name = b.uni0324_2;
position = "{217, 0}";
},
{
name = m.uni0308_1;
position = "{350, 700}";
}
);
layerId = "EB61547D-F7E1-476C-A885-D7B2C933109F";
shapes = (
{
closed = 1;
nodes = (
(-30,0,l),
(81,0,ls),
(225,0,o),
(300.857,62,o),
(318.714,187,cs),
(391.999,700,l),
(231.999,700,l),
(161.285,205,ls),
(155.571,165,o),
(132.714,145,o),
(92.714,145,cs),
(-9.286,145,l)
);
},
{
closed = 1;
nodes = (
(391.999,700,l),
(172.999,700,l),
(152.285,555,l),
(371.285,555,l)
);
}
);
width = 357;
},
{
anchors = (
{
name = b.uni0324_2;
position = "{230, 0}";
},
{
name = m.uni0308_1;
position = "{365, 700}";
}
);
layerId = "8F32FC6E-BE02-4CA7-9492-B77DE78BF7A2";
shapes = (
{
closed = 1;
nodes = (
(-24,0,l),
(157,0,ls),
(272,0,o),
(349,64,o),
(366,179,cs),
(440,700,l),
(264,700,l),
(194,210,ls),
(187,163,o),
(174,151,o),
(134,151,cs),
(-2,151,l)
);
},
{
closed = 1;
nodes = (
(440,700,l),
(180,700,l),
(158,549,l),
(418,549,l)
);
}
);
width = 415;
},
{
anchors = (
{
name = b.uni0324_2;
position = "{161, 0}";
},
{
name = m.uni0308_1;
position = "{293, 700}";
}
);
layerId = "BECF1E07-6E55-4435-99B7-BB5ED0FBC597";
shapes = (
{
closed = 1;
nodes = (
(-23,0,l),
(90,0,ls),
(213,0,o),
(281.,56,o),
(297.,168,cs),
(372.999,700,l),
(246.999,700,l),
(173.,182,ls),
(166.571,137,o),
(141.286,114,o),
(98.286,114,cs),
(-6.714,114,l)
);
},
{
closed = 1;
nodes = (
(372.999,700,l),
(169.999,700,l),
(153.713,586,l),
(356.713,586,l)
);
}
);
width = 354;
},
{
anchors = (
{
name = b.uni0324_2;
position = "{234, 0}";
},
{
name = m.uni0308_1;
position = "{369, 700}";
}
);
layerId = "C47A9308-35A1-4D64-9609-F04248EAE8DE";
shapes = (
{
closed = 1;
nodes = (
(-20,0,l),
(176,0,ls),
(279,0,o),
(346.314,58,o),
(362.257,162,c),
(436.999,700,l),
(301.999,700,l),
(230.514,184,ls),
(223.714,135,o),
(207.743,118,o),
(164.743,118,cs),
(-0.257,118,l)
);
},
{
closed = 1;
nodes = (
(436.999,700,l),
(196.999,700,l),
(177.257,582,l),
(417.257,582,l)
);
}
);
width = 433;
},
{
anchors = (
{
name = b.uni0324_2;
position = "{77, 0}";
},
{
name = m.uni0308_1;
position = "{207, 700}";
}
);
layerId = "A5CA3E3F-63D1-490B-B4EA-8ECA27DB3C92";
shapes = (
{
closed = 1;
nodes = (
(-12,0,l),
(103,0,ls),
(195,0,o),
(251.857,48,o),
(265.,140,cs),
(344.999,700,l),
(269.999,700,l),
(191.143,148,ls),
(183.571,95,o),
(153.571,67,o),
(106.571,67,cs),
(-2.429,67,l)
);
},
{
closed = 1;
nodes = (
(344.999,700,l),
(164.999,700,l),
(155.427,633,l),
(335.427,633,l)
);
}
);
width = 349;
},
{
anchors = (
{
name = b.uni0324_2;
position = "{241, 0}";
},
{
name = m.uni0308_1;
position = "{376, 700}";
}
);
layerId = "BD06E2F8-4593-4D8E-97D3-0F0A9BC781C2";
shapes = (
{
closed = 1;
nodes = (
(-13,0,l),
(206,0,ls),
(290,0,o),
(340.857,48,o),
(353.428,136,cs),
(433.999,700,l),
(359.999,700,l),
(280.714,145,ls),
(273.143,92,o),
(251.714,68,o),
(204.714,68,cs),
(-3.286,68,l)
);
},
{
closed = 1;
nodes = (
(433.999,700,l),
(223.999,700,l),
(214.285,632,l),
(424.285,632,l)
);
}
);
width = 460;
},
{
anchors = (
{
name = b.uni0324_2;
position = "{247, 0}";
},
{
name = m.uni0308_1;
position = "{382, 700}";
}
);
layerId = "BED270ED-D05C-40FE-BC6A-D5F2DB2176C1";
shapes = (
{
closed = 1;
nodes = (
(-7,0,l),
(227,0,ls),
(299,0,o),
(339.,42,o),
(350.,119,cs),
(432.999,700,l),
(399.999,700,l),
(317.,119,ls),
(309.,63,o),
(284.,35,o),
(235.,35,cs),
(-2.,35,l)
);
},
{
closed = 1;
nodes = (
(432.999,700,l),
(242.999,700,l),
(237.999,665,l),
(427.999,665,l)
);
}
);
width = 481;
},
{
anchors = (
{
name = b.uni0324_2;
position = "{24, 0}";
},
{
name = m.uni0308_1;
position = "{153, 700}";
}
);
layerId = "624BE5E0-C167-4D60-8955-1CEBAB9BFDFE";
shapes = (
{
closed = 1;
nodes = (
(-2,0,l),
(115,0,ls),
(186,0,o),
(235.,42,o),
(246.285,121,cs),
(328.999,700,l),
(287.999,700,l),
(205.857,125,ls),
(197.428,66,o),
(164.143,36,o),
(115.143,36,cs),
(3.143,36,l)
);
},
{
closed = 1;
nodes = (
(328.999,700,l),
(164.999,700,l),
(159.856,664,l),
(323.856,664,l)
);
}
);
width = 352;
}
);
leftKerningGroup = J;
unicode = 74;
},
{
glyphname = K;
layers = (
{
anchors = (
{
name = b.uni0324_2;
position = "{235, 0}";
},
{
name = m.uni0308_1;
position = "{335, 700}";
}
);
layerId = "EB61547D-F7E1-476C-A885-D7B2C933109F";
shapes = (
{
closed = 1;
nodes = (
(414,0,l),
(316.285,429,l),
(199.428,241,l),
(245,0,l)
);
},
{
closed = 1;
nodes = (
(-23,0,l),
(135,0,l),
(234.999,700,l),
(76.999,700,l)
);
},
{
closed = 1;
nodes = (
(185.999,399,l),
(147.143,127,l),
(491.999,700,l),
(334.999,700,l)
);
}
);
width = 446;
},
{
anchors = (
{
name = b.uni0324_2;
position = "{247, 0}";
},
{
name = m.uni0308_1;
position = "{347, 700}";
}
);
layerId = "8F32FC6E-BE02-4CA7-9492-B77DE78BF7A2";
shapes = (
{
closed = 1;
nodes = (
(562,0,l),
(380,432,l),
(247,289,l),
(362,0,l)
);
},
{
closed = 1;
nodes = (
(-20,0,l),
(155,0,l),
(255,700,l),
(80,700,l)
);
},
{
closed = 1;
nodes = (
(205,418,l),
(172,188,l),
(654,700,l),
(445,700,l)
);
}
);
width = 586;
},
{
anchors = (
{
name = b.uni0324_2;
position = "{191, 0}";
},
{
name = m.uni0308_1;
position = "{291, 700}";
}
);
layerId = "BECF1E07-6E55-4435-99B7-BB5ED0FBC597";
shapes = (
{
closed = 1;
nodes = (
(415,0,l),
(300.571,431.,l),
(208.142,288.,l),
(281,0,l)
);
},
{
closed = 1;
nodes = (
(-9,0,l),
(116,0,l),
(215.999,700.,l),
(90.999,700.,l)
);
},
{
closed = 1;
nodes = (
(160.285,359.,l),
(129.857,146.,l),
(491.999,700.,l),
(365.999,700.,l)
);
}
);
width = 452;
},
{
anchors = (
{
name = b.uni0324_2;
position = "{253, 0}";
},
{
name = m.uni0308_1;
position = "{353, 700}";
}
);
layerId = "C47A9308-35A1-4D64-9609-F04248EAE8DE";
shapes = (
{
closed = 1;
nodes = (
(559,0,l),
(368.971,437,l),
(263.743,328,l),
(404,0,l)
);
},
{
closed = 1;
nodes = (
(1,0,l),
(136,0,l),
(235.999,700,l),
(100.999,700,l)
);
},
{
closed = 1;
nodes = (
(182.8,364,l),
(152.628,186,l),
(640.999,700,l),
(479.999,700,l)
);
}
);
width = 590;
},
{
anchors = (
{
name = b.uni0324_2;
position = "{124, 0}";
},
{
name = m.uni0308_1;
position = "{224, 700}";
}
);
layerId = "A5CA3E3F-63D1-490B-B4EA-8ECA27DB3C92";
shapes = (
{
closed = 1;
nodes = (
(418,0,l),
(277.999,434,l),
(222.142,358,l),
(336,0,l)
);
},
{
closed = 1;
nodes = (
(13,0,l),
(88,0,l),
(187.999,700,l),
(112.999,700,l)
);
},
{
closed = 1;
nodes = (
(122.714,299,l),
(105.,175,l),
(492.999,700,l),
(413.999,700,l)
);
}
);
width = 460;
},
{
anchors = (
{
name = b.uni0324_2;
position = "{262, 0}";
},
{
name = m.uni0308_1;
position = "{362, 700}";
}
);
layerId = "BD06E2F8-4593-4D8E-97D3-0F0A9BC781C2";
shapes = (
{
closed = 1;
nodes = (
(554,0,l),
(354.571,445,l),
(298.285,387,l),
(467,0,l)
);
},
{
closed = 1;
nodes = (
(32,0,l),
(107,0,l),
(206.999,700,l),
(131.999,700,l)
);
},
{
closed = 1;
nodes = (
(137.428,283,l),
(123.143,183,l),
(621.999,700,l),
(532.999,700,l)
);
}
);
width = 596;
},
{
anchors = (
{
name = b.uni0324_2;
position = "{270, 0}";
},
{
name = m.uni0308_1;
position = "{370, 700}";
}
);
layerId = "BED270ED-D05C-40FE-BC6A-D5F2DB2176C1";
shapes = (
{
closed = 1;
nodes = (
(553,0,l),
(346.285,450,l),
(320.856,426,l),
(511,0,l)
);
},
{
closed = 1;
nodes = (
(55,0,l),
(90,0,l),
(189.999,700,l),
(154.999,700,l)
);
},
{
closed = 1;
nodes = (
(112.714,229,l),
(105.857,181,l),
(610.999,700,l),
(569.999,700,l)
);
}
);
width = 604;
},
{
anchors = (
{
name = b.uni0324_2;
position = "{83, 0}";
},
{
name = m.uni0308_1;
position = "{183, 700}";
}
);
layerId = "624BE5E0-C167-4D60-8955-1CEBAB9BFDFE";
shapes = (
{
closed = 1;
nodes = (
(423,0,l),
(266.285,436,l),
(234.856,405,l),
(376,0,l)
);
},
{
closed = 1;
nodes = (
(31,0,l),
(73,0,l),
(172.999,700,l),
(130.999,700,l)
);
},
{
closed = 1;
nodes = (
(101.,259,l),
(91.714,194,l),
(496.999,700,l),
(448.999,700,l)
);
}
);
width = 473;
}
);
unicode = 75;
},
{
glyphname = L;
layers = (
{
anchors = (
{
name = b.uni0324_2;
position = "{177, 0}";
},
{
name = m.uni0308_1;
position = "{183, 700}";
},
{
name = t.uni031B_2;
position = "{307, 700}";
}
);
layerId = "EB61547D-F7E1-476C-A885-D7B2C933109F";
shapes = (
{
closed = 1;
nodes = (
(-20,0,l),
(295,0,l),
(315.571,144,l),
(160.571,144,l),
(239.999,700,l),
(79.999,700,l)
);
}
);
width = 340;
},
{
anchors = (
{
name = b.uni0324_2;
position = "{203, 0}";
},
{
name = m.uni0308_1;
position = "{169, 700}";
},
{
name = t.uni031B_2;
position = "{361, 700}";
}
);
layerId = "8F32FC6E-BE02-4CA7-9492-B77DE78BF7A2";
shapes = (
{
closed = 1;
nodes = (
(-16,0,l),
(440,0,l),
(461,150,l),
(180,150,l),
(259,700,l),
(84,700,l)
);
}
);
width = 481;
},
{
anchors = (
{
name = b.uni0324_2;
position = "{131, 0}";
},
{
name = m.uni0308_1;
position = "{171, 700}";
},
{
name = t.uni031B_2;
position = "{241, 700}";
}
);
layerId = "BECF1E07-6E55-4435-99B7-BB5ED0FBC597";
shapes = (
{
closed = 1;
nodes = (
(-6,0,l),
(309,0,l),
(325.143,113,l),
(136.143,113,l),
(219.999,700,l),
(93.999,700,l)
);
}
);
width = 360;
},
{
anchors = (
{
name = b.uni0324_2;
position = "{208, 0}";
},
{
name = m.uni0308_1;
position = "{174, 700}";
},
{
name = t.uni031B_2;
position = "{366, 700}";
}
);
layerId = "C47A9308-35A1-4D64-9609-F04248EAE8DE";
shapes = (
{
closed = 1;
nodes = (
(4,0,l),
(448,0,l),
(467.686,117,l),
(157.686,117,l),
(238.999,700,l),
(103.999,700,l)
);
}
);
width = 499;
},
{
anchors = (
{
name = b.uni0324_2;
position = "{63, 0}";
},
{
name = m.uni0308_1;
position = "{152, 700}";
},
{
name = t.uni031B_2;
position = "{143, 700}";
}
);
layerId = "A5CA3E3F-63D1-490B-B4EA-8ECA27DB3C92";
shapes = (
{
closed = 1;
nodes = (
(14,0,l),
(329,0,l),
(338.571,67,l),
(98.571,67,l),
(188.999,700,l),
(113.999,700,l)
);
}
);
width = 390;
},
{
anchors = (
{
name = b.uni0324_2;
position = "{215, 0}";
},
{
name = m.uni0308_1;
position = "{181, 700}";
},
{
name = t.uni031B_2;
position = "{373, 700}";
}
);
layerId = "BD06E2F8-4593-4D8E-97D3-0F0A9BC781C2";
shapes = (
{
closed = 1;
nodes = (
(33,0,l),
(460,0,l),
(469.714,68,l),
(117.714,68,l),
(207.999,700,l),
(132.999,700,l)
);
}
);
width = 527;
},
{
anchors = (
{
name = b.uni0324_2;
position = "{222, 0}";
},
{
name = m.uni0308_1;
position = "{188, 700}";
},
{
name = t.uni031B_2;
position = "{380, 700}";
}
);
layerId = "BED270ED-D05C-40FE-BC6A-D5F2DB2176C1";
shapes = (
{
closed = 1;
nodes = (
(55,0,l),
(470,0,l),
(475.,35,l),
(95.,35,l),
(189.999,700,l),
(154.999,700,l)
);
}
);
width = 550;
},
{
anchors = (
{
name = b.uni0324_2;
position = "{21, 0}";
},
{
name = m.uni0308_1;
position = "{143, 700}";
},
{
name = t.uni031B_2;
position = "{81, 700}";
}
);
layerId = "624BE5E0-C167-4D60-8955-1CEBAB9BFDFE";
shapes = (
{
closed = 1;
nodes = (
(31,0,l),
(346,0,l),
(351.143,36,l),
(77.143,36,l),
(171.999,700,l),
(130.999,700,l)
);
}
);
width = 417;
}
);
rightKerningGroup = L;
unicode = 76;
},
{
glyphname = Lslash;
layers = (
{
layerId = "EB61547D-F7E1-476C-A885-D7B2C933109F";
shapes = (
{
closed = 1;
nodes = (
(1,232,l),
(310,380,l),
(332,530,l),
(23,381,l)
);
},
{
closed = 1;
nodes = (
(-20,0,l),
(295,0,l),
(316,144,l),
(161,144,l),
(241,707,l),
(81,707,l)
);
}
);
width = 340;
},
{
layerId = "8F32FC6E-BE02-4CA7-9492-B77DE78BF7A2";
shapes = (
{
closed = 1;
nodes = (
(-28,238,l),
(358,420,l),
(379,570,l),
(-6,388,l)
);
},
{
closed = 1;
nodes = (
(-16,0,l),
(440,0,l),
(461,150,l),
(180,150,l),
(260,707,l),
(85,707,l)
);
}
);
width = 481;
},
{
layerId = "BECF1E07-6E55-4435-99B7-BB5ED0FBC597";
shapes = (
{
closed = 1;
nodes = (
(11,279,l),
(275,396,l),
(291,509,l),
(27,392,l)
);
},
{
closed = 1;
nodes = (
(-6,0,l),
(309,0,l),
(325,113,l),
(136,113,l),
(221,707,l),
(95,707,l)
);
}
);
width = 360;
},
{
layerId = "C47A9308-35A1-4D64-9609-F04248EAE8DE";
shapes = (
{
closed = 1;
nodes = (
(4,279,l),
(314,416,l),
(330,529,l),
(21,392,l)
);
},
{
closed = 1;
nodes = (
(4,0,l),
(448,0,l),
(465,117,l),
(155,117,l),
(240,707,l),
(105,707,l)
);
}
);
width = 499;
},
{
layerId = "A5CA3E3F-63D1-490B-B4EA-8ECA27DB3C92";
shapes = (
{
closed = 1;
nodes = (
(25,350,l),
(222,420,l),
(230,478,l),
(34,408,l)
);
},
{
closed = 1;
nodes = (
(14,0,l),
(329,0,l),
(339,67,l),
(99,67,l),
(190,707,l),
(115,707,l)
);
}
);
width = 390;
},
{
layerId = "BD06E2F8-4593-4D8E-97D3-0F0A9BC781C2";
shapes = (
{
closed = 1;
nodes = (
(52,340,l),
(249,410,l),
(257,468,l),
(61,398,l)
);
},
{
closed = 1;
nodes = (
(33,0,l),
(460,0,l),
(470,68,l),
(118,68,l),
(209,707,l),
(134,707,l)
);
}
);
width = 527;
},
{
layerId = "BED270ED-D05C-40FE-BC6A-D5F2DB2176C1";
shapes = (
{
closed = 1;
nodes = (
(85,381,l),
(207,406,l),
(210,427,l),
(89,402,l)
);
},
{
closed = 1;
nodes = (
(55,0,l),
(470,0,l),
(475,35,l),
(95,35,l),
(191,707,l),
(156,707,l)
);
}
);
width = 550;
},
{
layerId = "624BE5E0-C167-4D60-8955-1CEBAB9BFDFE";
shapes = (
{
closed = 1;
nodes = (
(38,397,l),
(190,436,l),
(193,457,l),
(42,419,l)
);
},
{
closed = 1;
nodes = (
(31,0,l),
(346,0,l),
(351,36,l),
(77,36,l),
(173,707,l),
(132,707,l)
);
}
);
width = 417;
}
);
unicode = 321;
},
{
glyphname = M;
layers = (
{
anchors = (
{
name = b.uni0324_2;
position = "{288, 0}";
},
{
name = m.uni0308_1;
position = "{388, 700}";
}
);
layerId = "EB61547D-F7E1-476C-A885-D7B2C933109F";
shapes = (
{
closed = 1;
nodes = (
(-26,0,l),
(134,0,l),
(179.428,318,l),
(202.,119,l),
(283.,119,l),
(364.857,321,l),
(319,0,l),
(479,0,l),
(578.999,700,l),
(418.999,700,l),
(277.142,365,l),
(233.999,700,l),
(73.999,700,l)
);
}
);
width = 535;
},
{
anchors = (
{
name = b.uni0324_2;
position = "{315, 0}";
},
{
name = m.uni0308_1;
position = "{415, 700}";
}
);
layerId = "8F32FC6E-BE02-4CA7-9492-B77DE78BF7A2";
shapes = (
{
closed = 1;
nodes = (
(-7,0,l),
(168,0,l),
(215,328,l),
(280,133,l),
(391,133,l),
(509,323,l),
(463,0,l),
(636,0,l),
(736,700,l),
(563,700,l),
(370,373,l),
(268,700,l),
(93,700,l)
);
}
);
width = 713;
},
{
anchors = (
{
name = b.uni0324_2;
position = "{238, 0}";
},
{
name = m.uni0308_1;
position = "{338, 700}";
}
);
layerId = "BECF1E07-6E55-4435-99B7-BB5ED0FBC597";
shapes = (
{
closed = 1;
nodes = (
(-11,0,l),
(115,0,l),
(172.714,404,l),
(223.571,137,l),
(291.571,137,l),
(420.142,407,l),
(362,0,l),
(488,0,l),
(587.999,700,l),
(461.999,700,l),
(284.714,327,l),
(214.999,700,l),
(88.999,700,l)
);
}
);
width = 559;
},
{
anchors = (
{
name = b.uni0324_2;
position = "{323, 0}";
},
{
name = m.uni0308_1;
position = "{423, 700}";
}
);
layerId = "C47A9308-35A1-4D64-9609-F04248EAE8DE";
shapes = (
{
closed = 1;
nodes = (
(8,0,l),
(143,0,l),
(194.714,415,l),
(297.771,136,l),
(387.771,136,l),
(554.543,412,l),
(503,0,l),
(637,0,l),
(736.999,700,l),
(602.999,700,l),
(374.057,316,l),
(242.999,700,l),
(107.999,700,l)
);
}
);
width = 728;
},
{
anchors = (
{
name = b.uni0324_2;
position = "{162, 0}";
},
{
name = m.uni0308_1;
position = "{262, 700}";
}
);
layerId = "A5CA3E3F-63D1-490B-B4EA-8ECA27DB3C92";
shapes = (
{
closed = 1;
nodes = (
(11,0,l),
(86,0,l),
(162.142,533,l),
(255.428,164,l),
(304.428,164,l),
(502.57,536,l),
(426,0,l),
(501,0,l),
(600.999,700,l),
(525.999,700,l),
(295.571,270,l),
(185.999,700,l),
(110.999,700,l)
);
}
);
width = 596;
},
{
anchors = (
{
name = b.uni0324_2;
position = "{334, 0}";
},
{
name = m.uni0308_1;
position = "{434, 700}";
}
);
layerId = "BD06E2F8-4593-4D8E-97D3-0F0A9BC781C2";
shapes = (
{
closed = 1;
nodes = (
(30,0,l),
(105,0,l),
(182.999,546,l),
(325.143,141,l),
(383.143,141,l),
(639.999,546,l),
(562,0,l),
(637,0,l),
(736.999,700,l),
(661.999,700,l),
(366.857,230,l),
(204.999,700,l),
(129.999,700,l)
);
}
);
width = 751;
},
{
anchors = (
{
name = b.uni0324_2;
position = "{344, 0}";
},
{
name = m.uni0308_1;
position = "{444, 700}";
}
);
layerId = "BED270ED-D05C-40FE-BC6A-D5F2DB2176C1";
shapes = (
{
closed = 1;
nodes = (
(47,0,l),
(82,0,l),
(172.427,633,l),
(345.571,144,l),
(382.571,144,l),
(694.713,635,l),
(604,0,l),
(640,0,l),
(739.999,700,l),
(703.999,700,l),
(367.714,173,l),
(181.999,700,l),
(146.999,700,l)
);
}
);
width = 771;
},
{
anchors = (
{
name = b.uni0324_2;
position = "{117, 0}";
},
{
name = m.uni0308_1;
position = "{217, 700}";
}
);
layerId = "624BE5E0-C167-4D60-8955-1CEBAB9BFDFE";
shapes = (
{
closed = 1;
nodes = (
(31,0,l),
(72,0,l),
(160.427,619,l),
(282.,182,l),
(318.,182,l),
(562.856,622,l),
(474,0,l),
(515,0,l),
(614.999,700,l),
(573.999,700,l),
(308.142,232,l),
(171.999,700,l),
(130.999,700,l)
);
}
);
width = 631;
}
);
unicode = 77;
},
{
glyphname = N;
layers = (
{
anchors = (
{
name = b.uni0324_2;
position = "{230, 0}";
},
{
name = m.uni0308_1;
position = "{330, 700}";
}
);
layerId = "EB61547D-F7E1-476C-A885-D7B2C933109F";
shapes = (
{
closed = 1;
nodes = (
(-23,0,l),
(137,0,l),
(178.857,293,l),
(221,0,l),
(381,0,l),
(480.999,700,l),
(320.999,700,l),
(273.571,368,l),
(236.999,700,l),
(76.999,700,l)
);
}
);
width = 442;
},
{
anchors = (
{
name = b.uni0324_2;
position = "{260, 0}";
},
{
name = m.uni0308_1;
position = "{360, 700}";
}
);
layerId = "8F32FC6E-BE02-4CA7-9492-B77DE78BF7A2";
shapes = (
{
closed = 1;
nodes = (
(-20,0,l),
(155,0,l),
(208,372,l),
(345,0,l),
(519,0,l),
(619,700,l),
(445,700,l),
(391,324,l),
(255,700,l),
(80,700,l)
);
}
);
width = 584;
},
{
anchors = (
{
name = b.uni0324_2;
position = "{177, 0}";
},
{
name = m.uni0308_1;
position = "{277, 700}";
}
);
layerId = "BECF1E07-6E55-4435-99B7-BB5ED0FBC597";
shapes = (
{
closed = 1;
nodes = (
(-9,0,l),
(117,0,l),
(172.714,390,l),
(264,0,l),
(390,0,l),
(489.999,700,l),
(363.999,700,l),
(304.857,286,l),
(216.999,700,l),
(90.999,700,l)
);
}
);
width = 465;
},
{
anchors = (
{
name = b.uni0324_2;
position = "{266, 0}";
},
{
name = m.uni0308_1;
position = "{366, 700}";
}
);
layerId = "C47A9308-35A1-4D64-9609-F04248EAE8DE";
shapes = (
{
closed = 1;
nodes = (
(1,0,l),
(136,0,l),
(193.714,450,l),
(396,0,l),
(530,0,l),
(629.999,700,l),
(495.999,700,l),
(437.171,248,l),
(235.999,700,l),
(100.999,700,l)
);
}
);
width = 614;
},
{
anchors = (
{
name = b.uni0324_2;
position = "{98, 0}";
},
{
name = m.uni0308_1;
position = "{198, 700}";
}
);
layerId = "A5CA3E3F-63D1-490B-B4EA-8ECA27DB3C92";
shapes = (
{
closed = 1;
nodes = (
(12,0,l),
(87,0,l),
(163.57,536,l),
(329,0,l),
(404,0,l),
(503.999,700,l),
(428.999,700,l),
(352.285,163,l),
(186.999,700,l),
(111.999,700,l)
);
}
);
width = 500;
},
{
anchors = (
{
name = b.uni0324_2;
position = "{274, 0}";
},
{
name = m.uni0308_1;
position = "{374, 700}";
}
);
layerId = "BD06E2F8-4593-4D8E-97D3-0F0A9BC781C2";
shapes = (
{
closed = 1;
nodes = (
(31,0,l),
(106,0,l),
(186.999,567,l),
(471,0,l),
(546,0,l),
(645.999,700,l),
(570.999,700,l),
(490.143,134,l),
(205.999,700,l),
(130.999,700,l)
);
}
);
width = 660;
},
{
anchors = (
{
name = b.uni0324_2;
position = "{283, 0}";
},
{
name = m.uni0308_1;
position = "{383, 700}";
}
);
layerId = "BED270ED-D05C-40FE-BC6A-D5F2DB2176C1";
shapes = (
{
closed = 1;
nodes = (
(55,0,l),
(90,0,l),
(181.856,643,l),
(525,0,l),
(560,0,l),
(659.999,700,l),
(624.999,700,l),
(533.571,60,l),
(189.999,700,l),
(154.999,700,l)
);
}
);
width = 697;
},
{
anchors = (
{
name = b.uni0324_2;
position = "{50, 0}";
},
{
name = m.uni0308_1;
position = "{150, 700}";
}
);
layerId = "624BE5E0-C167-4D60-8955-1CEBAB9BFDFE";
shapes = (
{
closed = 1;
nodes = (
(31,0,l),
(72,0,l),
(162.427,633,l),
(377,0,l),
(418,0,l),
(517.999,700,l),
(476.999,700,l),
(388.571,81,l),
(171.999,700,l),
(130.999,700,l)
);
}
);
width = 533;
}
);
unicode = 78;
},
{
glyphname = O;
layers = (
{
anchors = (
{
name = b.uni0324_2;
position = "{226, 0}";
},
{
name = m.uni0308_1;
position = "{326, 700}";
},
{
name = m.uni0328;
position = "{300, 10}";
},
{
name = t.uni031B_2;
position = "{566, 700}";
}
);
layerId = "EB61547D-F7E1-476C-A885-D7B2C933109F";
shapes = (
{
closed = 1;
nodes = (
(240.857,-8,o),
(294.429,10,o),
(338.571,46,cs),
(382.571,81,o),
(408.428,129,o),
(417.,189,cs),
(462.856,510,ls),
(472.285,576,o),
(460.427,626,o),
(427.142,659,cs),
(393.856,692,o),
(348.142,708,o),
(290.142,708,cs),
(225.142,708,o),
(170.713,691,o),
(126.713,656,cs),
(82.713,621,o),
(55.713,572,o),
(46.856,510,cs),
(1.,189,ls),
(-8.143,125,o),
(2.857,76,o),
(34.143,43,c),
(64.286,9,o),
(111.857,-8,o),
(176.857,-8,cs)
);
},
{
closed = 1;
nodes = (
(203.713,481,ls),
(211.713,537,o),
(227.428,563,o),
(264.428,563,cs),
(299.428,563,o),
(305.57,536,o),
(297.713,481,cs),
(259.428,213,ls),
(252.714,166,o),
(230.428,136,o),
(203.428,136,c),
(171.571,137,o),
(158.,161,o),
(165.428,213,cs)
);
}
);
width = 448;
},
{
anchors = (
{
name = b.uni0324_2;
position = "{242, 0}";
},
{
name = m.uni0308_1;
position = "{342, 700}";
},
{
name = m.uni0328;
position = "{305, 10}";
},
{
name = t.uni031B_2;
position = "{629, 700}";
}
);
layerId = "8F32FC6E-BE02-4CA7-9492-B77DE78BF7A2";
shapes = (
{
closed = 1;
nodes = (
(328,-8,o),
(399,17,o),
(449,68,cs),
(498,118,o),
(529,189,o),
(542,280,cs),
(562,419,ls),
(575,512,o),
(564,584,o),
(530,634,cs),
(495,683,o),
(432,708,o),
(341,708,cs),
(250,708,o),
(181,684,o),
(131,635,cs),
(81,586,o),
(48,514,o),
(35,419,cs),
(15,280,ls),
(1,185,o),
(12,113,o),
(46,65,cs),
(80,16,o),
(143,-8,o),
(233,-8,cs)
);
},
{
closed = 1;
nodes = (
(208,409,ls),
(224,518,o),
(253,557,o),
(320,557,cs),
(384,557,o),
(403,516,o),
(387,409,cs),
(370,286,ls),
(356,186,o),
(322,147,o),
(261,147,cs),
(194,147,o),
(176,183,o),
(191,286,cs)
);
}
);
width = 561;
},
{
anchors = (
{
name = b.uni0324_2;
position = "{183, 0}";
},
{
name = m.uni0308_1;
position = "{283, 700}";
},
{
name = m.uni0328;
position = "{243, 10}";
},
{
name = t.uni031B_2;
position = "{478, 700}";
}
);
layerId = "BECF1E07-6E55-4435-99B7-BB5ED0FBC597";
shapes = (
{
closed = 1;
nodes = (
(245.857,-8,o),
(297.429,10,o),
(339.571,46,cs),
(381.714,82,o),
(406.857,132,o),
(415.857,195,cs),
(459.999,504,ls),
(469.57,571,o),
(458.856,622,o),
(427.856,657,cs),
(396.713,691,o),
(352.142,708,o),
(293.142,708,cs),
(230.142,708,o),
(177.713,691,o),
(136.713,656,cs),
(94.57,620,o),
(68.428,570,o),
(58.999,504,cs),
(14.857,195,ls),
(5.428,129,o),
(15.143,78,o),
(46.286,44,c),
(75.286,9,o),
(121.857,-8,o),
(183.857,-8,cs)
);
},
{
closed = 1;
nodes = (
(182.142,484,ls),
(192.856,559,o),
(220.856,594,o),
(273.856,594,cs),
(323.856,594,o),
(341.713,558,o),
(331.142,484,cs),
(291.857,209,ls),
(282.285,142,o),
(250.,105,o),
(204.,105,c),
(153.143,106,o),
(132.857,139,o),
(142.857,209,cs)
);
}
);
width = 459;
},
{
anchors = (
{
name = b.uni0324_2;
position = "{248, 0}";
},
{
name = m.uni0308_1;
position = "{348, 700}";
},
{
name = m.uni0328;
position = "{311, 10}";
},
{
name = t.uni031B_2;
position = "{635, 700}";
}
);
layerId = "C47A9308-35A1-4D64-9609-F04248EAE8DE";
shapes = (
{
closed = 1;
nodes = (
(331.543,-8,o),
(399.914,16,o),
(450.714,65,cs),
(499.457,113,o),
(530.457,183,o),
(543.6,273,cs),
(564.343,426,ls),
(577.6,518,o),
(566.6,588,o),
(531.342,636,cs),
(496.085,684,o),
(435.457,708,o),
(350.457,708,cs),
(264.457,708,o),
(198.142,685,o),
(148.4,637,cs),
(98.714,590,o),
(65.714,520,o),
(52.343,426,cs),
(31.6,273,l),
(18.228,179,o),
(29.228,109,o),
(63.6,63,cs),
(98.857,15,o),
(159.543,-8,o),
(244.543,-8,cs)
);
},
{
closed = 1;
nodes = (
(185.943,419,ls),
(201.971,542,o),
(244.714,590,o),
(330.714,590,cs),
(414.714,590,o),
(445.742,538,o),
(428.943,419,c),
(410.714,275,ls),
(395.257,162,o),
(350.4,112,o),
(268.4,112,cs),
(182.4,112,o),
(151.086,159,o),
(166.714,275,cs)
);
}
);
width = 580;
},
{
anchors = (
{
name = b.uni0324_2;
position = "{119, 0}";
},
{
name = m.uni0308_1;
position = "{219, 700}";
},
{
name = m.uni0328;
position = "{157, 10}";
},
{
name = t.uni031B_2;
position = "{346, 700}";
}
);
layerId = "A5CA3E3F-63D1-490B-B4EA-8ECA27DB3C92";
shapes = (
{
closed = 1;
nodes = (
(253.857,-8,o),
(302.429,10,o),
(341.714,47,cs),
(380.,84,o),
(404.428,136,o),
(414.142,204,cs),
(455.713,495,ls),
(465.57,564,o),
(457.142,617,o),
(429.427,654,cs),
(401.57,690,o),
(357.142,708,o),
(297.142,708,cs),
(238.142,708,o),
(188.57,690,o),
(150.57,655,cs),
(111.427,619,o),
(86.856,566,o),
(76.713,495,cs),
(35.142,204,ls),
(25.285,135,o),
(34.714,82,o),
(63.571,46,cs),
(92.429,10,o),
(135.857,-8,o),
(194.857,-8,cs)
);
},
{
closed = 1;
nodes = (
(149.713,488,ls),
(164.427,591,o),
(211.57,641,o),
(288.57,641,cs),
(361.57,641,o),
(395.427,591,o),
(380.713,488,cs),
(340.,203,ls),
(326.286,107,o),
(278.286,58,o),
(205.286,58,cs),
(126.428,59,o),
(95.286,107,o),
(109.,203,cs)
);
}
);
width = 475;
},
{
anchors = (
{
name = b.uni0324_2;
position = "{257, 0}";
},
{
name = m.uni0308_1;
position = "{357, 700}";
},
{
name = m.uni0328;
position = "{320, 10}";
},
{
name = t.uni031B_2;
position = "{644, 700}";
}
);
layerId = "BD06E2F8-4593-4D8E-97D3-0F0A9BC781C2";
shapes = (
{
closed = 1;
nodes = (
(337.857,-8,o),
(402.143,15,o),
(451.571,60,cs),
(501.,105,o),
(531.714,173,o),
(544.428,262,cs),
(569.428,437,ls),
(582.285,527,o),
(570.999,595,o),
(534.427,640,cs),
(497.856,685,o),
(441.142,708,o),
(364.142,708,cs),
(287.142,708,o),
(223.999,686,o),
(174.57,641,cs),
(125.142,596,o),
(93.428,528,o),
(80.428,437,cs),
(55.428,262,ls),
(42.428,171,o),
(53.714,103,o),
(90.428,59,cs),
(127.,14,o),
(183.857,-8,o),
(260.857,-8,cs)
);
},
{
closed = 1;
nodes = (
(153.999,434,ls),
(174.428,577,o),
(239.427,640,o),
(354.427,640,cs),
(467.427,640,o),
(513.57,571,o),
(493.999,434,cs),
(468.857,258,ls),
(450.,126,o),
(384.571,60,o),
(271.571,60,cs),
(158.571,60,o),
(109.571,123,o),
(128.857,258,cs)
);
}
);
width = 608;
},
{
anchors = (
{
name = b.uni0324_2;
position = "{265, 0}";
},
{
name = m.uni0308_1;
position = "{365, 700}";
},
{
name = m.uni0328;
position = "{328, 10}";
},
{
name = t.uni031B_2;
position = "{652, 700}";
}
);
layerId = "BED270ED-D05C-40FE-BC6A-D5F2DB2176C1";
shapes = (
{
closed = 1;
nodes = (
(344.857,-8,o),
(405.,14,o),
(454.143,57,cs),
(503.286,100,o),
(534.714,166,o),
(547.428,255,cs),
(574.428,444,ls),
(587.142,533,o),
(575.57,599,o),
(538.856,643,cs),
(501.999,686,o),
(447.142,708,o),
(375.142,708,cs),
(303.142,708,o),
(243.142,687,o),
(193.999,644,cs),
(144.856,601,o),
(113.285,534,o),
(100.428,444,cs),
(73.428,255,ls),
(60.571,165,o),
(73.143,99,o),
(110.,56,cs),
(146.857,13,o),
(201.857,-8,o),
(273.857,-8,cs)
);
},
{
closed = 1;
nodes = (
(134.428,444,ls),
(156.713,600,o),
(237.142,673,o),
(370.142,673,cs),
(503.142,673,o),
(559.713,593,o),
(538.428,444,cs),
(510.285,247,ls),
(489.571,102,o),
(412.571,25,o),
(277.571,25,cs),
(145.571,25,o),
(85.143,99,o),
(106.285,247,cs)
);
}
);
width = 631;
},
{
anchors = (
{
name = b.uni0324_2;
position = "{81, 0}";
},
{
name = m.uni0308_1;
position = "{181, 700}";
},
{
name = m.uni0328;
position = "{105, 10}";
},
{
name = t.uni031B_2;
position = "{263, 700}";
}
);
layerId = "624BE5E0-C167-4D60-8955-1CEBAB9BFDFE";
shapes = (
{
closed = 1;
nodes = (
(263.857,-8,o),
(310.571,11,o),
(347.857,48,cs),
(384.143,85,o),
(407.857,139,o),
(418.,210,cs),
(457.856,489,ls),
(467.999,560,o),
(460.713,614,o),
(435.142,652,cs),
(409.427,689,o),
(366.142,708,o),
(305.142,708,cs),
(248.142,708,o),
(200.57,690,o),
(164.427,654,cs),
(128.285,618,o),
(104.428,563,o),
(93.856,489,cs),
(54.,210,ls),
(43.857,139,o),
(53.143,85,o),
(80.857,48,cs),
(108.571,11,o),
(150.857,-8,o),
(206.857,-8,cs)
);
},
{
closed = 1;
nodes = (
(133.142,491,ls),
(150.427,612,o),
(209.999,672,o),
(302.999,672,cs),
(391.999,672,o),
(436.427,612,o),
(419.142,491,cs),
(377.428,199,ls),
(360.857,83,o),
(302.857,27,o),
(210.857,27,cs),
(114.,28,o),
(75.286,86,o),
(91.428,199,cs)
);
}
);
width = 496;
}
);
leftKerningGroup = C;
unicode = 79;
},
{
glyphname = Oslash;
layers = (
{
anchors = (
{
name = b.uni0324_2;
position = "{226, 0}";
},
{
name = m.uni0308_1;
position = "{327, 709}";
}
);
layerId = "EB61547D-F7E1-476C-A885-D7B2C933109F";
shapes = (
{
closed = 1;
nodes = (
(-27.857,-20,l),
(35.143,-20,l),
(492.713,740,l),
(428.713,740,l)
);
},
{
closed = 1;
nodes = (
(240.857,-8,o),
(294.429,10,o),
(338.428,45,cs),
(381.428,80,o),
(407.285,128,o),
(415.857,188,cs),
(463.428,521,ls),
(472.856,587,o),
(460.856,636,o),
(428.57,669,cs),
(395.284,702,o),
(349.57,718,o),
(291.57,718,cs),
(227.57,718,o),
(174.142,701,o),
(130.142,666,cs),
(86.142,631,o),
(59.142,582,o),
(50.428,521,cs),
(2.857,188,ls),
(-6.143,125,o),
(4.857,76,o),
(35.143,43,cs),
(65.286,9,o),
(112.857,-8,o),
(176.857,-8,cs)
);
},
{
closed = 1;
nodes = (
(206.285,492,ls),
(214.285,548,o),
(228.856,573,o),
(265.856,573,cs),
(300.856,573,o),
(307.142,547,o),
(299.285,492,cs),
(259.285,212,ls),
(252.571,165,o),
(228.428,136,o),
(203.428,136,c),
(171.571,137,o),
(159.,161,o),
(166.285,212,cs)
);
}
);
width = 448;
},
{
anchors = (
{
name = b.uni0324_2;
position = "{242, 0}";
},
{
name = m.uni0308_1;
position = "{343, 707}";
}
);
layerId = "8F32FC6E-BE02-4CA7-9492-B77DE78BF7A2";
shapes = (
{
closed = 1;
nodes = (
(-28,-20,l),
(56,-20,l),
(607,735,l),
(525,735,l)
);
},
{
closed = 1;
nodes = (
(328,-8,o),
(399,17,o),
(449,68,cs),
(498,118,o),
(529,189,o),
(542,280,cs),
(563,428,ls),
(576,521,o),
(566,593,o),
(531,643,cs),
(496,693,o),
(434,718,o),
(343,718,cs),
(252,718,o),
(182,694,o),
(132,645,cs),
(82,596,o),
(50,524,o),
(36,428,cs),
(15,280,ls),
(1,185,o),
(12,113,o),
(46,65,cs),
(80,16,o),
(143,-8,o),
(233,-8,cs)
);
},
{
closed = 1;
nodes = (
(210,419,ls),
(225,528,o),
(254,566,o),
(321,566,cs),
(385,566,o),
(404,524,o),
(389,419,cs),
(370,286,ls),
(356,186,o),
(322,147,o),
(261,147,cs),
(194,147,o),
(176,183,o),
(191,286,cs)
);
}
);
width = 561;
},
{
anchors = (
{
name = b.uni0324_2;
position = "{183, 0}";
},
{
name = m.uni0308_1;
position = "{285, 714}";
}
);
layerId = "BECF1E07-6E55-4435-99B7-BB5ED0FBC597";
shapes = (
{
closed = 1;
nodes = (
(-15.857,-20,l),
(44.143,-20,l),
(492.999,735,l),
(432.999,735,l)
);
},
{
closed = 1;
nodes = (
(245.857,-8,o),
(297.429,10,o),
(340.571,46,c),
(381.714,82,o),
(406.857,132,o),
(415.857,195,cs),
(461.285,513,ls),
(470.856,580,o),
(460.142,631,o),
(430.142,666,c),
(397.999,700,o),
(353.427,717,o),
(294.427,717,cs),
(231.427,717,o),
(179.999,700,o),
(137.856,664,cs),
(95.856,629,o),
(69.57,578,o),
(60.285,513,cs),
(14.857,195,ls),
(5.428,129,o),
(16.286,79,o),
(46.428,45,c),
(75.286,9,o),
(121.857,-8,o),
(183.857,-8,cs)
);
},
{
closed = 1;
nodes = (
(183.428,493,ls),
(194.142,568,o),
(221.142,603,o),
(275.142,603,cs),
(326.142,603,o),
(342.999,567,o),
(332.428,493,cs),
(291.857,209,ls),
(282.285,142,o),
(249.,105,o),
(204.,105,c),
(153.143,106,o),
(133.,140,o),
(142.857,209,cs)
);
}
);
width = 459;
},
{
anchors = (
{
name = b.uni0324_2;
position = "{248, 0}";
},
{
name = m.uni0308_1;
position = "{349, 707}";
}
);
layerId = "C47A9308-35A1-4D64-9609-F04248EAE8DE";
shapes = (
{
closed = 1;
nodes = (
(-11.143,-20,l),
(62.857,-20,l),
(608.828,732,l),
(535.828,732,l)
);
},
{
closed = 1;
nodes = (
(331.543,-8,o),
(399.914,16,o),
(450.714,65,cs),
(499.457,113,o),
(530.457,183,o),
(543.6,273,cs),
(565.857,435,ls),
(578.114,527,o),
(568.114,597,o),
(532.857,645,cs),
(497.599,693,o),
(436.971,717,o),
(351.971,717,cs),
(266.971,717,o),
(199.657,694,o),
(148.971,647,cs),
(99.228,599,o),
(67.228,529,o),
(53.857,435,c),
(31.6,273,l),
(18.228,179,o),
(29.228,109,o),
(63.6,63,cs),
(98.857,15,o),
(159.543,-8,o),
(244.543,-8,cs)
);
},
{
closed = 1;
nodes = (
(187.457,428,ls),
(203.485,551,o),
(246.228,599,o),
(332.228,599,cs),
(415.228,599,o),
(446.2,546,o),
(430.457,428,cs),
(410.714,275,ls),
(395.257,162,o),
(350.4,112,o),
(268.4,112,cs),
(182.4,112,o),
(151.086,159,o),
(166.714,275,cs)
);
}
);
width = 580;
},
{
anchors = (
{
name = b.uni0324_2;
position = "{119, 0}";
},
{
name = m.uni0308_1;
position = "{222, 721}";
}
);
layerId = "A5CA3E3F-63D1-490B-B4EA-8ECA27DB3C92";
shapes = (
{
closed = 1;
nodes = (
(2.143,-20,l),
(57.143,-20,l),
(492.856,727,l),
(438.856,727,l)
);
},
{
closed = 1;
nodes = (
(253.857,-8,o),
(302.571,11,o),
(342.857,48,cs),
(382.143,85,o),
(406.571,137,o),
(416.428,206,cs),
(458.571,501,ls),
(468.428,570,o),
(459.142,624,o),
(431.427,661,cs),
(402.713,698,o),
(358.284,716,o),
(298.284,716,cs),
(238.284,716,o),
(188.713,698,o),
(149.57,662,cs),
(110.427,626,o),
(85.713,572,o),
(75.571,501,cs),
(33.428,206,ls),
(23.428,136,o),
(32.857,83,o),
(62.714,47,c),
(91.429,10,o),
(135.857,-8,o),
(194.857,-8,cs)
);
},
{
closed = 1;
nodes = (
(149.571,494,ls),
(164.285,597,o),
(210.57,648,o),
(289.57,648,cs),
(364.57,648,o),
(397.285,597,o),
(382.571,494,cs),
(341.285,205,ls),
(327.428,108,o),
(280.428,59,o),
(205.428,59,cs),
(126.571,60,o),
(94.428,108,o),
(108.285,205,cs)
);
}
);
width = 475;
},
{
anchors = (
{
name = b.uni0324_2;
position = "{257, 0}";
},
{
name = m.uni0308_1;
position = "{358, 707}";
}
);
layerId = "BD06E2F8-4593-4D8E-97D3-0F0A9BC781C2";
shapes = (
{
closed = 1;
nodes = (
(15.143,-20,l),
(74.143,-20,l),
(610.856,727,l),
(551.856,727,l)
);
},
{
closed = 1;
nodes = (
(337.857,-8,o),
(402.143,15,o),
(451.571,60,cs),
(501.,105,o),
(531.714,173,o),
(544.428,262,cs),
(570.571,445,ls),
(583.428,535,o),
(572.142,603,o),
(535.57,648,cs),
(498.999,693,o),
(442.284,716,o),
(365.284,716,cs),
(288.284,716,o),
(225.142,694,o),
(175.713,649,cs),
(126.285,604,o),
(94.57,536,o),
(81.571,445,cs),
(55.428,262,ls),
(42.428,171,o),
(53.714,103,o),
(90.428,59,cs),
(127.,14,o),
(183.857,-8,o),
(260.857,-8,cs)
);
},
{
closed = 1;
nodes = (
(155.142,442,ls),
(175.57,585,o),
(240.57,648,o),
(355.57,648,cs),
(468.57,648,o),
(514.713,579,o),
(495.142,442,cs),
(468.857,258,ls),
(450.,126,o),
(384.571,60,o),
(271.571,60,cs),
(158.571,60,o),
(109.571,123,o),
(128.857,258,cs)
);
}
);
width = 608;
},
{
anchors = (
{
name = b.uni0324_2;
position = "{265, 0}";
},
{
name = m.uni0308_1;
position = "{366, 707}";
}
);
layerId = "BED270ED-D05C-40FE-BC6A-D5F2DB2176C1";
shapes = (
{
closed = 1;
nodes = (
(34.143,-20,l),
(83.143,-20,l),
(614.427,724,l),
(564.427,724,l)
);
},
{
closed = 1;
nodes = (
(344.857,-8,o),
(405.,14,o),
(454.143,57,cs),
(503.286,100,o),
(534.714,166,o),
(547.428,255,cs),
(575.571,452,ls),
(588.285,541,o),
(576.713,607,o),
(539.856,650,cs),
(502.999,693,o),
(448.142,715,o),
(376.142,715,cs),
(304.142,715,o),
(244.142,694,o),
(194.999,651,cs),
(145.856,608,o),
(114.285,541,o),
(101.571,452,cs),
(73.428,255,ls),
(60.571,165,o),
(73.143,99,o),
(110.,56,cs),
(146.857,13,o),
(201.857,-8,o),
(273.857,-8,cs)
);
},
{
closed = 1;
nodes = (
(135.428,451,ls),
(157.713,607,o),
(238.284,681,o),
(371.284,681,cs),
(504.284,681,o),
(560.999,602,o),
(539.428,451,cs),
(510.285,247,ls),
(489.571,102,o),
(412.571,25,o),
(277.571,25,cs),
(145.571,25,o),
(85.143,99,o),
(106.285,247,cs)
);
}
);
width = 631;
},
{
anchors = (
{
name = b.uni0324_2;
position = "{81, 0}";
},
{
name = m.uni0308_1;
position = "{185, 726}";
}
);
layerId = "624BE5E0-C167-4D60-8955-1CEBAB9BFDFE";
shapes = (
{
closed = 1;
nodes = (
(19.143,-20,l),
(71.143,-20,l),
(498.142,722,l),
(448.142,722,l)
);
},
{
closed = 1;
nodes = (
(263.857,-8,o),
(310.571,11,o),
(349.,49,cs),
(387.286,86,o),
(411.143,141,o),
(421.428,213,cs),
(461.428,493,ls),
(471.57,564,o),
(463.285,618,o),
(436.856,657,cs),
(410.427,696,o),
(367.142,715,o),
(306.142,715,cs),
(247.142,715,o),
(199.57,697,o),
(162.427,661,cs),
(125.142,624,o),
(101.142,568,o),
(90.428,493,cs),
(50.428,213,ls),
(40.,140,o),
(49.143,85,o),
(77.857,48,cs),
(106.571,11,o),
(149.857,-8,o),
(206.857,-8,cs)
);
},
{
closed = 1;
nodes = (
(131.713,495,ls),
(148.999,616,o),
(208.856,678,o),
(303.856,678,cs),
(394.856,678,o),
(437.999,616,o),
(420.713,495,cs),
(378.857,202,ls),
(362.143,85,o),
(306.,28,o),
(211.,28,cs),
(114.143,29,o),
(73.286,86,o),
(89.857,202,cs)
);
}
);
width = 496;
}
);
unicode = 216;
},
{
glyphname = P;
layers = (
{
anchors = (
{
name = b.uni0324_2;
position = "{211, 0}";
},
{
name = m.uni0308_1;
position = "{311, 700}";
}
);
layerId = "EB61547D-F7E1-476C-A885-D7B2C933109F";
shapes = (
{
closed = 1;
nodes = (
(-20,0,l),
(137,0,l),
(170.285,233,l),
(205.285,233,ls),
(277.285,233,o),
(332.,252,o),
(368.428,290,cs),
(404.857,328,o),
(428.285,387,o),
(439.856,468,cs),
(451.428,549,o),
(444.856,608,o),
(419.142,645,cs),
(393.427,682,o),
(343.999,700,o),
(271.999,700,cs),
(79.999,700,l)
);
},
{
closed = 1;
nodes = (
(190.856,377,l),
(216.57,557,l),
(247.57,557,ls),
(286.57,557,o),
(288.999,532,o),
(279.856,468,cs),
(270.714,404,o),
(257.856,377,o),
(221.856,377,cs)
);
}
);
width = 418;
},
{
anchors = (
{
name = b.uni0324_2;
position = "{226, 0}";
},
{
name = m.uni0308_1;
position = "{326, 700}";
}
);
layerId = "8F32FC6E-BE02-4CA7-9492-B77DE78BF7A2";
shapes = (
{
closed = 1;
nodes = (
(-19,0,l),
(156,0,l),
(191,245,l),
(289,245,ls),
(362,245,o),
(423,265,o),
(472,306,cs),
(520,347,o),
(548,401,o),
(558,469,cs),
(568,540,o),
(555,596,o),
(519,638,cs),
(482,679,o),
(427,700,o),
(354,700,cs),
(81,700,l)
);
},
{
closed = 1;
nodes = (
(213,397,l),
(235,550,l),
(325,550,ls),
(369,550,o),
(391,520,o),
(384,469,cs),
(378,428,o),
(343,397,o),
(303,397,cs)
);
}
);
width = 529;
},
{
anchors = (
{
name = b.uni0324_2;
position = "{166, 0}";
},
{
name = m.uni0308_1;
position = "{266, 700}";
}
);
layerId = "BECF1E07-6E55-4435-99B7-BB5ED0FBC597";
shapes = (
{
closed = 1;
nodes = (
(-6,0,l),
(118,0,l),
(154.857,258,l),
(218.857,258,ls),
(285.857,258,o),
(337.428,276,o),
(373.571,312,cs),
(408.714,348,o),
(431.714,404,o),
(442.428,479,cs),
(453.285,555,o),
(447.285,611,o),
(421.427,647,cs),
(396.427,682,o),
(349.999,700,o),
(281.999,700,cs),
(93.999,700,l)
);
},
{
closed = 1;
nodes = (
(170.999,371,l),
(201.999,588,l),
(261.999,588,ls),
(315.999,588,o),
(328.428,556,o),
(317.428,479,cs),
(306.571,403,o),
(282.999,371,o),
(230.999,371,cs)
);
}
);
width = 426;
},
{
anchors = (
{
name = b.uni0324_2;
position = "{232, 0}";
},
{
name = m.uni0308_1;
position = "{332, 700}";
}
);
layerId = "C47A9308-35A1-4D64-9609-F04248EAE8DE";
shapes = (
{
closed = 1;
nodes = (
(2,0,l),
(137,0,l),
(172.914,261,l),
(302.914,261,ls),
(373.914,261,o),
(433.,280,o),
(481.285,320,cs),
(528.514,359,o),
(555.485,411,o),
(565.257,477,cs),
(575.2,546,o),
(563.342,601,o),
(528.628,641,cs),
(492.857,680,o),
(438.999,700,o),
(366.999,700,cs),
(101.999,700,l)
);
},
{
closed = 1;
nodes = (
(192.657,379,l),
(217.314,583,l),
(340.314,583,ls),
(407.314,583,o),
(439.2,546,o),
(431.257,477,cs),
(423.771,416,o),
(379.657,379,o),
(315.657,379,cs)
);
}
);
width = 547;
},
{
anchors = (
{
name = b.uni0324_2;
position = "{99, 0}";
},
{
name = m.uni0308_1;
position = "{199, 700}";
}
);
layerId = "A5CA3E3F-63D1-490B-B4EA-8ECA27DB3C92";
shapes = (
{
closed = 1;
nodes = (
(15,0,l),
(89,0,l),
(131.285,296,l),
(239.285,296,ls),
(299.285,296,o),
(346.714,313,o),
(381.428,346,cs),
(415.142,379,o),
(437.285,429,o),
(446.856,496,cs),
(456.713,565,o),
(449.999,616,o),
(425.856,650,cs),
(401.57,683,o),
(358.999,700,o),
(296.999,700,cs),
(114.999,700,l)
);
},
{
closed = 1;
nodes = (
(140.714,362,l),
(179.57,634,l),
(283.57,634,ls),
(359.57,634,o),
(387.57,592,o),
(373.856,496,cs),
(360.285,401,o),
(320.714,362,o),
(244.714,362,cs)
);
}
);
width = 438;
},
{
anchors = (
{
name = b.uni0324_2;
position = "{240, 0}";
},
{
name = m.uni0308_1;
position = "{340, 700}";
}
);
layerId = "BD06E2F8-4593-4D8E-97D3-0F0A9BC781C2";
shapes = (
{
closed = 1;
nodes = (
(32,0,l),
(107,0,l),
(147.714,285,l),
(326.714,285,ls),
(394.714,285,o),
(451.285,303,o),
(496.571,340,cs),
(541.856,377,o),
(568.856,426,o),
(577.856,489,cs),
(587.428,556,o),
(575.856,608,o),
(542.142,645,cs),
(508.427,682,o),
(455.999,700,o),
(385.999,700,cs),
(131.999,700,l)
);
},
{
closed = 1;
nodes = (
(157.285,352,l),
(197.285,632,l),
(370.285,632,ls),
(470.285,632,o),
(516.428,584,o),
(502.856,489,cs),
(489.856,398,o),
(430.285,352,o),
(330.285,352,cs)
);
}
);
width = 574;
},
{
anchors = (
{
name = b.uni0324_2;
position = "{248, 0}";
},
{
name = m.uni0308_1;
position = "{348, 700}";
}
);
layerId = "BED270ED-D05C-40FE-BC6A-D5F2DB2176C1";
shapes = (
{
closed = 1;
nodes = (
(55,0,l),
(90,0,l),
(132.999,301,l),
(343.999,301,ls),
(409.999,301,o),
(465.571,319,o),
(509.571,354,cs),
(553.571,389,o),
(579.285,436,o),
(587.999,497,cs),
(597.428,563,o),
(585.57,613,o),
(553.57,648,cs),
(520.57,683,o),
(469.999,700,o),
(400.999,700,cs),
(154.999,700,l)
);
},
{
closed = 1;
nodes = (
(137.714,334,l),
(184.999,665,l),
(390.999,665,ls),
(513.999,665,o),
(568.999,609,o),
(552.999,497,cs),
(537.142,386,o),
(467.714,334,o),
(343.714,334,cs)
);
}
);
width = 597;
},
{
anchors = (
{
name = b.uni0324_2;
position = "{58, 0}";
},
{
name = m.uni0308_1;
position = "{158, 700}";
}
);
layerId = "624BE5E0-C167-4D60-8955-1CEBAB9BFDFE";
shapes = (
{
closed = 1;
nodes = (
(33,0,l),
(74,0,l),
(119.857,321,l),
(256.857,321,ls),
(311.857,321,o),
(357.142,337,o),
(390.571,368,cs),
(423.999,399,o),
(444.571,445,o),
(453.428,507,cs),
(462.57,571,o),
(455.427,619,o),
(433.142,652,c),
(409.713,684,o),
(368.999,700,o),
(310.999,700,cs),
(132.999,700,l)
);
},
{
closed = 1;
nodes = (
(124.856,356,l),
(168.999,665,l),
(301.999,665,ls),
(392.999,665,o),
(430.999,616,o),
(415.428,507,cs),
(400.142,400,o),
(349.856,356,o),
(257.856,356,cs)
);
}
);
width = 454;
}
);
unicode = 80;
},
{
glyphname = Q;
layers = (
{
anchors = (
{
name = b.uni0324_2;
position = "{226, 0}";
},
{
name = m.uni0308_1;
position = "{326, 700}";
}
);
layerId = "EB61547D-F7E1-476C-A885-D7B2C933109F";
shapes = (
{
closed = 1;
nodes = (
(235,-134,l),
(323,-104,l),
(266,219,l),
(178,201,l)
);
},
{
alignment = -1;
ref = O;
}
);
width = 448;
},
{
anchors = (
{
name = b.uni0324_2;
position = "{242, 0}";
},
{
name = m.uni0308_1;
position = "{342, 700}";
}
);
layerId = "8F32FC6E-BE02-4CA7-9492-B77DE78BF7A2";
shapes = (
{
closed = 1;
nodes = (
(348,-157,l),
(452,-101,l),
(315,263,l),
(213,227,l)
);
},
{
alignment = -1;
pos = (-2,0);
ref = O;
}
);
width = 561;
},
{
anchors = (
{
name = b.uni0324_2;
position = "{193, 0}";
},
{
name = m.uni0308_1;
position = "{293, 700}";
}
);
layerId = "BECF1E07-6E55-4435-99B7-BB5ED0FBC597";
shapes = (
{
closed = 1;
nodes = (
(244,-142,l),
(333,-110,l),
(261,222,l),
(175,200,l)
);
},
{
alignment = -1;
ref = O;
}
);
width = 479;
},
{
anchors = (
{
name = b.uni0324_2;
position = "{265, 0}";
},
{
name = m.uni0308_1;
position = "{365, 700}";
}
);
layerId = "C47A9308-35A1-4D64-9609-F04248EAE8DE";
shapes = (
{
closed = 1;
nodes = (
(382,-149,l),
(487,-94,l),
(350,264,l),
(241,226,l)
);
},
{
alignment = -1;
ref = O;
}
);
width = 614;
},
{
anchors = (
{
name = b.uni0324_2;
position = "{119, 0}";
},
{
name = m.uni0308_1;
position = "{219, 700}";
}
);
layerId = "A5CA3E3F-63D1-490B-B4EA-8ECA27DB3C92";
shapes = (
{
closed = 1;
nodes = (
(272,-146,l),
(337,-122,l),
(243,224,l),
(179,203,l)
);
},
{
alignment = -1;
pos = (-1,0);
ref = O;
}
);
width = 475;
},
{
anchors = (
{
name = b.uni0324_2;
position = "{257, 0}";
},
{
name = m.uni0308_1;
position = "{357, 700}";
}
);
layerId = "BD06E2F8-4593-4D8E-97D3-0F0A9BC781C2";
shapes = (
{
closed = 1;
nodes = (
(389,-155,l),
(452,-122,l),
(311,238,l),
(244,216,l)
);
},
{
alignment = -1;
ref = O;
}
);
width = 608;
},
{
anchors = (
{
name = b.uni0324_2;
position = "{265, 0}";
},
{
name = m.uni0308_1;
position = "{365, 700}";
}
);
layerId = "BED270ED-D05C-40FE-BC6A-D5F2DB2176C1";
shapes = (
{
closed = 1;
nodes = (
(412,-153,l),
(443,-136,l),
(316,182,l),
(283,173,l)
);
},
{
alignment = -1;
ref = O;
}
);
width = 631;
},
{
anchors = (
{
name = b.uni0324_2;
position = "{81, 0}";
},
{
name = m.uni0308_1;
position = "{181, 700}";
}
);
layerId = "624BE5E0-C167-4D60-8955-1CEBAB9BFDFE";
shapes = (
{
closed = 1;
nodes = (
(314,-145,l),
(348,-130,l),
(244,217,l),
(210,199,l)
);
},
{
alignment = -1;
ref = O;
}
);
width = 496;
}
);
leftKerningGroup = C;
unicode = 81;
},
{
glyphname = R;
layers = (
{
anchors = (
{
name = b.uni0324_2;
position = "{227, 0}";
},
{
name = m.uni0308_1;
position = "{327, 700}";
}
);
layerId = "EB61547D-F7E1-476C-A885-D7B2C933109F";
shapes = (
{
closed = 1;
nodes = (
(-21,0,l),
(138,0,l),
(175.714,264,l),
(198.714,264,l),
(230,0,l),
(397,0,l),
(346.142,295,l),
(400.428,332,o),
(427.999,392,o),
(441.142,484,cs),
(452.142,561,o),
(445.142,617,o),
(420.856,650,cs),
(395.57,683,o),
(346.999,700,o),
(273.999,700,cs),
(78.999,700,l)
);
},
{
closed = 1;
nodes = (
(195.999,406,l),
(217.57,557,l),
(250.57,557,ls),
(286.57,557,o),
(289.428,535,o),
(282.142,484,cs),
(274.285,429,o),
(261.999,406,o),
(228.999,406,cs)
);
}
);
width = 443;
},
{
anchors = (
{
name = b.uni0324_2;
position = "{242, 0}";
},
{
name = m.uni0308_1;
position = "{342, 700}";
}
);
layerId = "8F32FC6E-BE02-4CA7-9492-B77DE78BF7A2";
shapes = (
{
closed = 1;
nodes = (
(-20,0,l),
(155,0,l),
(193,265,l),
(247,265,l),
(326,0,l),
(527,0,l),
(423,293,l),
(497,329,o),
(545,394,o),
(558,481,cs),
(567,548,o),
(554,602,o),
(517,641,cs),
(479,680,o),
(425,700,o),
(354,700,cs),
(80,700,l)
);
},
{
closed = 1;
nodes = (
(213,406,l),
(234,550,l),
(325,550,ls),
(368,550,o),
(390,522,o),
(384,482,cs),
(377,435,o),
(348,406,o),
(304,406,cs)
);
}
);
width = 569;
},
{
anchors = (
{
name = b.uni0324_2;
position = "{184, 0}";
},
{
name = m.uni0308_1;
position = "{284, 700}";
}
);
layerId = "BECF1E07-6E55-4435-99B7-BB5ED0FBC597";
shapes = (
{
closed = 1;
nodes = (
(-7,0,l),
(118,0,l),
(158.142,281.,l),
(217.142,281.,l),
(265,0,l),
(396,0,l),
(334.428,304.,l),
(395.999,336.,o),
(429.571,396.,o),
(443.142,491.,cs),
(453.57,564.,o),
(447.285,618.,o),
(422.999,651.,c),
(397.57,683.,o),
(351.999,700.,o),
(283.999,700.,cs),
(92.999,700.,l)
);
},
{
closed = 1;
nodes = (
(173.999,392.,l),
(201.999,588.,l),
(265.999,588.,ls),
(316.999,588.,o),
(327.713,558.,o),
(318.142,491.,cs),
(308.428,423.,o),
(285.999,392.,o),
(237.999,392.,cs)
);
}
);
width = 452;
},
{
anchors = (
{
name = b.uni0324_2;
position = "{248, 0}";
},
{
name = m.uni0308_1;
position = "{348, 700}";
}
);
layerId = "C47A9308-35A1-4D64-9609-F04248EAE8DE";
shapes = (
{
closed = 1;
nodes = (
(1,0,l),
(136,0,l),
(175.,280,l),
(275.,280,l),
(370,0,l),
(525,0,l),
(413.143,300,l),
(497.914,331,o),
(552.685,397,o),
(565.942,489,cs),
(574.657,554,o),
(562.628,606,o),
(527.742,643,cs),
(491.914,681,o),
(438.999,700,o),
(369.999,700,cs),
(100.999,700,l)
);
},
{
closed = 1;
nodes = (
(193.343,391,l),
(216.314,583,l),
(343.314,583,ls),
(406.314,583,o),
(438.314,548,o),
(430.942,489,cs),
(423.4,427,o),
(383.343,391,o),
(320.343,391,cs)
);
}
);
width = 580;
},
{
anchors = (
{
name = b.uni0324_2;
position = "{120, 0}";
},
{
name = m.uni0308_1;
position = "{220, 700}";
}
);
layerId = "A5CA3E3F-63D1-490B-B4EA-8ECA27DB3C92";
shapes = (
{
closed = 1;
nodes = (
(15,0,l),
(89,0,l),
(132.714,306,l),
(245.714,306,l),
(318,0,l),
(396,0,l),
(318.428,318,l),
(390.714,341,o),
(433.428,402,o),
(447.713,502,cs),
(457.285,569,o),
(450.427,619,o),
(427.142,652,c),
(402.713,684,o),
(360.999,700,o),
(299.999,700,cs),
(114.999,700,l)
);
},
{
closed = 1;
nodes = (
(141.999,371,l),
(179.57,634,l),
(289.57,634,ls),
(362.57,634,o),
(386.713,593,o),
(373.713,502,cs),
(361.142,414,o),
(322.999,371,o),
(251.999,371,cs)
);
}
);
width = 465;
},
{
anchors = (
{
name = b.uni0324_2;
position = "{257, 0}";
},
{
name = m.uni0308_1;
position = "{357, 700}";
}
);
layerId = "BD06E2F8-4593-4D8E-97D3-0F0A9BC781C2";
shapes = (
{
closed = 1;
nodes = (
(32,0,l),
(107,0,l),
(150.285,303,l),
(320.285,303,l),
(436,0,l),
(522,0,l),
(400.285,310,l),
(499.571,333,o),
(564.285,401,o),
(578.571,501,cs),
(587.428,563,o),
(575.427,612,o),
(543.427,647,cs),
(510.427,682,o),
(460.999,700,o),
(393.999,700,cs),
(131.999,700,l)
);
},
{
closed = 1;
nodes = (
(159.571,368,l),
(197.285,632,l),
(378.285,632,ls),
(471.285,632,o),
(515.856,587,o),
(503.428,500,cs),
(491.428,416,o),
(432.571,368,o),
(340.571,368,cs)
);
}
);
width = 597;
},
{
anchors = (
{
name = b.uni0324_2;
position = "{265, 0}";
},
{
name = m.uni0308_1;
position = "{365, 700}";
}
);
layerId = "BED270ED-D05C-40FE-BC6A-D5F2DB2176C1";
shapes = (
{
closed = 1;
nodes = (
(55,0,l),
(90,0,l),
(135.428,318,l),
(351.428,318,l),
(482,0,l),
(522,0,l),
(393.285,317,l),
(502.714,334,o),
(573.714,404,o),
(588.713,509,cs),
(597.285,569,o),
(585.999,616,o),
(555.856,650,c),
(524.57,683,o),
(476.999,700,o),
(411.999,700,cs),
(154.999,700,l)
);
},
{
closed = 1;
nodes = (
(140.428,353,l),
(184.999,665,l),
(401.999,665,ls),
(514.999,665,o),
(568.427,612,o),
(553.428,507,cs),
(539.285,408,o),
(468.428,353,o),
(357.428,353,cs)
);
}
);
width = 612;
},
{
anchors = (
{
name = b.uni0324_2;
position = "{81, 0}";
},
{
name = m.uni0308_1;
position = "{181, 700}";
}
);
layerId = "624BE5E0-C167-4D60-8955-1CEBAB9BFDFE";
shapes = (
{
closed = 1;
nodes = (
(33,0,l),
(73,0,l),
(119.142,323,l),
(268.142,323,l),
(357,0,l),
(399,0,l),
(310.714,327,l),
(390.142,344,o),
(438.999,406,o),
(453.713,509,cs),
(462.713,572,o),
(455.57,620,o),
(433.142,652,cs),
(409.713,684,o),
(369.999,700,o),
(313.999,700,cs),
(132.999,700,l)
);
},
{
closed = 1;
nodes = (
(123.999,357,l),
(167.999,665,l),
(308.999,665,ls),
(396.999,665,o),
(428.999,616,o),
(413.713,509,cs),
(399.285,408,o),
(349.999,357,o),
(264.999,357,cs)
);
}
);
width = 481;
}
);
unicode = 82;
},
{
glyphname = S;
layers = (
{
anchors = (
{
name = b.uni0324_2;
position = "{207, 0}";
},
{
name = m.uni0308_1;
position = "{309, 700}";
}
);
layerId = "EB61547D-F7E1-476C-A885-D7B2C933109F";
shapes = (
{
closed = 1;
nodes = (
(285.714,-9,o),
(372.571,67,o),
(391.571,200,cs),
(407.428,311,o),
(374.999,371,o),
(281.856,419,cs),
(237.142,442,ls),
(202.571,459,o),
(189.428,479,o),
(194.713,516,cs),
(200.57,557,o),
(218.713,572,o),
(246.713,572,cs),
(282.713,572,o),
(288.57,550,o),
(280.142,498,c),
(276.428,472,l),
(421.428,472,l),
(425.142,498,l),
(440.142,631,o),
(383.142,708,o),
(266.142,708,cs),
(206.142,708,o),
(155.57,690,o),
(115.427,654,cs),
(74.142,617,o),
(49.285,569,o),
(40.713,509,cs),
(33.713,460,o),
(36.999,420,o),
(50.714,390,c),
(63.285,359,o),
(91.571,333,o),
(134.285,310,cs),
(183.714,285,ls),
(204.285,275,o),
(218.571,263,o),
(227.571,249,cs),
(235.571,235,o),
(238.142,218,o),
(235.142,197,cs),
(227.714,145,o),
(215.857,125,o),
(179.857,125,cs),
(146.857,125,o),
(133.571,151,o),
(140.142,204,c),
(142.571,221,l),
(-7.429,221,l),
(-9.858,204,l),
(-26.286,68,o),
(33.714,-9,o),
(157.714,-9,cs)
);
}
);
width = 414;
},
{
anchors = (
{
name = b.uni0324_2;
position = "{217, 0}";
},
{
name = m.uni0308_1;
position = "{317, 700}";
}
);
layerId = "8F32FC6E-BE02-4CA7-9492-B77DE78BF7A2";
shapes = (
{
closed = 1;
nodes = (
(373,-6,o),
(483,76,o),
(504,221,cs),
(519,332,o),
(470,400,o),
(349,423,cs),
(280,435,ls),
(228,444,o),
(206,466,o),
(211,502,cs),
(216,542,o),
(245,566,o),
(294,566,cs),
(346,566,o),
(369,542,o),
(363,491,c),
(360,472,l),
(525,472,l),
(528,491,l),
(543,626,o),
(467,708,o),
(319,708,cs),
(243,708,o),
(180,688,o),
(131,648,cs),
(80,608,o),
(50,555,o),
(41,489,cs),
(33,432,o),
(42,386,o),
(70,353,cs),
(99,320,o),
(145,297,o),
(213,285,cs),
(269,275,l),
(295,274,o),
(312,267,o),
(322,256,cs),
(330,245,o),
(333,228,o),
(330,207,cs),
(323,162,o),
(296,141,o),
(239,141,cs),
(175,141,o),
(152,161,o),
(148,210,c),
(150,224,l),
(-13,224,l),
(-15,210,l),
(-23,77,o),
(54,-6,o),
(210,-6,cs)
);
}
);
width = 518;
},
{
anchors = (
{
name = b.uni0324_2;
position = "{168, 0}";
},
{
name = m.uni0308_1;
position = "{268, 700}";
}
);
layerId = "BECF1E07-6E55-4435-99B7-BB5ED0FBC597";
shapes = (
{
closed = 1;
nodes = (
(284.857,-8,o),
(367.286,65,o),
(385.714,194,cs),
(401.142,302,o),
(367.428,360,o),
(274.714,404,cs),
(231.571,424,ls),
(181.856,447,o),
(164.428,472,o),
(171.285,520,cs),
(179.142,575,o),
(206.713,600,o),
(251.713,600,cs),
(300.713,600,o),
(316.57,571,o),
(308.428,507,c),
(304.713,481,l),
(419.713,481,l),
(423.428,507,l),
(437.856,636,o),
(382.142,708,o),
(267.142,708,cs),
(208.142,708,o),
(159.57,690,o),
(120.713,656,cs),
(80.57,620,o),
(56.856,573,o),
(48.428,514,cs),
(41.571,466,o),
(45.999,427,o),
(61.856,398,c),
(76.428,367,o),
(105.999,343,o),
(149.857,321,cs),
(194.857,300,ls),
(222.999,287,o),
(242.,273,o),
(252.714,257,cs),
(263.285,240,o),
(266.285,219,o),
(262.428,192,cs),
(253.143,127,o),
(229.,98,o),
(178.,98,cs),
(129.,98,o),
(107.714,131,o),
(115.428,199,c),
(117.571,214,l),
(-1.429,214,l),
(-3.572,199,l),
(-19.714,65,o),
(37.857,-8,o),
(159.857,-8,cs)
);
}
);
width = 418;
},
{
anchors = (
{
name = b.uni0324_2;
position = "{223, 0}";
},
{
name = m.uni0308_1;
position = "{323, 700}";
}
);
layerId = "C47A9308-35A1-4D64-9609-F04248EAE8DE";
shapes = (
{
closed = 1;
nodes = (
(371.657,-6,o),
(478.114,72,o),
(498.,210,c),
(513.285,320,o),
(464.,385,o),
(344.257,407,cs),
(271.,420,ls),
(206.685,432,o),
(179.285,460,o),
(185.028,508,cs),
(191.228,564,o),
(233.114,597,o),
(300.114,597,cs),
(369.114,597,o),
(401.342,566,o),
(396.571,500,c),
(393.428,480,l),
(522.428,480,l),
(525.571,500,l),
(535.114,632,o),
(462.457,708,o),
(322.457,708,cs),
(249.457,708,o),
(188.371,689,o),
(140.2,651,cs),
(91.028,613,o),
(62.114,562,o),
(53.457,498,cs),
(45.371,444,o),
(54.857,400,o),
(81.028,368,c),
(109.2,336,o),
(152.943,314,o),
(216.314,303,cs),
(280.686,292,l),
(314.457,288,o),
(336.943,279,o),
(351.086,264,c),
(363.228,249,o),
(368.028,228,o),
(364.428,200,cs),
(356.943,139,o),
(316.171,108,o),
(240.171,108,cs),
(161.171,108,o),
(127.943,139,o),
(124.714,205,c),
(126.4,217,l),
(-0.6,217,l),
(-2.286,205,l),
(-9.886,72,o),
(64.657,-6,o),
(213.657,-6,cs)
);
}
);
width = 529;
},
{
anchors = (
{
name = b.uni0324_2;
position = "{109, 0}";
},
{
name = m.uni0308_1;
position = "{207, 700}";
}
);
layerId = "A5CA3E3F-63D1-490B-B4EA-8ECA27DB3C92";
shapes = (
{
closed = 1;
nodes = (
(284.,-7,o),
(359.714,61,o),
(377.428,185,cs),
(392.285,289,o),
(355.142,344,o),
(263.428,381,cs),
(223.714,397,ls),
(151.142,428,o),
(126.999,462,o),
(136.142,526,cs),
(146.856,601,o),
(187.713,642,o),
(258.713,642,cs),
(327.713,642,o),
(358.142,603,o),
(351.285,520,c),
(347.713,495,l),
(417.713,495,l),
(421.285,520,l),
(433.999,644,o),
(380.142,708,o),
(269.142,708,cs),
(212.142,708,o),
(165.713,691,o),
(128.999,658,cs),
(91.142,624,o),
(68.713,579,o),
(60.57,522,cs),
(53.856,475,o),
(59.571,438,o),
(78.428,409,cs),
(96.285,380,o),
(127.999,357,o),
(173.285,338,cs),
(211.999,322,ls),
(250.571,305,o),
(276.999,287,o),
(291.285,268,c),
(304.428,248,o),
(308.428,220,o),
(303.285,184,cs),
(291.143,99,o),
(248.286,58,o),
(175.286,58,cs),
(102.286,58,o),
(69.428,101,o),
(78.428,192,c),
(80.,203,l),
(8.,203,l),
(6.428,192,l),
(-9.286,61,o),
(43.,-7,o),
(163.,-7,cs)
);
}
);
width = 424;
},
{
anchors = (
{
name = b.uni0324_2;
position = "{232, 0}";
},
{
name = m.uni0308_1;
position = "{332, 700}";
}
);
layerId = "BD06E2F8-4593-4D8E-97D3-0F0A9BC781C2";
shapes = (
{
closed = 1;
nodes = (
(369.143,-6,o),
(469.571,67,o),
(487.714,194,cs),
(503.285,303,o),
(450.856,363,o),
(333.714,383,cs),
(254.714,397,ls),
(172.999,413,o),
(138.285,450,o),
(147.856,517,cs),
(159.285,597,o),
(221.999,644,o),
(316.999,644,cs),
(409.999,644,o),
(453.856,601,o),
(449.428,514,c),
(446.285,492,l),
(520.285,492,l),
(523.428,514,l),
(525.713,642,o),
(455.142,708,o),
(327.142,708,cs),
(258.142,708,o),
(200.713,691,o),
(155.713,656,cs),
(109.713,621,o),
(82.856,573,o),
(74.142,512,cs),
(66.856,461,o),
(75.999,420,o),
(101.714,390,cs),
(127.428,360,o),
(168.571,340,o),
(224.142,330,c),
(302.428,318,l),
(346.285,310,o),
(377.285,296,o),
(395.428,276,cs),
(413.571,256,o),
(419.428,227,o),
(414.,189,cs),
(402.,105,o),
(339.286,58,o),
(234.286,58,cs),
(134.286,58,o),
(87.,105,o),
(89.142,197,c),
(90.428,206,l),
(17.428,206,l),
(16.142,197,l),
(8.143,64,o),
(80.143,-6,o),
(220.143,-6,cs)
);
}
);
width = 545;
},
{
anchors = (
{
name = b.uni0324_2;
position = "{239, 0}";
},
{
name = m.uni0308_1;
position = "{339, 700}";
}
);
layerId = "BED270ED-D05C-40FE-BC6A-D5F2DB2176C1";
shapes = (
{
closed = 1;
nodes = (
(369.143,-6,o),
(465.143,64,o),
(482.143,183,cs),
(497.714,292,o),
(444.714,348,o),
(328.428,367,cs),
(245.571,382,l),
(152.285,401,o),
(112.428,444,o),
(123.713,523,cs),
(137.427,619,o),
(214.427,675,o),
(327.427,675,cs),
(436.427,675,o),
(488.142,624,o),
(484.713,523,c),
(481.428,500,l),
(519.428,500,l),
(522.713,523,l),
(519.57,648,o),
(451.142,708,o),
(331.142,708,cs),
(264.142,708,o),
(209.856,692,o),
(166.142,659,cs),
(122.427,626,o),
(96.856,580,o),
(88.428,521,cs),
(81.428,472,o),
(90.999,434,o),
(115.856,405,cs),
(140.714,376,o),
(177.999,357,o),
(229.714,348,c),
(316.857,335,l),
(367.285,324,o),
(403.857,307,o),
(425.571,284,cs),
(447.285,261,o),
(455.428,227,o),
(449.,182,cs),
(434.714,82,o),
(357.571,25,o),
(233.571,25,cs),
(118.571,25,o),
(61.857,83,o),
(66.428,192,c),
(67.428,199,l),
(30.428,199,l),
(29.428,192,l),
(21.428,59,o),
(92.143,-6,o),
(225.143,-6,cs)
);
}
);
width = 558;
},
{
anchors = (
{
name = b.uni0324_2;
position = "{74, 0}";
},
{
name = m.uni0308_1;
position = "{170, 700}";
}
);
layerId = "624BE5E0-C167-4D60-8955-1CEBAB9BFDFE";
shapes = (
{
closed = 1;
nodes = (
(288.143,-6,o),
(358.428,59,o),
(375.571,179,cs),
(389.999,280,o),
(351.571,333,o),
(260.285,366,cs),
(222.142,379,l),
(134.285,415,o),
(105.999,455,o),
(116.713,530,cs),
(129.285,618,o),
(179.713,670,o),
(267.713,670,cs),
(350.713,670,o),
(389.142,624,o),
(383.57,529,c),
(379.999,504,l),
(419.999,504,l),
(423.57,529,l),
(435.713,649,o),
(382.142,708,o),
(274.142,708,cs),
(219.142,708,o),
(173.856,692,o),
(138.142,659,cs),
(102.427,626,o),
(80.142,582,o),
(72.285,527,cs),
(65.856,482,o),
(72.571,445,o),
(93.571,417,cs),
(113.571,389,o),
(146.285,366,o),
(192.857,349,cs),
(227.142,337,l),
(273.428,318,o),
(304.428,297,o),
(320.285,275,cs),
(336.142,253,o),
(340.571,221,o),
(334.571,179,cs),
(320.428,80,o),
(265.429,31,o),
(177.429,31,cs),
(88.429,31,o),
(47.714,82,o),
(57.714,187,c),
(59.,196,l),
(18.,196,l),
(16.714,187,l),
(1.428,59,o),
(50.143,-6,o),
(169.143,-6,cs)
);
}
);
width = 436;
}
);
unicode = 83;
},
{
glyphname = Scedilla;
layers = (
{
anchors = (
{
name = b.uni0324_2;
position = "{151, -167}";
},
{
name = m.uni0308_1;
position = "{309, 700}";
}
);
layerId = "EB61547D-F7E1-476C-A885-D7B2C933109F";
shapes = (
{
closed = 1;
nodes = (
(35,-220,l),
(109,-220,l),
(182,-222,o),
(232,-186,o),
(240,-131,c),
(250,-75,o),
(229,-40,o),
(172,-34,c),
(184,-8,l),
(297,2,o),
(374,76,o),
(392,200,cs),
(407,311,o),
(375,371,o),
(282,419,cs),
(237,442,ls),
(203,459,o),
(189,479,o),
(195,516,cs),
(201,557,o),
(219,572,o),
(247,572,cs),
(283,572,o),
(289,550,o),
(280,498,c),
(276,472,l),
(421,472,l),
(425,498,l),
(440,631,o),
(383,708,o),
(266,708,cs),
(206,708,o),
(156,690,o),
(115,654,cs),
(74,617,o),
(49,569,o),
(41,509,cs),
(34,460,o),
(37,420,o),
(51,390,c),
(63,359,o),
(92,333,o),
(134,310,cs),
(184,285,ls),
(204,275,o),
(219,263,o),
(228,249,cs),
(236,235,o),
(238,218,o),
(235,197,cs),
(228,145,o),
(216,125,o),
(180,125,cs),
(147,125,o),
(134,151,o),
(140,204,c),
(143,221,l),
(-7,221,l),
(-10,204,l),
(-23,88,o),
(18,15,o),
(107,-4,c),
(87,-52,l),
(82,-85,l),
(128,-85,ls),
(145,-85,o),
(166,-93,o),
(163,-113,cs),
(160,-132,o),
(133,-133,o),
(121,-133,cs),
(47,-133,l)
);
}
);
width = 414;
},
{
anchors = (
{
name = b.uni0324_2;
position = "{164, -160}";
},
{
name = m.uni0308_1;
position = "{317, 700}";
}
);
layerId = "8F32FC6E-BE02-4CA7-9492-B77DE78BF7A2";
shapes = (
{
closed = 1;
nodes = (
(110,-220,l),
(184,-220,l),
(257,-222,o),
(307,-186,o),
(315,-131,c),
(325,-75,o),
(304,-40,o),
(247,-34,c),
(262,-3,l),
(396,13,o),
(485,92,o),
(504,221,cs),
(519,332,o),
(470,400,o),
(349,423,cs),
(280,435,ls),
(228,444,o),
(206,466,o),
(211,502,cs),
(216,542,o),
(245,566,o),
(294,566,cs),
(346,566,o),
(369,542,o),
(363,491,c),
(360,472,l),
(525,472,l),
(528,491,l),
(543,626,o),
(467,708,o),
(319,708,cs),
(243,708,o),
(180,688,o),
(131,648,cs),
(80,608,o),
(50,555,o),
(41,489,cs),
(33,432,o),
(42,386,o),
(70,353,cs),
(99,320,o),
(145,297,o),
(213,285,cs),
(269,275,l),
(295,274,o),
(312,267,o),
(322,256,cs),
(330,245,o),
(333,228,o),
(330,207,cs),
(323,162,o),
(296,141,o),
(239,141,cs),
(175,141,o),
(152,161,o),
(148,210,c),
(150,224,l),
(-13,224,l),
(-15,210,l),
(-23,85,o),
(45,4,o),
(182,-5,c),
(162,-52,l),
(157,-85,l),
(203,-85,ls),
(220,-85,o),
(241,-93,o),
(238,-113,cs),
(235,-132,o),
(208,-133,o),
(196,-133,cs),
(122,-133,l)
);
}
);
width = 518;
},
{
anchors = (
{
name = b.uni0324_2;
position = "{108, -168}";
},
{
name = m.uni0308_1;
position = "{268, 700}";
}
);
layerId = "BECF1E07-6E55-4435-99B7-BB5ED0FBC597";
shapes = (
{
closed = 1;
nodes = (
(50,-220,l),
(118,-220,l),
(186,-221,o),
(240,-190,o),
(249,-131,c),
(258,-76,o),
(235,-43,o),
(180,-37,c),
(193,-6,l),
(299,6,o),
(369,76,o),
(386,194,cs),
(401,302,o),
(367,360,o),
(274,404,cs),
(232,424,ls),
(182,447,o),
(164,472,o),
(171,520,cs),
(179,575,o),
(207,600,o),
(252,600,cs),
(301,600,o),
(317,571,o),
(308,507,cs),
(305,481,l),
(420,481,l),
(423,507,l),
(438,636,o),
(382,708,o),
(267,708,cs),
(208,708,o),
(160,690,o),
(121,656,cs),
(81,620,o),
(57,573,o),
(49,514,cs),
(42,466,o),
(46,427,o),
(62,398,c),
(76,367,o),
(106,343,o),
(150,321,c),
(195,300,ls),
(223,287,o),
(242,273,o),
(253,257,c),
(263,240,o),
(266,219,o),
(262,192,cs),
(253,127,o),
(229,98,o),
(178,98,cs),
(129,98,o),
(108,131,o),
(115,199,c),
(118,214,l),
(-1,214,l),
(-4,199,l),
(-17,81,o),
(25,10,o),
(119,-5,c),
(100,-50,l),
(95,-85,l),
(137,-85,ls),
(158,-85,o),
(183,-93,o),
(179,-117,cs),
(176,-139,o),
(146,-143,o),
(129,-143,cs),
(61,-143,l)
);
}
);
width = 418;
},
{
anchors = (
{
name = b.uni0324_2;
position = "{170, -160}";
},
{
name = m.uni0308_1;
position = "{323, 700}";
}
);
layerId = "C47A9308-35A1-4D64-9609-F04248EAE8DE";
shapes = (
{
closed = 1;
nodes = (
(120,-220,l),
(188,-220,l),
(256,-221,o),
(310,-190,o),
(319,-131,c),
(328,-76,o),
(305,-43,o),
(249,-37,c),
(265,-3,l),
(394,13,o),
(480,88,o),
(498,210,cs),
(513,320,o),
(462,385,o),
(343,407,cs),
(270,420,ls),
(206,432,o),
(179,460,o),
(186,508,cs),
(193,564,o),
(236,597,o),
(303,597,cs),
(372,597,o),
(403,566,o),
(397,500,c),
(394,480,l),
(523,480,l),
(526,500,l),
(536,632,o),
(462,708,o),
(322,708,cs),
(249,708,o),
(188,689,o),
(141,651,cs),
(92,613,o),
(63,562,o),
(54,498,cs),
(47,444,o),
(56,400,o),
(83,368,cs),
(110,336,o),
(155,314,o),
(217,303,cs),
(282,292,l),
(315,288,o),
(338,279,o),
(351,264,cs),
(364,249,o),
(367,228,o),
(364,200,c),
(355,139,o),
(313,108,o),
(237,108,cs),
(159,108,o),
(126,139,o),
(124,205,c),
(126,217,l),
(-1,217,l),
(-3,205,l),
(-11,79,o),
(56,3,o),
(189,-5,c),
(170,-50,l),
(165,-85,l),
(207,-85,ls),
(228,-85,o),
(253,-93,o),
(249,-117,cs),
(246,-139,o),
(216,-143,o),
(198,-143,cs),
(131,-143,l)
);
}
);
width = 529;
},
{
anchors = (
{
name = b.uni0324_2;
position = "{43, -170}";
},
{
name = m.uni0308_1;
position = "{207, 700}";
}
);
layerId = "A5CA3E3F-63D1-490B-B4EA-8ECA27DB3C92";
shapes = (
{
closed = 1;
nodes = (
(73,-220,l),
(131,-220,ls),
(193,-220,o),
(253,-197,o),
(262,-131,cs),
(270,-78,o),
(244,-47,o),
(191,-42,c),
(207,-4,l),
(303,11,o),
(362,77,o),
(377,185,cs),
(392,289,o),
(355,344,o),
(263,381,cs),
(224,397,ls),
(151,428,o),
(127,462,o),
(136,526,cs),
(147,601,o),
(188,642,o),
(259,642,cs),
(328,642,o),
(358,603,o),
(351,520,c),
(348,495,l),
(418,495,l),
(421,520,l),
(434,644,o),
(380,708,o),
(269,708,cs),
(212,708,o),
(166,691,o),
(129,658,cs),
(91,624,o),
(69,579,o),
(61,522,cs),
(54,475,o),
(60,438,o),
(78,409,cs),
(96,380,o),
(128,357,o),
(173,338,cs),
(212,322,ls),
(251,305,o),
(277,287,o),
(291,268,c),
(304,248,o),
(308,220,o),
(303,184,cs),
(291,99,o),
(248,58,o),
(175,58,cs),
(102,58,o),
(69,101,o),
(78,192,c),
(80,203,l),
(8,203,l),
(6,192,l),
(-8,71,o),
(35,3,o),
(137,-6,c),
(119,-48,l),
(114,-85,l),
(150,-85,ls),
(177,-85,o),
(209,-94,o),
(204,-123,cs),
(201,-150,o),
(166,-157,o),
(140,-157,cs),
(82,-157,l)
);
}
);
width = 424;
},
{
anchors = (
{
name = b.uni0324_2;
position = "{179, -160}";
},
{
name = m.uni0308_1;
position = "{332, 700}";
}
);
layerId = "BD06E2F8-4593-4D8E-97D3-0F0A9BC781C2";
shapes = (
{
closed = 1;
nodes = (
(135,-220,l),
(193,-220,ls),
(255,-220,o),
(315,-197,o),
(324,-131,cs),
(332,-78,o),
(306,-47,o),
(253,-42,c),
(270,-3,l),
(391,12,o),
(472,82,o),
(488,194,cs),
(503,303,o),
(451,363,o),
(334,383,cs),
(255,397,ls),
(173,413,o),
(138,450,o),
(148,517,cs),
(159,597,o),
(222,644,o),
(317,644,cs),
(410,644,o),
(454,601,o),
(449,514,c),
(446,492,l),
(520,492,l),
(523,514,l),
(526,642,o),
(455,708,o),
(327,708,cs),
(258,708,o),
(201,691,o),
(156,656,cs),
(110,621,o),
(83,573,o),
(74,512,cs),
(67,461,o),
(76,420,o),
(102,390,cs),
(127,360,o),
(169,340,o),
(224,330,c),
(302,318,l),
(346,310,o),
(377,296,o),
(395,276,cs),
(414,256,o),
(419,227,o),
(414,189,cs),
(402,105,o),
(339,58,o),
(234,58,cs),
(134,58,o),
(87,105,o),
(89,197,c),
(90,206,l),
(17,206,l),
(16,197,l),
(8,71,o),
(73,2,o),
(199,-5,c),
(181,-48,l),
(176,-85,l),
(212,-85,ls),
(239,-85,o),
(271,-94,o),
(266,-123,cs),
(263,-150,o),
(228,-157,o),
(202,-157,cs),
(144,-157,l)
);
}
);
width = 545;
},
{
anchors = (
{
name = b.uni0324_2;
position = "{186, -160}";
},
{
name = m.uni0308_1;
position = "{339, 700}";
}
);
layerId = "BED270ED-D05C-40FE-BC6A-D5F2DB2176C1";
shapes = (
{
closed = 1;
nodes = (
(139,-220,l),
(186,-220,l),
(254,-221,o),
(309,-192,o),
(316,-138,cs),
(323,-90,o),
(290,-58,o),
(226,-54,c),
(247,-5,l),
(378,2,o),
(466,70,o),
(482,183,cs),
(498,292,o),
(445,348,o),
(328,367,cs),
(246,382,l),
(152,401,o),
(112,444,o),
(124,523,cs),
(137,619,o),
(214,675,o),
(327,675,cs),
(436,675,o),
(488,624,o),
(485,523,c),
(481,500,l),
(519,500,l),
(523,523,l),
(520,648,o),
(451,708,o),
(331,708,cs),
(264,708,o),
(210,692,o),
(166,659,cs),
(122,626,o),
(97,580,o),
(88,521,cs),
(81,472,o),
(91,434,o),
(116,405,cs),
(141,376,o),
(178,357,o),
(230,348,c),
(317,335,l),
(367,324,o),
(404,307,o),
(426,284,cs),
(447,261,o),
(455,227,o),
(449,182,cs),
(435,82,o),
(358,25,o),
(234,25,cs),
(119,25,o),
(62,83,o),
(66,192,c),
(67,199,l),
(30,199,l),
(29,192,l),
(22,63,o),
(88,-3,o),
(214,-6,c),
(189,-61,l),
(186,-83,l),
(205,-83,ls),
(254,-83,o),
(289,-101,o),
(284,-135,cs),
(279,-169,o),
(239,-186,o),
(190,-186,cs),
(143,-186,l)
);
}
);
width = 558;
},
{
anchors = (
{
name = b.uni0324_2;
position = "{4, -171}";
},
{
name = m.uni0308_1;
position = "{170, 700}";
}
);
layerId = "624BE5E0-C167-4D60-8955-1CEBAB9BFDFE";
shapes = (
{
closed = 1;
nodes = (
(87,-220,l),
(134,-220,l),
(202,-221,o),
(257,-192,o),
(264,-138,cs),
(271,-90,o),
(238,-58,o),
(174,-54,c),
(196,-5,l),
(299,4,o),
(360,68,o),
(376,179,cs),
(390,280,o),
(352,333,o),
(260,366,cs),
(222,379,l),
(134,415,o),
(106,455,o),
(117,530,cs),
(129,618,o),
(180,670,o),
(268,670,cs),
(351,670,o),
(389,624,o),
(384,529,c),
(380,504,l),
(420,504,l),
(424,529,l),
(436,649,o),
(382,708,o),
(274,708,cs),
(219,708,o),
(174,692,o),
(138,659,cs),
(102,626,o),
(80,582,o),
(72,527,cs),
(66,482,o),
(73,445,o),
(94,417,cs),
(114,389,o),
(146,366,o),
(193,349,cs),
(227,337,l),
(273,318,o),
(304,297,o),
(320,275,cs),
(336,253,o),
(341,221,o),
(335,179,cs),
(320,80,o),
(265,31,o),
(177,31,cs),
(88,31,o),
(48,82,o),
(58,187,c),
(59,196,l),
(18,196,l),
(17,187,l),
(2,61,o),
(48,-4,o),
(162,-6,c),
(137,-61,l),
(134,-83,l),
(153,-83,ls),
(202,-83,o),
(237,-101,o),
(232,-135,cs),
(227,-169,o),
(187,-186,o),
(138,-186,cs),
(91,-186,l)
);
}
);
width = 436;
}
);
unicode = 350;
},
{
glyphname = Germandbls;
layers = (
{
anchors = (
{
name = b.uni0324_2;
position = "{343, 0}";
},
{
name = m.uni0308_1;
position = "{443, 702}";
}
);
layerId = "EB61547D-F7E1-476C-A885-D7B2C933109F";
shapes = (
{
closed = 1;
nodes = (
(172,-3,l),
(277,-3,ls),
(453,-3,o),
(546,30,o),
(573,217,cs),
(591,342,o),
(507,410,o),
(388,416,cs),
(368,417,l),
(358,349,l),
(563,570,l),
(522,659,o),
(426,716,o),
(323,714,cs),
(165,712,o),
(62,632,o),
(40,474,cs),
(-28,1,l),
(124,1,l),
(191,471,ls),
(197,513,o),
(210,572,o),
(270,572,cs),
(330,572,o),
(374,558,o),
(383,547,c),
(392,583,l),
(223,401,l),
(207,288,l),
(330,288,ls),
(376,288,o),
(428,275,o),
(420,219,cs),
(412,162,o),
(360,147,o),
(313,147,cs),
(193,147,l)
);
}
);
width = 588;
},
{
anchors = (
{
name = b.uni0324_2;
position = "{320, 0}";
},
{
name = m.uni0308_1;
position = "{421, 707}";
}
);
layerId = "8F32FC6E-BE02-4CA7-9492-B77DE78BF7A2";
shapes = (
{
closed = 1;
nodes = (
(273,-3,l),
(401,-3,ls),
(573,-3,o),
(739,12,o),
(768,219,cs),
(793,389,o),
(655,428,o),
(510,428,cs),
(485,428,l),
(477,322,l),
(741,595,l),
(686,676,o),
(513,713,o),
(413,714,cs),
(227,715,o),
(99,669,o),
(70,470,cs),
(3,1,l),
(177,1,l),
(243,464,ls),
(256,555,o),
(316,549,o),
(389,549,cs),
(456,549,o),
(506,546,o),
(514,543,c),
(520,556,l),
(346,365,l),
(334,278,l),
(463,278,ls),
(499,278,o),
(603,278,o),
(595,222,cs),
(585,152,o),
(502,167,o),
(452,167,cs),
(297,167,l)
);
}
);
width = 807;
},
{
anchors = (
{
name = b.uni0324_2;
position = "{297, 0}";
},
{
name = m.uni0308_1;
position = "{397, 707}";
}
);
layerId = "BECF1E07-6E55-4435-99B7-BB5ED0FBC597";
shapes = (
{
closed = 1;
nodes = (
(163,-3,l),
(257,-3,ls),
(415,-3,o),
(498,49,o),
(521,210,cs),
(539,334,o),
(466,403,o),
(346,404,c),
(326,404,l),
(323,359,l),
(511,581,l),
(478,660,o),
(401,715,o),
(309,714,cs),
(160,714,o),
(76,619,o),
(56,479,cs),
(-12,1,l),
(106,1,l),
(175,481,ls),
(183,535,o),
(203,604,o),
(274,604,cs),
(327,604,o),
(367,584,o),
(377,560,c),
(384,593,l),
(222,402,l),
(208,305,l),
(311,305,ls),
(370,305,o),
(410,272,o),
(401,210,cs),
(392,145,o),
(348,114,o),
(287,114,cs),
(179,114,l)
);
}
);
width = 552;
},
{
anchors = (
{
name = b.uni0324_2;
position = "{329, 0}";
},
{
name = m.uni0308_1;
position = "{430, 707}";
}
);
layerId = "C47A9308-35A1-4D64-9609-F04248EAE8DE";
shapes = (
{
closed = 1;
nodes = (
(248,-3,l),
(366,-3,ls),
(538,-3,o),
(666,17,o),
(693,211,cs),
(717,375,o),
(597,415,o),
(456,415,cs),
(431,415,l),
(420,330,l),
(674,600,l),
(623,677,o),
(481,713,o),
(386,714,cs),
(212,715,o),
(106,654,o),
(80,477,cs),
(12,1,l),
(144,1,l),
(212,477,ls),
(226,573,o),
(284,590,o),
(368,590,cs),
(436,590,o),
(492,580,o),
(508,564,c),
(513,580,l),
(330,372,l),
(320,299,l),
(429,299,ls),
(487,299,o),
(572,286,o),
(562,212,cs),
(549,124,o),
(478,126,o),
(408,126,cs),
(266,126,l)
);
}
);
width = 743;
},
{
anchors = (
{
name = b.uni0324_2;
position = "{227, 0}";
},
{
name = m.uni0308_1;
position = "{329, 714}";
}
);
layerId = "A5CA3E3F-63D1-490B-B4EA-8ECA27DB3C92";
shapes = (
{
closed = 1;
nodes = (
(149,-3,l),
(226,-3,ls),
(359,-3,o),
(425,77,o),
(442,199,cs),
(460,323,o),
(404,392,o),
(283,386,cs),
(262,385,l),
(270,374,l),
(433,597,l),
(412,662,o),
(364,713,o),
(289,714,cs),
(152,716,o),
(97,600,o),
(81,487,cs),
(11,1,l),
(80,1,l),
(151,496,ls),
(161,569,o),
(193,652,o),
(280,652,cs),
(322,652,o),
(356,624,o),
(367,579,c),
(372,607,l),
(220,403,l),
(209,330,l),
(283,330,ls),
(362,330,o),
(383,268,o),
(373,197,cs),
(362,119,o),
(330,64,o),
(247,64,cs),
(158,64,l)
);
}
);
width = 499;
},
{
anchors = (
{
name = b.uni0324_2;
position = "{343, 0}";
},
{
name = m.uni0308_1;
position = "{444, 707}";
}
);
layerId = "BD06E2F8-4593-4D8E-97D3-0F0A9BC781C2";
shapes = (
{
closed = 1;
nodes = (
(211,-3,l),
(314,-3,ls),
(485,-3,o),
(556,24,o),
(581,199,cs),
(603,353,o),
(509,396,o),
(375,396,cs),
(351,396,l),
(335,342,l),
(574,607,l),
(529,679,o),
(434,714,o),
(346,714,cs),
(189,714,o),
(116,632,o),
(96,487,cs),
(26,1,l),
(95,1,l),
(166,496,ls),
(181,600,o),
(235,652,o),
(337,652,cs),
(407,652,o),
(471,630,o),
(499,596,c),
(502,616,l),
(307,383,l),
(299,330,l),
(378,330,ls),
(470,330,o),
(526,297,o),
(512,197,cs),
(496,82,o),
(441,64,o),
(343,64,cs),
(220,64,l)
);
}
);
width = 646;
},
{
anchors = (
{
name = b.uni0324_2;
position = "{352, 0}";
},
{
name = m.uni0308_1;
position = "{453, 707}";
}
);
layerId = "BED270ED-D05C-40FE-BC6A-D5F2DB2176C1";
shapes = (
{
closed = 1;
nodes = (
(185,-3,l),
(279,-3,ls),
(427,-3,o),
(487,48,o),
(507,187,cs),
(528,333,o),
(479,379,o),
(307,379,cs),
(299,379,l),
(297,358,l),
(513,618,l),
(467,678,o),
(402,714,o),
(320,714,c),
(184,711,o),
(124,623,o),
(105,493,cs),
(35,1,l),
(65,1,l),
(138,508,ls),
(152,608,o),
(209,689,o),
(316,689,cs),
(384,689,o),
(449,649,o),
(484,605,c),
(487,627,l),
(289,391,l),
(283,349,l),
(344,349,ls),
(453,349,o),
(491,294,o),
(476,188,cs),
(459,71,o),
(410,27,o),
(300,27,cs),
(189,27,l)
);
}
);
width = 582;
},
{
anchors = (
{
name = b.uni0324_2;
position = "{184, 0}";
},
{
name = m.uni0308_1;
position = "{287, 719}";
}
);
layerId = "624BE5E0-C167-4D60-8955-1CEBAB9BFDFE";
shapes = (
{
closed = 1;
nodes = (
(143,-3,l),
(209,-3,ls),
(326,-3,o),
(379,93,o),
(393,192,cs),
(412,324,o),
(366,382,o),
(241,382,cs),
(222,382,l),
(238,367,l),
(397,608,l),
(376,664,o),
(348,714,o),
(279,714,cs),
(177,714,o),
(122,646,o),
(100,492,cs),
(30,1,l),
(62,1,l),
(136,516,ls),
(153,635,o),
(198,682,o),
(287,682,cs),
(322,682,o),
(351,638,o),
(362,586,c),
(366,616,l),
(222,404,l),
(214,347,l),
(268,347,ls),
(354,347,o),
(368,259,o),
(358,188,cs),
(346,104,o),
(320,31,o),
(224,31,cs),
(147,31,l)
);
}
);
width = 470;
}
);
unicode = 7838;
},
{
glyphname = T;
layers = (
{
anchors = (
{
name = b.uni0324_2;
position = "{194, 0}";
},
{
name = m.uni0308_1;
position = "{294, 700}";
}
);
layerId = "EB61547D-F7E1-476C-A885-D7B2C933109F";
shapes = (
{
closed = 1;
nodes = (
(68,0,l),
(227,0,l),
(306.285,555,l),
(412.285,555,l),
(432.999,700,l),
(59.999,700,l),
(39.285,555,l),
(147.285,555,l)
);
}
);
width = 377;
},
{
anchors = (
{
name = b.uni0324_2;
position = "{202, 0}";
},
{
name = m.uni0308_1;
position = "{302, 700}";
}
);
layerId = "8F32FC6E-BE02-4CA7-9492-B77DE78BF7A2";
shapes = (
{
closed = 1;
nodes = (
(119,0,l),
(297,0,l),
(376,550,l),
(542,550,l),
(563,700,l),
(54,700,l),
(33,550,l),
(198,550,l)
);
}
);
width = 501;
},
{
anchors = (
{
name = b.uni0324_2;
position = "{156, 0}";
},
{
name = m.uni0308_1;
position = "{256, 700}";
}
);
layerId = "BECF1E07-6E55-4435-99B7-BB5ED0FBC597";
shapes = (
{
closed = 1;
nodes = (
(85,0,l),
(210,0,l),
(293.713,586,l),
(415.713,586,l),
(431.999,700,l),
(61.999,700,l),
(45.713,586,l),
(168.713,586,l)
);
}
);
width = 378;
},
{
anchors = (
{
name = b.uni0324_2;
position = "{207, 0}";
},
{
name = m.uni0308_1;
position = "{307, 700}";
}
);
layerId = "C47A9308-35A1-4D64-9609-F04248EAE8DE";
shapes = (
{
closed = 1;
nodes = (
(139,0,l),
(275,0,l),
(356.314,583,l),
(536.314,583,l),
(554.999,700,l),
(58.999,700,l),
(39.314,583,l),
(219.314,583,l)
);
}
);
width = 499;
},
{
anchors = (
{
name = b.uni0324_2;
position = "{99, 0}";
},
{
name = m.uni0308_1;
position = "{199, 700}";
}
);
layerId = "A5CA3E3F-63D1-490B-B4EA-8ECA27DB3C92";
shapes = (
{
closed = 1;
nodes = (
(111,0,l),
(184,0,l),
(274.427,633,l),
(420.427,633,l),
(429.999,700,l),
(64.999,700,l),
(55.427,633,l),
(201.427,633,l)
);
}
);
width = 379;
},
{
anchors = (
{
name = b.uni0324_2;
position = "{215, 0}";
},
{
name = m.uni0308_1;
position = "{315, 700}";
}
);
layerId = "BD06E2F8-4593-4D8E-97D3-0F0A9BC781C2";
shapes = (
{
closed = 1;
nodes = (
(169,0,l),
(243,0,l),
(333.285,632,l),
(534.285,632,l),
(543.999,700,l),
(66.999,700,l),
(57.285,632,l),
(259.285,632,l)
);
}
);
width = 495;
},
{
anchors = (
{
name = b.uni0324_2;
position = "{222, 0}";
},
{
name = m.uni0308_1;
position = "{322, 700}";
}
);
layerId = "BED270ED-D05C-40FE-BC6A-D5F2DB2176C1";
shapes = (
{
closed = 1;
nodes = (
(191,0,l),
(223,0,l),
(317.999,665,l),
(532.999,665,l),
(537.999,700,l),
(73.999,700,l),
(68.999,665,l),
(285.999,665,l)
);
}
);
width = 496;
},
{
anchors = (
{
name = b.uni0324_2;
position = "{64, 0}";
},
{
name = m.uni0308_1;
position = "{164, 700}";
}
);
layerId = "624BE5E0-C167-4D60-8955-1CEBAB9BFDFE";
shapes = (
{
closed = 1;
nodes = (
(131,0,l),
(170,0,l),
(264.856,664,l),
(426.856,664,l),
(431.999,700,l),
(69.999,700,l),
(64.856,664,l),
(225.856,664,l)
);
}
);
width = 386;
}
);
leftKerningGroup = T;
unicode = 84;
},
{
glyphname = Tcedilla;
layers = (
{
anchors = (
{
name = b.uni0324_2;
position = "{138, -167}";
},
{
name = m.uni0308_1;
position = "{294, 700}";
}
);
layerId = "EB61547D-F7E1-476C-A885-D7B2C933109F";
shapes = (
{
closed = 1;
nodes = (
(35,-220,l),
(109,-220,l),
(182,-222,o),
(232,-186,o),
(240,-131,c),
(250,-75,o),
(229,-40,o),
(172,-34,c),
(187,0,l),
(227,0,l),
(306,555,l),
(412,555,l),
(433,700,l),
(60,700,l),
(39,555,l),
(147,555,l),
(68,0,l),
(109,0,l),
(87,-52,l),
(82,-85,l),
(128,-85,ls),
(145,-85,o),
(166,-93,o),
(163,-113,cs),
(160,-132,o),
(133,-133,o),
(121,-133,cs),
(47,-133,l)
);
}
);
width = 377;
},
{
anchors = (
{
name = b.uni0324_2;
position = "{149, -160}";
},
{
name = m.uni0308_1;
position = "{302, 700}";
}
);
layerId = "8F32FC6E-BE02-4CA7-9492-B77DE78BF7A2";
shapes = (
{
closed = 1;
nodes = (
(101,-220,l),
(175,-220,l),
(248,-222,o),
(298,-186,o),
(306,-131,c),
(316,-75,o),
(295,-40,o),
(238,-34,c),
(253,0,l),
(297,0,l),
(376,550,l),
(542,550,l),
(563,700,l),
(54,700,l),
(33,550,l),
(198,550,l),
(119,0,l),
(175,0,l),
(153,-52,l),
(148,-85,l),
(194,-85,ls),
(211,-85,o),
(232,-93,o),
(229,-113,cs),
(226,-132,o),
(199,-133,o),
(187,-133,cs),
(113,-133,l)
);
}
);
width = 501;
},
{
anchors = (
{
name = b.uni0324_2;
position = "{96, -168}";
},
{
name = m.uni0308_1;
position = "{256, 700}";
}
);
layerId = "BECF1E07-6E55-4435-99B7-BB5ED0FBC597";
shapes = (
{
closed = 1;
nodes = (
(39,-220,l),
(107,-220,l),
(176,-221,o),
(230,-190,o),
(238,-131,c),
(247,-76,o),
(224,-43,o),
(169,-37,c),
(185,0,l),
(210,0,l),
(293,586,l),
(415,586,l),
(432,700,l),
(62,700,l),
(45,586,l),
(169,586,l),
(85,0,l),
(111,0,l),
(89,-50,l),
(84,-85,l),
(126,-85,ls),
(147,-85,o),
(172,-93,o),
(169,-117,cs),
(166,-139,o),
(135,-143,o),
(118,-143,cs),
(50,-143,l)
);
}
);
width = 378;
},
{
anchors = (
{
name = b.uni0324_2;
position = "{154, -160}";
},
{
name = m.uni0308_1;
position = "{307, 700}";
}
);
layerId = "C47A9308-35A1-4D64-9609-F04248EAE8DE";
shapes = (
{
closed = 1;
nodes = (
(103,-220,l),
(170,-220,l),
(239,-221,o),
(293,-190,o),
(301,-131,c),
(310,-76,o),
(287,-43,o),
(232,-37,c),
(248,0,l),
(275,0,l),
(359,583,l),
(539,583,l),
(555,700,l),
(59,700,l),
(43,583,l),
(222,583,l),
(139,0,l),
(174,0,l),
(152,-50,l),
(147,-85,l),
(189,-85,ls),
(210,-85,o),
(236,-93,o),
(232,-117,cs),
(229,-139,o),
(199,-143,o),
(181,-143,cs),
(113,-143,l)
);
}
);
width = 499;
},
{
anchors = (
{
name = b.uni0324_2;
position = "{33, -170}";
},
{
name = m.uni0308_1;
position = "{199, 700}";
}
);
layerId = "A5CA3E3F-63D1-490B-B4EA-8ECA27DB3C92";
shapes = (
{
closed = 1;
nodes = (
(46,-220,l),
(104,-220,ls),
(166,-220,o),
(226,-197,o),
(235,-131,cs),
(243,-78,o),
(217,-47,o),
(164,-42,c),
(182,0,l),
(184,0,l),
(274,633,l),
(420,633,l),
(430,700,l),
(65,700,l),
(55,633,l),
(201,633,l),
(111,0,l),
(113,0,l),
(92,-48,l),
(87,-85,l),
(123,-85,ls),
(150,-85,o),
(182,-94,o),
(177,-123,cs),
(174,-150,o),
(139,-157,o),
(113,-157,cs),
(55,-157,l)
);
}
);
width = 379;
},
{
anchors = (
{
name = b.uni0324_2;
position = "{162, -160}";
},
{
name = m.uni0308_1;
position = "{315, 700}";
}
);
layerId = "BD06E2F8-4593-4D8E-97D3-0F0A9BC781C2";
shapes = (
{
closed = 1;
nodes = (
(105,-220,l),
(163,-220,ls),
(225,-220,o),
(285,-197,o),
(294,-131,cs),
(302,-78,o),
(276,-47,o),
(223,-42,c),
(241,0,l),
(243,0,l),
(333,632,l),
(534,632,l),
(544,700,l),
(67,700,l),
(57,632,l),
(259,632,l),
(169,0,l),
(172,0,l),
(151,-48,l),
(146,-85,l),
(182,-85,ls),
(209,-85,o),
(241,-94,o),
(236,-123,cs),
(233,-150,o),
(198,-157,o),
(172,-157,cs),
(114,-157,l)
);
}
);
width = 495;
},
{
anchors = (
{
name = b.uni0324_2;
position = "{169, -160}";
},
{
name = m.uni0308_1;
position = "{322, 700}";
}
);
layerId = "BED270ED-D05C-40FE-BC6A-D5F2DB2176C1";
shapes = (
{
closed = 1;
nodes = (
(113,-220,l),
(160,-220,l),
(228,-221,o),
(283,-192,o),
(290,-138,cs),
(297,-90,o),
(264,-58,o),
(200,-54,c),
(224,0,l),
(223,0,l),
(318,665,l),
(533,665,l),
(538,700,l),
(74,700,l),
(69,665,l),
(286,665,l),
(191,0,l),
(191,0,l),
(163,-61,l),
(160,-83,l),
(179,-83,ls),
(228,-83,o),
(263,-101,o),
(258,-135,cs),
(253,-169,o),
(213,-186,o),
(164,-186,cs),
(117,-186,l)
);
}
);
width = 496;
},
{
anchors = (
{
name = b.uni0324_2;
position = "{-6, -171}";
},
{
name = m.uni0308_1;
position = "{164, 700}";
}
);
layerId = "624BE5E0-C167-4D60-8955-1CEBAB9BFDFE";
shapes = (
{
closed = 1;
nodes = (
(62,-220,l),
(109,-220,l),
(177,-221,o),
(232,-192,o),
(239,-138,cs),
(246,-90,o),
(204,-58,o),
(140,-54,c),
(164,0,l),
(170,0,l),
(265,664,l),
(427,664,l),
(432,700,l),
(70,700,l),
(65,664,l),
(226,664,l),
(131,0,l),
(131,0,l),
(103,-61,l),
(109,-83,l),
(128,-83,ls),
(177,-83,o),
(212,-101,o),
(207,-135,cs),
(202,-169,o),
(162,-186,o),
(113,-186,cs),
(66,-186,l)
);
}
);
width = 386;
}
);
leftKerningGroup = T;
rightKerningGroup = Tbar;
unicode = 354;
},
{
glyphname = U;
layers = (
{
anchors = (
{
name = b.uni0324_2;
position = "{224, 0}";
},
{
name = m.uni0308_1;
position = "{324, 700}";
},
{
name = m.uni0328;
position = "{299, 10}";
},
{
name = t.uni031B_2;
position = "{603, 700}";
}
);
layerId = "EB61547D-F7E1-476C-A885-D7B2C933109F";
shapes = (
{
closed = 1;
nodes = (
(245.857,-8,o),
(314.714,26,o),
(359.286,86,cs),
(380.428,115,o),
(394.285,149,o),
(399.857,188,cs),
(472.999,700,l),
(312.999,700,l),
(240.285,191,ls),
(237.428,171,o),
(233.428,157,o),
(227.285,149,cs),
(221.,140,o),
(209.428,136,o),
(194.428,136,cs),
(179.428,136,o),
(170.,140,o),
(166.143,148,cs),
(162.143,155,o),
(161.285,170,o),
(164.285,191,cs),
(236.999,700,l),
(76.999,700,l),
(3.857,188,ls),
(-7.572,108,o),
(22.857,48,o),
(78.286,16,cs),
(106,0,o),
(137.857,-8,o),
(173.857,-8,cs)
);
}
);
width = 434;
},
{
anchors = (
{
name = b.uni0324_2;
position = "{249, 0}";
},
{
name = m.uni0308_1;
position = "{349, 700}";
},
{
name = m.uni0328;
position = "{310, 10}";
},
{
name = t.uni031B_2;
position = "{691, 700}";
}
);
layerId = "8F32FC6E-BE02-4CA7-9492-B77DE78BF7A2";
shapes = (
{
closed = 1;
nodes = (
(335,-6,o),
(427,39,o),
(484,112,cs),
(512,149,o),
(530,190,o),
(537,235,cs),
(603,700,l),
(427,700,l),
(361,239,ls),
(357,208,o),
(345,185,o),
(328,169,cs),
(311,153,o),
(288,145,o),
(260,145,cs),
(233,145,o),
(213,153,o),
(201,169,cs),
(188,185,o),
(185,208,o),
(189,239,cs),
(255,700,l),
(80,700,l),
(14,235,ls),
(1,144,o),
(38,68,o),
(111,26,cs),
(147,5,o),
(189,-6,o),
(238,-6,cs)
);
}
);
width = 567;
},
{
anchors = (
{
name = b.uni0324_2;
position = "{173, 0}";
},
{
name = m.uni0308_1;
position = "{273, 700}";
},
{
name = m.uni0328;
position = "{235, 10}";
},
{
name = t.uni031B_2;
position = "{492, 700}";
}
);
layerId = "BECF1E07-6E55-4435-99B7-BB5ED0FBC597";
shapes = (
{
closed = 1;
nodes = (
(254.857,-8,o),
(320.571,25,o),
(363.,84,cs),
(384.143,113,o),
(396.857,146,o),
(402.428,185,cs),
(475.999,700,l),
(349.999,700,l),
(276.857,188,ls),
(273.,161,o),
(265.,140,o),
(252.143,127,c),
(240.,112,o),
(221.,105,o),
(199.,105,cs),
(176.,105,o),
(160.,112,o),
(152.,126,c),
(142.714,138,o),
(139.857,160,o),
(143.857,188,cs),
(216.999,700,l),
(90.999,700,l),
(17.428,185,ls),
(6.428,108,o),
(34.857,48,o),
(88.286,16,cs),
(116,0,o),
(146.857,-8,o),
(182.857,-8,cs)
);
}
);
width = 451;
},
{
anchors = (
{
name = b.uni0324_2;
position = "{255, 0}";
},
{
name = m.uni0308_1;
position = "{355, 700}";
},
{
name = m.uni0328;
position = "{316, 10}";
},
{
name = t.uni031B_2;
position = "{697, 700}";
}
);
layerId = "C47A9308-35A1-4D64-9609-F04248EAE8DE";
shapes = (
{
closed = 1;
nodes = (
(347.657,-6,o),
(436.171,38,o),
(491.343,111,cs),
(518.4,147,o),
(535.743,188,o),
(542.314,233,cs),
(608.999,700,l),
(473.999,700,l),
(407.6,238,l),
(403.314,198,o),
(388.543,167,o),
(364.286,145,c),
(340.971,122,o),
(310.343,111,o),
(272.343,111,cs),
(236.343,111,o),
(208.971,122,o),
(190.286,145,cs),
(171.543,167,o),
(165.314,198,o),
(170.6,238,c),
(235.999,700,l),
(100.999,700,l),
(34.314,233,ls),
(21.114,142,o),
(57.771,66,o),
(128.429,25,cs),
(164.286,5,o),
(205.657,-6,o),
(252.657,-6,cs)
);
}
);
width = 593;
},
{
anchors = (
{
name = b.uni0324_2;
position = "{97, 0}";
},
{
name = m.uni0308_1;
position = "{197, 700}";
},
{
name = m.uni0328;
position = "{139, 10}";
},
{
name = t.uni031B_2;
position = "{325, 700}";
}
);
layerId = "A5CA3E3F-63D1-490B-B4EA-8ECA27DB3C92";
shapes = (
{
closed = 1;
nodes = (
(268.857,-8,o),
(330.429,24,o),
(369.571,81,cs),
(388.571,109,o),
(401.285,142,o),
(406.714,180,cs),
(480.999,700,l),
(405.999,700,l),
(332.285,184,ls),
(326.714,145,o),
(312.428,115,o),
(290.286,93,cs),
(268.,70,o),
(239.428,59,o),
(205.428,59,cs),
(171.428,59,o),
(146.,70,o),
(130.143,92,c),
(113.143,113,o),
(107.571,144,o),
(113.285,184,cs),
(186.999,700,l),
(111.999,700,l),
(37.714,180,ls),
(27.428,108,o),
(51.857,48,o),
(104.286,16,cs),
(130,0,o),
(160.857,-8,o),
(195.857,-8,cs)
);
}
);
width = 477;
},
{
anchors = (
{
name = b.uni0324_2;
position = "{263, 0}";
},
{
name = m.uni0308_1;
position = "{363, 700}";
},
{
name = m.uni0328;
position = "{324, 10}";
},
{
name = t.uni031B_2;
position = "{705, 700}";
}
);
layerId = "BD06E2F8-4593-4D8E-97D3-0F0A9BC781C2";
shapes = (
{
closed = 1;
nodes = (
(365.143,-6,o),
(449.286,37,o),
(501.571,109,cs),
(527.571,144,o),
(543.428,185,o),
(549.857,230,cs),
(616.999,700,l),
(542.999,700,l),
(476.857,237,ls),
(469.143,183,o),
(448.,140,o),
(413.428,108,cs),
(377.857,76,o),
(334.571,60,o),
(283.571,60,cs),
(232.571,60,o),
(194.857,76,o),
(168.428,108,cs),
(142.,140,o),
(133.143,183,o),
(140.857,237,cs),
(206.999,700,l),
(130.999,700,l),
(63.857,230,ls),
(50.857,139,o),
(85.143,64,o),
(154.429,24,cs),
(188.571,4,o),
(229.143,-6,o),
(274.143,-6,cs)
);
}
);
width = 632;
},
{
anchors = (
{
name = b.uni0324_2;
position = "{272, 0}";
},
{
name = m.uni0308_1;
position = "{372, 700}";
},
{
name = m.uni0328;
position = "{333, 10}";
},
{
name = t.uni031B_2;
position = "{714, 700}";
}
);
layerId = "BED270ED-D05C-40FE-BC6A-D5F2DB2176C1";
shapes = (
{
closed = 1;
nodes = (
(380.143,-6,o),
(461.143,36,o),
(511.286,107,cs),
(536.285,142,o),
(552.143,183,o),
(558.571,228,cs),
(625.999,700,l),
(592.999,700,l),
(526.714,236,ls),
(517.714,173,o),
(492.428,122,o),
(451.,84,cs),
(408.428,45,o),
(357.714,26,o),
(296.714,26,cs),
(236.714,26,o),
(190.428,45,o),
(159.,84,cs),
(127.428,122,o),
(115.714,173,o),
(124.714,236,cs),
(190.999,700,l),
(154.999,700,l),
(87.571,228,ls),
(74.571,137,o),
(108.,63,o),
(175.429,24,cs),
(209.571,4,o),
(248.143,-6,o),
(292.143,-6,cs)
);
}
);
width = 665;
},
{
anchors = (
{
name = b.uni0324_2;
position = "{51, 0}";
},
{
name = m.uni0308_1;
position = "{151, 700}";
},
{
name = m.uni0328;
position = "{80, 10}";
},
{
name = t.uni031B_2;
position = "{219, 700}";
}
);
layerId = "624BE5E0-C167-4D60-8955-1CEBAB9BFDFE";
shapes = (
{
closed = 1;
nodes = (
(282.857,-8,o),
(342.286,23,o),
(379.286,79,cs),
(397.143,106,o),
(408.857,139,o),
(414.285,177,cs),
(488.999,700,l),
(447.999,700,l),
(373.857,181,ls),
(367.285,135,o),
(350.,98,o),
(321.,70,cs),
(292.,42,o),
(256.,28,o),
(215.,28,cs),
(173.,28,o),
(141.,42,o),
(119.857,69,cs),
(98.714,96,o),
(91.143,134,o),
(97.857,181,cs),
(171.999,700,l),
(130.999,700,l),
(56.285,177,ls),
(46.428,108,o),
(67.857,48,o),
(119.286,16,cs),
(144,0,o),
(174.857,-8,o),
(209.857,-8,cs)
);
}
);
width = 504;
}
);
leftKerningGroup = U2;
rightKerningGroup = U;
unicode = 85;
},
{
glyphname = V;
layers = (
{
anchors = (
{
name = b.uni0324_2;
position = "{226, 0}";
},
{
name = m.uni0308_1;
position = "{326, 700}";
}
);
layerId = "EB61547D-F7E1-476C-A885-D7B2C933109F";
shapes = (
{
closed = 1;
nodes = (
(100,0,l),
(269,0,l),
(520,700,l),
(342,700,l),
(214,219,l),
(227,700,l),
(50,700,l)
);
}
);
width = 452;
},
{
anchors = (
{
name = b.uni0324_2;
position = "{220, 0}";
},
{
name = m.uni0308_1;
position = "{320, 700}";
}
);
layerId = "8F32FC6E-BE02-4CA7-9492-B77DE78BF7A2";
shapes = (
{
closed = 1;
nodes = (
(160,0,l),
(299,0,l),
(622,700,l),
(440,700,l),
(271,283,l),
(219,700,l),
(38,700,l)
);
}
);
width = 544;
},
{
anchors = (
{
name = b.uni0324_2;
position = "{194, 0}";
},
{
name = m.uni0308_1;
position = "{294, 700}";
}
);
layerId = "BECF1E07-6E55-4435-99B7-BB5ED0FBC597";
shapes = (
{
closed = 1;
nodes = (
(113,0,l),
(243,0,l),
(502,700,l),
(364,700,l),
(203,178,l),
(193,700,l),
(54,700,l)
);
}
);
width = 440;
},
{
anchors = (
{
name = b.uni0324_2;
position = "{226, 0}";
},
{
name = m.uni0308_1;
position = "{326, 700}";
}
);
layerId = "C47A9308-35A1-4D64-9609-F04248EAE8DE";
shapes = (
{
closed = 1;
nodes = (
(171,0,l),
(279,0,l),
(605,700,l),
(465,700,l),
(257,218,l),
(186,700,l),
(46,700,l)
);
}
);
width = 535;
},
{
anchors = (
{
name = b.uni0324_2;
position = "{147, 0}";
},
{
name = m.uni0308_1;
position = "{247, 700}";
}
);
layerId = "A5CA3E3F-63D1-490B-B4EA-8ECA27DB3C92";
shapes = (
{
closed = 1;
nodes = (
(133,0,l),
(205,0,l),
(476,700,l),
(396,700,l),
(186,117,l),
(141,700,l),
(61,700,l)
);
}
);
width = 421;
},
{
anchors = (
{
name = b.uni0324_2;
position = "{235, 0}";
},
{
name = m.uni0308_1;
position = "{335, 700}";
}
);
layerId = "BD06E2F8-4593-4D8E-97D3-0F0A9BC781C2";
shapes = (
{
closed = 1;
nodes = (
(188,0,l),
(249,0,l),
(579,700,l),
(502,700,l),
(236,121,l),
(136,700,l),
(58,700,l)
);
}
);
width = 521;
},
{
anchors = (
{
name = b.uni0324_2;
position = "{242, 0}";
},
{
name = m.uni0308_1;
position = "{342, 700}";
}
);
layerId = "BED270ED-D05C-40FE-BC6A-D5F2DB2176C1";
shapes = (
{
closed = 1;
nodes = (
(200,0,l),
(230,0,l),
(563,700,l),
(528,700,l),
(223,56,l),
(104,700,l),
(67,700,l)
);
}
);
width = 514;
},
{
anchors = (
{
name = b.uni0324_2;
position = "{119, 0}";
},
{
name = m.uni0308_1;
position = "{219, 700}";
}
);
layerId = "624BE5E0-C167-4D60-8955-1CEBAB9BFDFE";
shapes = (
{
closed = 1;
nodes = (
(150,0,l),
(183,0,l),
(462,700,l),
(421,700,l),
(178,76,l),
(110,700,l),
(69,700,l)
);
}
);
width = 416;
}
);
unicode = 86;
},
{
glyphname = W;
layers = (
{
anchors = (
{
name = b.uni0324_2;
position = "{352, 0}";
},
{
name = m.uni0308_1;
position = "{452, 700}";
}
);
layerId = "EB61547D-F7E1-476C-A885-D7B2C933109F";
shapes = (
{
closed = 1;
nodes = (
(61,0,l),
(233,0,l),
(351.856,426,l),
(347,0,l),
(521,0,l),
(738.999,700,l),
(577.999,700,l),
(461.571,221,l),
(446.999,700,l),
(335.999,700,l),
(183.571,221,l),
(204.999,700,l),
(43.999,700,l)
);
}
);
width = 667;
},
{
anchors = (
{
name = b.uni0324_2;
position = "{352, 0}";
},
{
name = m.uni0308_1;
position = "{452, 700}";
}
);
layerId = "8F32FC6E-BE02-4CA7-9492-B77DE78BF7A2";
shapes = (
{
closed = 1;
nodes = (
(97,0,l),
(256,0,l),
(434,468,l),
(478,0,l),
(639,0,l),
(902,700,l),
(741,700,l),
(604,266,l),
(550,700,l),
(395,700,l),
(224,266,l),
(203,700,l),
(28,700,l)
);
}
);
width = 813;
},
{
anchors = (
{
name = b.uni0324_2;
position = "{307, 0}";
},
{
name = m.uni0308_1;
position = "{407, 700}";
}
);
layerId = "BECF1E07-6E55-4435-99B7-BB5ED0FBC597";
shapes = (
{
closed = 1;
nodes = (
(76,0,l),
(211,0,l),
(359.571,494,l),
(366,0,l),
(502,0,l),
(727.999,700,l),
(601.999,700,l),
(458.428,178,l),
(442.999,700,l),
(336.999,700,l),
(172.428,178,l),
(177.999,700,l),
(49.999,700,l)
);
}
);
width = 661;
},
{
anchors = (
{
name = b.uni0324_2;
position = "{360, 0}";
},
{
name = m.uni0308_1;
position = "{460, 700}";
}
);
layerId = "C47A9308-35A1-4D64-9609-F04248EAE8DE";
shapes = (
{
closed = 1;
nodes = (
(112,0,l),
(234,0,l),
(431.885,523,l),
(491,0,l),
(614,0,l),
(882.999,700,l),
(757.999,700,l),
(592.886,208,l),
(530.999,700,l),
(399.999,700,l),
(213.886,208,l),
(171.999,700,l),
(37.999,700,l)
);
}
);
width = 805;
},
{
anchors = (
{
name = b.uni0324_2;
position = "{239, 0}";
},
{
name = m.uni0308_1;
position = "{339, 700}";
}
);
layerId = "A5CA3E3F-63D1-490B-B4EA-8ECA27DB3C92";
shapes = (
{
closed = 1;
nodes = (
(97,0,l),
(177,0,l),
(370.142,596,l),
(393,0,l),
(473,0,l),
(710.999,700,l),
(636.999,700,l),
(452.143,113,l),
(435.999,700,l),
(337.999,700,l),
(154.143,113,l),
(135.999,700,l),
(57.999,700,l)
);
}
);
width = 652;
},
{
anchors = (
{
name = b.uni0324_2;
position = "{373, 0}";
},
{
name = m.uni0308_1;
position = "{473, 700}";
}
);
layerId = "BD06E2F8-4593-4D8E-97D3-0F0A9BC781C2";
shapes = (
{
closed = 1;
nodes = (
(135,0,l),
(202,0,l),
(441.57,606,l),
(511,0,l),
(578,0,l),
(854.999,700,l),
(784.999,700,l),
(564.285,121,l),
(503.999,700,l),
(407.999,700,l),
(187.285,121,l),
(126.999,700,l),
(53.999,700,l)
);
}
);
width = 793;
},
{
anchors = (
{
name = b.uni0324_2;
position = "{384, 0}";
},
{
name = m.uni0308_1;
position = "{484, 700}";
}
);
layerId = "BED270ED-D05C-40FE-BC6A-D5F2DB2176C1";
shapes = (
{
closed = 1;
nodes = (
(153,0,l),
(183,0,l),
(447.427,661,l),
(527,0,l),
(556,0,l),
(838.999,700,l),
(804.999,700,l),
(551.,63,l),
(475.999,700,l),
(427.999,700,l),
(175.,63,l),
(98.999,700,l),
(66.999,700,l)
);
}
);
width = 790;
},
{
anchors = (
{
name = b.uni0324_2;
position = "{199, 0}";
},
{
name = m.uni0308_1;
position = "{299, 700}";
}
);
layerId = "624BE5E0-C167-4D60-8955-1CEBAB9BFDFE";
shapes = (
{
closed = 1;
nodes = (
(117,0,l),
(160,0,l),
(388.57,704,l),
(417,0,l),
(459,0,l),
(704.999,700,l),
(665.999,700,l),
(454.,70,l),
(420.999,700,l),
(359.999,700,l),
(148.,70,l),
(113.999,700,l),
(68.999,700,l)
);
}
);
width = 657;
}
);
rightKerningGroup = W;
unicode = 87;
},
{
glyphname = X;
layers = (
{
anchors = (
{
name = b.uni0324_2;
position = "{224, 0}";
},
{
name = m.uni0308_1;
position = "{324, 700}";
}
);
layerId = "EB61547D-F7E1-476C-A885-D7B2C933109F";
shapes = (
{
closed = 1;
nodes = (
(-49,0,l),
(102,0,l),
(190.857,216,l),
(217,0,l),
(367,0,l),
(286.285,366,l),
(459.999,700,l),
(308.999,700,l),
(232.428,514,l),
(209.999,700,l),
(57.999,700,l),
(137.428,367,l)
);
}
);
width = 401;
},
{
anchors = (
{
name = b.uni0324_2;
position = "{239, 0}";
},
{
name = m.uni0308_1;
position = "{339, 700}";
}
);
layerId = "8F32FC6E-BE02-4CA7-9492-B77DE78BF7A2";
shapes = (
{
closed = 1;
nodes = (
(-63,0,l),
(134,0,l),
(278,230,l),
(352,0,l),
(559,0,l),
(399,374,l),
(635,700,l),
(438,700,l),
(321,509,l),
(255,700,l),
(50,700,l),
(198,368,l)
);
}
);
width = 580;
},
{
anchors = (
{
name = b.uni0324_2;
position = "{175, 0}";
},
{
name = m.uni0308_1;
position = "{275, 700}";
}
);
layerId = "BECF1E07-6E55-4435-99B7-BB5ED0FBC597";
shapes = (
{
closed = 1;
nodes = (
(-45,0,l),
(79,0,l),
(197.285,247,l),
(244,0,l),
(368,0,l),
(275.428,367,l),
(457.999,700,l),
(333.999,700,l),
(231.285,485,l),
(188.999,700,l),
(64.999,700,l),
(152.428,367,l)
);
}
);
width = 406;
},
{
anchors = (
{
name = b.uni0324_2;
position = "{245, 0}";
},
{
name = m.uni0308_1;
position = "{345, 700}";
}
);
layerId = "C47A9308-35A1-4D64-9609-F04248EAE8DE";
shapes = (
{
closed = 1;
nodes = (
(-55,0,l),
(98,0,l),
(276.914,261,l),
(384,0,l),
(544,0,l),
(374.314,373,l),
(620.999,700,l),
(467.999,700,l),
(316.257,477,l),
(219.999,700,l),
(60.999,700,l),
(218.028,368,l)
);
}
);
width = 573;
},
{
anchors = (
{
name = b.uni0324_2;
position = "{101, 0}";
},
{
name = m.uni0308_1;
position = "{201, 700}";
}
);
layerId = "A5CA3E3F-63D1-490B-B4EA-8ECA27DB3C92";
shapes = (
{
closed = 1;
nodes = (
(-39,0,l),
(45,0,l),
(206.857,293,l),
(284,0,l),
(369,0,l),
(259.571,368,l),
(454.999,700,l),
(370.999,700,l),
(228.999,441,l),
(157.999,700,l),
(74.999,700,l),
(174.428,367,l)
);
}
);
width = 413;
},
{
anchors = (
{
name = b.uni0324_2;
position = "{254, 0}";
},
{
name = m.uni0308_1;
position = "{354, 700}";
}
);
layerId = "BD06E2F8-4593-4D8E-97D3-0F0A9BC781C2";
shapes = (
{
closed = 1;
nodes = (
(-43,0,l),
(44,0,l),
(281.999,308,l),
(432,0,l),
(522,0,l),
(336.999,371,l),
(599.999,700,l),
(512.999,700,l),
(301.285,429,l),
(166.999,700,l),
(76.999,700,l),
(247.571,368,l)
);
}
);
width = 563;
},
{
anchors = (
{
name = b.uni0324_2;
position = "{262, 0}";
},
{
name = m.uni0308_1;
position = "{362, 700}";
}
);
layerId = "BED270ED-D05C-40FE-BC6A-D5F2DB2176C1";
shapes = (
{
closed = 1;
nodes = (
(-33,0,l),
(10,0,l),
(285.428,339,l),
(466,0,l),
(509,0,l),
(313.856,370,l),
(587.999,700,l),
(544.999,700,l),
(295.714,397,l),
(133.999,700,l),
(89.999,700,l),
(269.571,368,l)
);
}
);
width = 560;
},
{
anchors = (
{
name = b.uni0324_2;
position = "{56, 0}";
},
{
name = m.uni0308_1;
position = "{156, 700}";
}
);
layerId = "624BE5E0-C167-4D60-8955-1CEBAB9BFDFE";
shapes = (
{
closed = 1;
nodes = (
(-31,0,l),
(26,0,l),
(217.285,324,l),
(315,0,l),
(374,0,l),
(252.714,369,l),
(456.999,700,l),
(399.999,700,l),
(231.856,412,l),
(140.999,700,l),
(85.999,700,l),
(193.428,367,l)
);
}
);
width = 426;
}
);
unicode = 88;
},
{
glyphname = Y;
layers = (
{
anchors = (
{
name = b.uni0324_2;
position = "{217, 0}";
},
{
name = m.uni0308_1;
position = "{317, 700}";
}
);
layerId = "EB61547D-F7E1-476C-A885-D7B2C933109F";
shapes = (
{
closed = 1;
nodes = (
(88,0,l),
(247,0,l),
(284.428,262,l),
(483.999,700,l),
(306.999,700,l),
(233.285,471,l),
(225.999,700,l),
(50.999,700,l),
(126.142,267,l)
);
}
);
width = 417;
},
{
anchors = (
{
name = b.uni0324_2;
position = "{213, 0}";
},
{
name = m.uni0308_1;
position = "{313, 700}";
}
);
layerId = "8F32FC6E-BE02-4CA7-9492-B77DE78BF7A2";
shapes = (
{
closed = 1;
nodes = (
(141,0,l),
(314,0,l),
(355,288,l),
(617,700,l),
(424,700,l),
(291,455,l),
(229,700,l),
(38,700,l),
(182,285,l)
);
}
);
width = 538;
},
{
anchors = (
{
name = b.uni0324_2;
position = "{183, 0}";
},
{
name = m.uni0308_1;
position = "{283, 700}";
}
);
layerId = "BECF1E07-6E55-4435-99B7-BB5ED0FBC597";
shapes = (
{
closed = 1;
nodes = (
(99,0,l),
(224,0,l),
(263.285,275,l),
(467.999,700,l),
(328.999,700,l),
(223.285,436,l),
(192.999,700,l),
(54.999,700,l),
(138.714,278,l)
);
}
);
width = 406;
},
{
anchors = (
{
name = b.uni0324_2;
position = "{219, 0}";
},
{
name = m.uni0308_1;
position = "{319, 700}";
}
);
layerId = "C47A9308-35A1-4D64-9609-F04248EAE8DE";
shapes = (
{
closed = 1;
nodes = (
(152,0,l),
(286,0,l),
(327.628,291,l),
(591.999,700,l),
(443.999,700,l),
(281.,420,l),
(192.999,700,l),
(45.999,700,l),
(193.571,290,l)
);
}
);
width = 521;
},
{
anchors = (
{
name = b.uni0324_2;
position = "{132, 0}";
},
{
name = m.uni0308_1;
position = "{232, 700}";
}
);
layerId = "A5CA3E3F-63D1-490B-B4EA-8ECA27DB3C92";
shapes = (
{
closed = 1;
nodes = (
(116,0,l),
(190,0,l),
(231.999,294,l),
(443.999,700,l),
(361.999,700,l),
(207.714,383,l),
(142.999,700,l),
(60.999,700,l),
(157.999,294,l)
);
}
);
width = 389;
},
{
anchors = (
{
name = b.uni0324_2;
position = "{228, 0}";
},
{
name = m.uni0308_1;
position = "{328, 700}";
}
);
layerId = "BD06E2F8-4593-4D8E-97D3-0F0A9BC781C2";
shapes = (
{
closed = 1;
nodes = (
(169,0,l),
(244,0,l),
(286.285,296,l),
(554.999,700,l),
(473.999,700,l),
(258.571,368,l),
(138.999,700,l),
(57.999,700,l),
(211.428,297,l)
);
}
);
width = 496;
},
{
anchors = (
{
name = b.uni0324_2;
position = "{235, 0}";
},
{
name = m.uni0308_1;
position = "{335, 700}";
}
);
layerId = "BED270ED-D05C-40FE-BC6A-D5F2DB2176C1";
shapes = (
{
closed = 1;
nodes = (
(181,0,l),
(217,0,l),
(259.714,299,l),
(530.999,700,l),
(494.999,700,l),
(246.571,333,l),
(103.999,700,l),
(66.999,700,l),
(224.142,302,l)
);
}
);
width = 481;
},
{
anchors = (
{
name = b.uni0324_2;
position = "{102, 0}";
},
{
name = m.uni0308_1;
position = "{202, 700}";
}
);
layerId = "624BE5E0-C167-4D60-8955-1CEBAB9BFDFE";
shapes = (
{
closed = 1;
nodes = (
(131,0,l),
(171,0,l),
(214.857,307,l),
(431.999,700,l),
(387.999,700,l),
(201.714,348,l),
(113.999,700,l),
(68.999,700,l),
(174.571,305,l)
);
}
);
width = 386;
}
);
leftKerningGroup = Y;
unicode = 89;
},
{
glyphname = Z;
layers = (
{
anchors = (
{
name = b.uni0324_2;
position = "{173, 0}";
},
{
name = m.uni0308_1;
position = "{273, 700}";
}
);
layerId = "EB61547D-F7E1-476C-A885-D7B2C933109F";
shapes = (
{
closed = 1;
nodes = (
(-35,0,l),
(284,0,l),
(304.714,145,l),
(144.714,145,l),
(362.285,555,l),
(382.999,700,l),
(73.999,700,l),
(53.285,555,l),
(204.285,555,l),
(-14.286,145,l)
);
}
);
width = 331;
},
{
anchors = (
{
name = b.uni0324_2;
position = "{197, 0}";
},
{
name = m.uni0308_1;
position = "{297, 700}";
}
);
layerId = "8F32FC6E-BE02-4CA7-9492-B77DE78BF7A2";
shapes = (
{
closed = 1;
nodes = (
(-38,0,l),
(425,0,l),
(447,151,l),
(171,151,l),
(492,550,l),
(513,700,l),
(64,700,l),
(43,550,l),
(307,550,l),
(-16,151,l)
);
}
);
width = 470;
},
{
anchors = (
{
name = b.uni0324_2;
position = "{130, 0}";
},
{
name = m.uni0308_1;
position = "{230, 700}";
}
);
layerId = "BECF1E07-6E55-4435-99B7-BB5ED0FBC597";
shapes = (
{
closed = 1;
nodes = (
(-27,0,l),
(299,0,l),
(315.286,114,l),
(113.286,114,l),
(378.713,586,l),
(394.999,700,l),
(82.999,700,l),
(66.713,586,l),
(254.713,586,l),
(-10.714,114,l)
);
}
);
width = 352;
},
{
anchors = (
{
name = b.uni0324_2;
position = "{202, 0}";
},
{
name = m.uni0308_1;
position = "{302, 700}";
}
);
layerId = "C47A9308-35A1-4D64-9609-F04248EAE8DE";
shapes = (
{
closed = 1;
nodes = (
(-26,0,l),
(432,0,l),
(451.743,118,l),
(139.743,118,l),
(504.314,583,l),
(522.999,700,l),
(79.999,700,l),
(61.314,583,l),
(359.314,583,l),
(-6.257,118,l)
);
}
);
width = 488;
},
{
anchors = (
{
name = b.uni0324_2;
position = "{65, 0}";
},
{
name = m.uni0308_1;
position = "{165, 700}";
}
);
layerId = "A5CA3E3F-63D1-490B-B4EA-8ECA27DB3C92";
shapes = (
{
closed = 1;
nodes = (
(-16,0,l),
(320,0,l),
(329.571,67,l),
(65.571,67,l),
(402.427,633,l),
(411.999,700,l),
(94.999,700,l),
(85.427,633,l),
(329.427,633,l),
(-6.429,67,l)
);
}
);
width = 384;
},
{
anchors = (
{
name = b.uni0324_2;
position = "{210, 0}";
},
{
name = m.uni0308_1;
position = "{310, 700}";
}
);
layerId = "BD06E2F8-4593-4D8E-97D3-0F0A9BC781C2";
shapes = (
{
closed = 1;
nodes = (
(-8,0,l),
(443,0,l),
(452.714,68,l),
(86.714,68,l),
(529.285,632,l),
(538.999,700,l),
(104.999,700,l),
(95.285,632,l),
(444.285,632,l),
(1.714,68,l)
);
}
);
width = 514;
},
{
anchors = (
{
name = b.uni0324_2;
position = "{217, 0}";
},
{
name = m.uni0308_1;
position = "{317, 700}";
}
);
layerId = "BED270ED-D05C-40FE-BC6A-D5F2DB2176C1";
shapes = (
{
closed = 1;
nodes = (
(6,0,l),
(452,0,l),
(457.,35,l),
(55.,35,l),
(545.999,665,l),
(550.999,700,l),
(122.999,700,l),
(117.999,665,l),
(500.999,665,l),
(11.,35,l)
);
}
);
width = 535;
},
{
anchors = (
{
name = b.uni0324_2;
position = "{25, 0}";
},
{
name = m.uni0308_1;
position = "{125, 700}";
}
);
layerId = "624BE5E0-C167-4D60-8955-1CEBAB9BFDFE";
shapes = (
{
closed = 1;
nodes = (
(-5,0,l),
(338,0,l),
(343.143,36,l),
(37.143,36,l),
(421.856,664,l),
(426.999,700,l),
(106.999,700,l),
(101.856,664,l),
(382.856,664,l),
(0.143,36,l)
);
}
);
width = 412;
}
);
unicode = 90;
},
{
glyphname = AE;
layers = (
{
anchors = (
{
name = b.uni0324_2;
position = "{358, 0}";
},
{
name = m.uni0308_1;
position = "{459, 709}";
}
);
layerId = "EB61547D-F7E1-476C-A885-D7B2C933109F";
shapes = (
{
closed = 1;
nodes = (
(-56,0,l),
(110,0,l),
(158.571,109,l),
(304.571,109,l),
(289,0,l),
(611,0,l),
(631.571,144,l),
(469.571,144,l),
(490.142,288,l),
(632.142,288,l),
(652.571,431,l),
(510.571,431,l),
(529.285,562,l),
(691.285,562,l),
(711.999,707,l),
(282.999,707,l)
);
},
{
closed = 1;
nodes = (
(229.285,254,l),
(369.285,562,l),
(325.285,254,l)
);
}
);
width = 653;
},
{
anchors = (
{
name = b.uni0324_2;
position = "{377, 0}";
},
{
name = m.uni0308_1;
position = "{478, 707}";
}
);
layerId = "8F32FC6E-BE02-4CA7-9492-B77DE78BF7A2";
shapes = (
{
closed = 1;
nodes = (
(-73,0,l),
(108,0,l),
(178,123,l),
(368,123,l),
(350,0,l),
(813,0,l),
(834,150,l),
(546,150,l),
(565,279,l),
(812,279,l),
(833,430,l),
(586,430,l),
(605,557,l),
(893,557,l),
(914,707,l),
(352,707,l)
);
},
{
closed = 1;
nodes = (
(265,267,l),
(430,560,l),
(388,267,l)
);
}
);
width = 850;
},
{
anchors = (
{
name = b.uni0324_2;
position = "{301, 0}";
},
{
name = m.uni0308_1;
position = "{403, 714}";
}
);
layerId = "BECF1E07-6E55-4435-99B7-BB5ED0FBC597";
shapes = (
{
closed = 1;
nodes = (
(-50,0,l),
(81,0,l),
(150.428,136,l),
(317.428,136,l),
(298,0,l),
(614,0,l),
(630.143,113,l),
(440.143,113,l),
(467.285,303,l),
(631.285,303,l),
(647.428,416,l),
(483.428,416,l),
(508.713,593,l),
(698.713,593,l),
(714.999,707,l),
(316.999,707,l)
);
},
{
closed = 1;
nodes = (
(207.571,249,l),
(382.856,594,l),
(333.571,249,l)
);
}
);
width = 666;
},
{
anchors = (
{
name = b.uni0324_2;
position = "{385, 0}";
},
{
name = m.uni0308_1;
position = "{486, 707}";
}
);
layerId = "C47A9308-35A1-4D64-9609-F04248EAE8DE";
shapes = (
{
closed = 1;
nodes = (
(-63,0,l),
(78,0,l),
(166.228,144,l),
(381.228,144,l),
(362,0,l),
(801,0,l),
(820.686,117,l),
(516.686,117,l),
(538.028,298,l),
(796.028,298,l),
(815.714,415,l),
(557.714,415,l),
(578.714,590,l),
(882.714,590,l),
(902.399,707,l),
(386.399,707,l)
);
},
{
closed = 1;
nodes = (
(238.628,256,l),
(443.885,593,l),
(399.628,256,l)
);
}
);
width = 855;
},
{
anchors = (
{
name = b.uni0324_2;
position = "{215, 0}";
},
{
name = m.uni0308_1;
position = "{318, 721}";
}
);
layerId = "A5CA3E3F-63D1-490B-B4EA-8ECA27DB3C92";
shapes = (
{
closed = 1;
nodes = (
(-42,0,l),
(36,0,l),
(137.143,176,l),
(336.143,176,l),
(311,0,l),
(617,0,l),
(626.571,67,l),
(394.571,67,l),
(431.571,326,l),
(629.571,326,l),
(639.142,393,l),
(441.142,393,l),
(476.427,640,l),
(708.427,640,l),
(717.999,707,l),
(366.999,707,l)
);
},
{
closed = 1;
nodes = (
(173.571,242,l),
(402.713,642,l),
(345.571,242,l)
);
}
);
width = 686;
},
{
anchors = (
{
name = b.uni0324_2;
position = "{398, 0}";
},
{
name = m.uni0308_1;
position = "{499, 707}";
}
);
layerId = "BD06E2F8-4593-4D8E-97D3-0F0A9BC781C2";
shapes = (
{
closed = 1;
nodes = (
(-47,0,l),
(34,0,l),
(153.,175,l),
(406.,175,l),
(381,0,l),
(784,0,l),
(793.714,68,l),
(465.714,68,l),
(502.571,326,l),
(777.571,326,l),
(787.142,393,l),
(512.142,393,l),
(547.285,639,l),
(875.285,639,l),
(884.999,707,l),
(437.999,707,l)
);
},
{
closed = 1;
nodes = (
(197.142,239,l),
(472.713,642,l),
(415.142,239,l)
);
}
);
width = 862;
},
{
anchors = (
{
name = b.uni0324_2;
position = "{410, 0}";
},
{
name = m.uni0308_1;
position = "{511, 707}";
}
);
layerId = "BED270ED-D05C-40FE-BC6A-D5F2DB2176C1";
shapes = (
{
closed = 1;
nodes = (
(-33,0,l),
(8,0,l),
(147.,196,l),
(425.,196,l),
(397,0,l),
(776,0,l),
(781.,35,l),
(437.,35,l),
(481.285,345,l),
(767.285,345,l),
(771.999,378,l),
(485.999,378,l),
(527.999,672,l),
(871.999,672,l),
(876.999,707,l),
(475.999,707,l)
);
},
{
closed = 1;
nodes = (
(173.571,228,l),
(493.427,675,l),
(429.571,228,l)
);
}
);
width = 874;
},
{
anchors = (
{
name = b.uni0324_2;
position = "{163, 0}";
},
{
name = m.uni0308_1;
position = "{267, 726}";
}
);
layerId = "624BE5E0-C167-4D60-8955-1CEBAB9BFDFE";
shapes = (
{
closed = 1;
nodes = (
(-31,0,l),
(12,0,l),
(134.,203,l),
(354.,203,l),
(325,0,l),
(625,0,l),
(630.143,36,l),
(370.143,36,l),
(413.714,341,l),
(633.714,341,l),
(638.999,378,l),
(418.999,378,l),
(460.856,671,l),
(720.856,671,l),
(725.999,707,l),
(405.999,707,l)
);
},
{
closed = 1;
nodes = (
(156.857,237,l),
(421.284,674,l),
(358.857,237,l)
);
}
);
width = 710;
}
);
unicode = 198;
},
{
glyphname = OE;
layers = (
{
anchors = (
{
name = b.uni0324_2;
position = "{330, 0}";
},
{
name = m.uni0308_1;
position = "{431, 709}";
}
);
layerId = "EB61547D-F7E1-476C-A885-D7B2C933109F";
shapes = (
{
closed = 1;
nodes = (
(184,-8,o),
(218,1,o),
(252,20,c),
(249,0,l),
(552,0,l),
(573,144,l),
(406,144,l),
(426,288,l),
(570,288,l),
(591,431,l),
(447,431,l),
(465,562,l),
(632,562,l),
(653,707,l),
(350,707,l),
(348,696,l),
(319,710,o),
(290,717,o),
(261,717,cs),
(204,717,o),
(156,702,o),
(119,671,cs),
(80,640,o),
(56,589,o),
(46,520,cs),
(-1,188,ls),
(-20,56,o),
(31,-8,o),
(148,-8,cs)
);
},
{
closed = 1;
nodes = (
(202,492,ls),
(210,548,o),
(225,572,o),
(262,572,cs),
(297,572,o),
(303,545,o),
(295,492,cs),
(255,212,ls),
(248,163,o),
(227,136,o),
(199,136,c),
(168,137,o),
(155,161,o),
(162,212,cs)
);
}
);
width = 595;
},
{
anchors = (
{
name = b.uni0324_2;
position = "{372, 0}";
},
{
name = m.uni0308_1;
position = "{473, 707}";
}
);
layerId = "8F32FC6E-BE02-4CA7-9492-B77DE78BF7A2";
shapes = (
{
closed = 1;
nodes = (
(252,-8,o),
(295,1,o),
(339,20,c),
(336,0,l),
(776,0,l),
(797,150,l),
(515,150,l),
(533,279,l),
(774,279,l),
(795,430,l),
(554,430,l),
(574,557,l),
(856,557,l),
(877,707,l),
(437,707,l),
(434,689,l),
(396,708,o),
(356,718,o),
(314,718,cs),
(231,718,o),
(165,692,o),
(117,639,cs),
(70,586,o),
(40,516,o),
(27,428,cs),
(6,280,ls),
(-20,100,o),
(41,-8,o),
(209,-8,cs)
);
},
{
closed = 1;
nodes = (
(201,419,ls),
(216,528,o),
(245,566,o),
(312,566,cs),
(376,566,o),
(395,524,o),
(380,419,cs),
(361,286,ls),
(347,186,o),
(313,147,o),
(252,147,cs),
(185,147,o),
(167,183,o),
(182,286,cs)
);
}
);
width = 812;
},
{
anchors = (
{
name = b.uni0324_2;
position = "{262, 0}";
},
{
name = m.uni0308_1;
position = "{363, 714}";
}
);
layerId = "BECF1E07-6E55-4435-99B7-BB5ED0FBC597";
shapes = (
{
closed = 1;
nodes = (
(207,-8,o),
(246,4,o),
(281,29,c),
(277,0,l),
(576,0,l),
(593,113,l),
(401,113,l),
(428,303,l),
(592,303,l),
(608,416,l),
(444,416,l),
(469,593,l),
(660,593,l),
(677,707,l),
(378,707,l),
(374,685,l),
(346,706,o),
(312,717,o),
(273,717,cs),
(215,717,o),
(167,701,o),
(130,667,c),
(91,634,o),
(67,582,o),
(57,513,cs),
(12,195,ls),
(-7,60,o),
(47,-8,o),
(164,-8,cs)
);
},
{
closed = 1;
nodes = (
(180,493,ls),
(191,568,o),
(219,603,o),
(272,603,cs),
(323,603,o),
(340,566,o),
(329,493,cs),
(289,209,ls),
(279,141,o),
(247,105,o),
(201,105,c),
(151,106,o),
(130,140,o),
(140,209,cs)
);
}
);
width = 629;
},
{
anchors = (
{
name = b.uni0324_2;
position = "{380, 0}";
},
{
name = m.uni0308_1;
position = "{481, 707}";
}
);
layerId = "C47A9308-35A1-4D64-9609-F04248EAE8DE";
shapes = (
{
closed = 1;
nodes = (
(283,-8,o),
(333,5,o),
(377,32,c),
(373,0,l),
(790,0,l),
(807,117,l),
(514,117,l),
(540,298,l),
(787,298,l),
(803,415,l),
(556,415,l),
(582,590,l),
(874,590,l),
(891,707,l),
(474,707,l),
(469,676,l),
(432,703,o),
(386,717,o),
(332,717,cs),
(251,717,o),
(187,692,o),
(139,643,cs),
(90,593,o),
(60,524,o),
(47,435,cs),
(24,273,ls),
(-2,94,o),
(64,-8,o),
(228,-8,cs)
);
},
{
closed = 1;
nodes = (
(181,428,ls),
(198,551,o),
(242,599,o),
(328,599,cs),
(412,599,o),
(441,546,o),
(424,428,cs),
(403,275,ls),
(387,162,o),
(340,112,o),
(258,112,cs),
(173,112,o),
(143,159,o),
(159,275,cs)
);
}
);
width = 843;
},
{
anchors = (
{
name = b.uni0324_2;
position = "{159, 0}";
},
{
name = m.uni0308_1;
position = "{262, 721}";
}
);
layerId = "A5CA3E3F-63D1-490B-B4EA-8ECA27DB3C92";
shapes = (
{
closed = 1;
nodes = (
(242,-8,o),
(287,9,o),
(324,43,c),
(318,0,l),
(612,0,l),
(622,67,l),
(394,67,l),
(431,326,l),
(625,326,l),
(634,393,l),
(440,393,l),
(475,640,l),
(703,640,l),
(713,707,l),
(419,707,l),
(413,668,l),
(386,701,o),
(345,717,o),
(290,717,cs),
(231,717,o),
(184,699,o),
(146,662,cs),
(107,625,o),
(84,572,o),
(74,502,cs),
(31,206,ls),
(12,67,o),
(70,-8,o),
(187,-8,cs)
);
},
{
closed = 1;
nodes = (
(148,495,ls),
(162,598,o),
(209,649,o),
(288,649,cs),
(363,649,o),
(395,598,o),
(381,495,cs),
(339,205,ls),
(325,108,o),
(278,59,o),
(203,59,cs),
(125,60,o),
(92,108,o),
(106,205,cs)
);
}
);
width = 681;
},
{
anchors = (
{
name = b.uni0324_2;
position = "{392, 0}";
},
{
name = m.uni0308_1;
position = "{493, 707}";
}
);
layerId = "BD06E2F8-4593-4D8E-97D3-0F0A9BC781C2";
shapes = (
{
closed = 1;
nodes = (
(329,-8,o),
(389,11,o),
(435,50,c),
(428,0,l),
(811,0,l),
(821,68,l),
(512,68,l),
(550,326,l),
(806,326,l),
(815,393,l),
(559,393,l),
(593,639,l),
(902,639,l),
(912,707,l),
(529,707,l),
(522,657,l),
(486,696,o),
(432,716,o),
(360,716,cs),
(282,716,o),
(219,693,o),
(171,648,cs),
(121,603,o),
(90,535,o),
(78,445,cs),
(51,262,ls),
(26,86,o),
(99,-8,o),
(256,-8,cs)
);
},
{
closed = 1;
nodes = (
(151,442,ls),
(172,585,o),
(237,648,o),
(352,648,cs),
(465,648,o),
(511,579,o),
(491,442,cs),
(465,258,ls),
(446,126,o),
(381,60,o),
(268,60,cs),
(155,60,o),
(106,123,o),
(125,258,cs)
);
}
);
width = 890;
},
{
anchors = (
{
name = b.uni0324_2;
position = "{404, 0}";
},
{
name = m.uni0308_1;
position = "{505, 707}";
}
);
layerId = "BED270ED-D05C-40FE-BC6A-D5F2DB2176C1";
shapes = (
{
closed = 1;
nodes = (
(364,-8,o),
(430,15,o),
(478,62,c),
(469,0,l),
(829,0,l),
(834,35,l),
(514,35,l),
(560,345,l),
(822,345,l),
(827,378,l),
(565,378,l),
(605,672,l),
(925,672,l),
(930,707,l),
(570,707,l),
(561,644,l),
(527,691,o),
(467,715,o),
(383,715,cs),
(307,715,o),
(244,694,o),
(195,652,cs),
(146,609,o),
(115,543,o),
(102,452,cs),
(73,255,ls),
(48,80,o),
(126,-8,o),
(279,-8,cs)
);
},
{
closed = 1;
nodes = (
(135,451,ls),
(158,607,o),
(238,681,o),
(371,681,cs),
(504,681,o),
(561,602,o),
(539,451,cs),
(510,247,ls),
(490,102,o),
(413,25,o),
(278,25,cs),
(146,25,o),
(85,99,o),
(106,247,cs)
);
}
);
width = 929;
},
{
anchors = (
{
name = b.uni0324_2;
position = "{97, 0}";
},
{
name = m.uni0308_1;
position = "{201, 726}";
}
);
layerId = "624BE5E0-C167-4D60-8955-1CEBAB9BFDFE";
shapes = (
{
closed = 1;
nodes = (
(271,-8,o),
(321,12,o),
(359,52,c),
(352,0,l),
(642,0,l),
(647,36,l),
(395,36,l),
(439,341,l),
(653,341,l),
(658,378,l),
(444,378,l),
(486,671,l),
(738,671,l),
(743,707,l),
(453,707,l),
(446,657,l),
(419,697,o),
(373,717,o),
(308,717,cs),
(249,717,o),
(201,698,o),
(163,659,cs),
(125,620,o),
(101,565,o),
(91,495,cs),
(50,213,ls),
(30,72,o),
(92,-8,o),
(209,-8,cs)
);
},
{
closed = 1;
nodes = (
(132,496,ls),
(149,617,o),
(209,680,o),
(304,680,cs),
(395,680,o),
(438,619,o),
(421,496,cs),
(379,202,ls),
(362,86,o),
(304,28,o),
(211,28,cs),
(114,29,o),
(73,86,o),
(90,202,cs)
);
}
);
width = 728;
}
);
leftKerningGroup = C;
unicode = 338;
},
{
glyphname = Thorn;
layers = (
{
anchors = (
{
name = b.uni0324_2;
position = "{211, 0}";
},
{
name = m.uni0308_1;
position = "{312, 709}";
}
);
layerId = "EB61547D-F7E1-476C-A885-D7B2C933109F";
shapes = (
{
closed = 1;
nodes = (
(-22,0,l),
(137,0,l),
(156,132,l),
(194,132,ls),
(267,132,o),
(322,151,o),
(358,189,cs),
(394,227,o),
(418,287,o),
(430,370,cs),
(441,451,o),
(435,511,o),
(409,548,cs),
(384,585,o),
(334,603,o),
(261,603,cs),
(223,603,l),
(238,707,l),
(79,707,l)
);
},
{
closed = 1;
nodes = (
(176,276,l),
(202,458,l),
(236,458,ls),
(273,458,o),
(279,431,o),
(270,370,cs),
(260,302,o),
(247,276,o),
(210,276,cs)
);
}
);
width = 418;
},
{
anchors = (
{
name = b.uni0324_2;
position = "{226, 0}";
},
{
name = m.uni0308_1;
position = "{327, 707}";
}
);
layerId = "8F32FC6E-BE02-4CA7-9492-B77DE78BF7A2";
shapes = (
{
closed = 1;
nodes = (
(-19,0,l),
(156,0,l),
(177,146,l),
(281,146,ls),
(356,146,o),
(417,166,o),
(464,206,cs),
(511,246,o),
(540,300,o),
(550,369,cs),
(560,440,o),
(547,496,o),
(511,537,cs),
(474,578,o),
(418,598,o),
(345,598,cs),
(241,598,l),
(257,707,l),
(82,707,l)
);
},
{
closed = 1;
nodes = (
(198,295,l),
(220,448,l),
(317,448,ls),
(362,448,o),
(384,418,o),
(377,369,cs),
(371,326,o),
(335,295,o),
(295,295,cs)
);
}
);
width = 529;
},
{
anchors = (
{
name = b.uni0324_2;
position = "{166, 0}";
},
{
name = m.uni0308_1;
position = "{268, 714}";
}
);
layerId = "BECF1E07-6E55-4435-99B7-BB5ED0FBC597";
shapes = (
{
closed = 1;
nodes = (
(-8,0,l),
(117,0,l),
(138,147,l),
(203,147,ls),
(271,147,o),
(324,165,o),
(360,202,cs),
(395,238,o),
(418,294,o),
(429,371,cs),
(440,447,o),
(433,503,o),
(408,540,cs),
(383,575,o),
(336,593,o),
(267,593,cs),
(202,593,l),
(218,707,l),
(93,707,l)
);
},
{
closed = 1;
nodes = (
(154,260,l),
(185,479,l),
(246,479,ls),
(299,479,o),
(314,447,o),
(303,371,cs),
(292,292,o),
(268,260,o),
(215,260,cs)
);
}
);
width = 426;
},
{
anchors = (
{
name = b.uni0324_2;
position = "{232, 0}";
},
{
name = m.uni0308_1;
position = "{333, 707}";
}
);
layerId = "C47A9308-35A1-4D64-9609-F04248EAE8DE";
shapes = (
{
closed = 1;
nodes = (
(1,0,l),
(136,0,l),
(158,153,l),
(288,153,ls),
(360,153,o),
(420,172,o),
(466,211,cs),
(512,250,o),
(540,302,o),
(550,368,cs),
(560,438,o),
(547,492,o),
(513,531,cs),
(477,571,o),
(422,590,o),
(351,590,cs),
(221,590,l),
(237,707,l),
(102,707,l)
);
},
{
closed = 1;
nodes = (
(175,269,l),
(204,473,l),
(327,473,ls),
(394,473,o),
(426,436,o),
(416,368,cs),
(407,306,o),
(362,269,o),
(298,269,cs)
);
}
);
width = 547;
},
{
anchors = (
{
name = b.uni0324_2;
position = "{99, 0}";
},
{
name = m.uni0308_1;
position = "{202, 721}";
}
);
layerId = "A5CA3E3F-63D1-490B-B4EA-8ECA27DB3C92";
shapes = (
{
closed = 1;
nodes = (
(13,0,l),
(87,0,l),
(111,170,l),
(217,170,ls),
(278,170,o),
(326,187,o),
(362,221,cs),
(396,254,o),
(419,305,o),
(428,372,cs),
(438,441,o),
(430,492,o),
(406,527,cs),
(382,561,o),
(339,578,o),
(276,578,cs),
(170,578,l),
(188,707,l),
(114,707,l)
);
},
{
closed = 1;
nodes = (
(121,236,l),
(160,511,l),
(262,511,ls),
(339,511,o),
(367,471,o),
(353,372,cs),
(340,277,o),
(299,236,o),
(223,236,cs)
);
}
);
width = 438;
},
{
anchors = (
{
name = b.uni0324_2;
position = "{240, 0}";
},
{
name = m.uni0308_1;
position = "{341, 707}";
}
);
layerId = "BD06E2F8-4593-4D8E-97D3-0F0A9BC781C2";
shapes = (
{
closed = 1;
nodes = (
(32,0,l),
(107,0,l),
(130,163,l),
(299,163,ls),
(367,163,o),
(424,181,o),
(469,218,cs),
(514,255,o),
(541,304,o),
(550,367,cs),
(560,434,o),
(548,486,o),
(515,523,cs),
(481,560,o),
(429,578,o),
(359,578,cs),
(190,578,l),
(208,707,l),
(133,707,l)
);
},
{
closed = 1;
nodes = (
(140,230,l),
(180,511,l),
(342,511,ls),
(442,511,o),
(489,462,o),
(475,367,cs),
(462,276,o),
(402,230,o),
(302,230,cs)
);
}
);
width = 574;
},
{
anchors = (
{
name = b.uni0324_2;
position = "{248, 0}";
},
{
name = m.uni0308_1;
position = "{349, 707}";
}
);
layerId = "BED270ED-D05C-40FE-BC6A-D5F2DB2176C1";
shapes = (
{
closed = 1;
nodes = (
(55,0,l),
(90,0,l),
(114,170,l),
(309,170,ls),
(374,170,o),
(430,188,o),
(474,223,cs),
(518,258,o),
(545,306,o),
(553,366,cs),
(563,432,o),
(551,483,o),
(519,518,cs),
(486,553,o),
(435,570,o),
(366,570,cs),
(171,570,l),
(191,707,l),
(156,707,l)
);
},
{
closed = 1;
nodes = (
(119,204,l),
(167,536,l),
(355,536,ls),
(476,536,o),
(533,479,o),
(517,366,cs),
(502,257,o),
(431,204,o),
(307,204,cs)
);
}
);
width = 597;
},
{
anchors = (
{
name = b.uni0324_2;
position = "{58, 0}";
},
{
name = m.uni0308_1;
position = "{162, 726}";
}
);
layerId = "624BE5E0-C167-4D60-8955-1CEBAB9BFDFE";
shapes = (
{
closed = 1;
nodes = (
(31,0,l),
(71,0,l),
(97,185,l),
(230,185,ls),
(286,185,o),
(332,201,o),
(366,233,cs),
(401,265,o),
(423,312,o),
(431,373,cs),
(440,436,o),
(433,485,o),
(409,518,cs),
(385,551,o),
(344,568,o),
(285,568,cs),
(152,568,l),
(172,707,l),
(132,707,l)
);
},
{
closed = 1;
nodes = (
(102,220,l),
(147,532,l),
(276,532,ls),
(369,532,o),
(406,486,o),
(390,373,cs),
(375,268,o),
(323,220,o),
(231,220,cs)
);
}
);
width = 454;
}
);
unicode = 222;
},
{
glyphname = a;
layers = (
{
anchors = (
{
name = b.uni0324_2;
position = "{190, 0}";
},
{
name = m.uni0308_1;
position = "{268, 543}";
},
{
name = m.uni0328;
position = "{385, 10}";
}
);
layerId = "EB61547D-F7E1-476C-A885-D7B2C933109F";
shapes = (
{
closed = 1;
nodes = (
(125.857,-8,o),
(141.286,-5,o),
(153.429,3,cs),
(164.429,10,o),
(180.286,23,o),
(200.,42,c),
(194,0,l),
(335,0,l),
(388.142,372,ls),
(404.285,485,o),
(350.428,556,o),
(238.428,556,cs),
(134.428,556,o),
(56.713,495,o),
(40.142,379,cs),
(39.999,378,l),
(178.999,378,l),
(180.142,386,ls),
(183.714,411,o),
(199.428,423,o),
(214.428,423,cs),
(234.428,423,o),
(241.428,409,o),
(237.999,385,cs),
(229.714,327,l),
(209.714,327,ls),
(88.714,327,o),
(9.857,272,o),
(-5.429,165,cs),
(-21.286,54,o),
(17.857,-8,o),
(106.857,-8,cs)
);
},
{
closed = 1;
nodes = (
(152.714,208,o),
(172.857,223,o),
(212.857,223,cs),
(214.857,223,l),
(207.143,169,ls),
(203.285,142,o),
(187.714,124,o),
(172.714,124,c),
(151.571,123,o),
(143.,140,o),
(147.714,173,cs)
);
}
);
width = 395;
},
{
anchors = (
{
name = b.uni0324_2;
position = "{195, 0}";
},
{
name = m.uni0308_1;
position = "{271, 530}";
},
{
name = m.uni0328;
position = "{401, 10}";
}
);
layerId = "8F32FC6E-BE02-4CA7-9492-B77DE78BF7A2";
shapes = (
{
closed = 1;
nodes = (
(164,-6,o),
(185,-3,o),
(201,4,cs),
(217,11,o),
(236,23,o),
(260,40,c),
(254,0,l),
(413,0,l),
(463,348,ls),
(481,479,o),
(411,548,o),
(267,548,cs),
(140,548,o),
(50,483,o),
(35,375,cs),
(34,372,l),
(185,372,l),
(186,375,ls),
(190,404,o),
(215,423,o),
(246,423,cs),
(291,423,o),
(307,402,o),
(301,357,cs),
(297,327,l),
(202,327,ls),
(85,327,o),
(6,268,o),
(-8,169,cs),
(-23,62,o),
(30,-6,o),
(139,-6,cs)
);
},
{
closed = 1;
nodes = (
(155,202,o),
(177,216,o),
(214,216,cs),
(281,216,l),
(278,198,ls),
(271,150,o),
(247,127,o),
(199,127,cs),
(162,127,o),
(146,143,o),
(151,174,cs)
);
}
);
width = 476;
},
{
anchors = (
{
name = b.uni0324_2;
position = "{159, 0}";
},
{
name = m.uni0308_1;
position = "{238, 550}";
},
{
name = m.uni0328;
position = "{328, 10}";
}
);
layerId = "BECF1E07-6E55-4435-99B7-BB5ED0FBC597";
shapes = (
{
closed = 1;
nodes = (
(135.857,-8,o),
(153.429,-4,o),
(168.714,5,c),
(182.714,12,o),
(199.714,26,o),
(217.428,45,c),
(211,0,l),
(322,0,l),
(375.856,377,ls),
(391.285,485,o),
(341.428,549,o),
(234.428,549,cs),
(136.428,549,o),
(64.142,491,o),
(49.285,387,cs),
(48.714,383,l),
(158.714,383,l),
(159.856,391,ls),
(164.714,425,o),
(186.428,444,o),
(216.428,444,cs),
(250.428,444,o),
(263.571,424,o),
(258.142,386,cs),
(248.285,317,l),
(203.285,317,ls),
(90.285,317,o),
(17.428,262,o),
(2.714,159,cs),
(-12.572,52,o),
(26.857,-8,o),
(114.857,-8,cs)
);
},
{
closed = 1;
nodes = (
(129.285,212,o),
(156.428,234,o),
(205.428,234,cs),
(236.428,234,l),
(226.143,162,ls),
(220.143,120,o),
(195.571,95,o),
(164.571,95,c),
(129.571,95,o),
(115.857,118,o),
(122.428,164,cs)
);
}
);
width = 396;
},
{
anchors = (
{
name = b.uni0324_2;
position = "{200, 0}";
},
{
name = m.uni0308_1;
position = "{276, 530}";
},
{
name = m.uni0328;
position = "{406, 10}";
}
);
layerId = "C47A9308-35A1-4D64-9609-F04248EAE8DE";
shapes = (
{
closed = 1;
nodes = (
(179.657,-6,o),
(203.886,-2,o),
(223.343,6,cs),
(242.8,14,o),
(262.543,27,o),
(284.629,46,c),
(278,0,l),
(401,0,l),
(451.,350,ls),
(469.143,475,o),
(404.8,539,o),
(268.8,539,cs),
(147.8,539,o),
(62.257,477,o),
(47.543,377,c),
(47.314,373,l),
(165.314,373,l),
(165.485,376,l),
(170.771,416,o),
(205.2,441,o),
(251.2,441,cs),
(308.2,441,o),
(332.6,413,o),
(326.343,356,cs),
(320.943,314,l),
(207.943,314,ls),
(94.943,314,o),
(17.628,256,o),
(4.143,160,cs),
(-10.8,56,o),
(41.657,-6,o),
(151.657,-6,cs)
);
},
{
closed = 1;
nodes = (
(131.771,206,o),
(161.971,227,o),
(213.971,227,cs),
(306.971,227,l),
(302.8,189,ls),
(295.2,126,o),
(262.486,96,o),
(197.486,96,cs),
(145.486,96,o),
(121.8,119,o),
(127.314,163,cs)
);
}
);
width = 483;
},
{
anchors = (
{
name = b.uni0324_2;
position = "{113, 0}";
},
{
name = m.uni0308_1;
position = "{193, 560}";
},
{
name = m.uni0328;
position = "{243, 10}";
}
);
layerId = "A5CA3E3F-63D1-490B-B4EA-8ECA27DB3C92";
shapes = (
{
closed = 1;
nodes = (
(150.857,-8,o),
(172.571,-3,o),
(192.,7,cs),
(211.286,16,o),
(228.286,30,o),
(243.,49,c),
(236,0,l),
(302,0,l),
(356.856,384,ls),
(371.142,484,o),
(326.856,538,o),
(227.856,538,cs),
(138.856,538,o),
(75.142,484,o),
(62.999,399,cs),
(61.714,390,l),
(127.714,390,l),
(128.856,398,ls),
(135.856,447,o),
(167.999,476,o),
(218.999,476,cs),
(273.999,476,o),
(296.713,446,o),
(288.285,387,cs),
(276.142,302,l),
(194.142,302,ls),
(93.142,302,o),
(28.142,246,o),
(14.428,150,cs),
(-0.,49,o),
(39.857,-8,o),
(126.857,-8,cs)
);
},
{
closed = 1;
nodes = (
(94.142,218,o),
(130.714,250,o),
(193.714,250,cs),
(268.714,250,l),
(254.714,152,ls),
(245.571,88,o),
(207.428,52,o),
(152.428,52,c),
(97.571,53,o),
(75.286,86,o),
(84.571,151,cs)
);
}
);
width = 398;
},
{
anchors = (
{
name = b.uni0324_2;
position = "{208, 0}";
},
{
name = m.uni0308_1;
position = "{284, 530}";
},
{
name = m.uni0328;
position = "{414, 10}";
}
);
layerId = "BD06E2F8-4593-4D8E-97D3-0F0A9BC781C2";
shapes = (
{
closed = 1;
nodes = (
(203.143,-6,o),
(231.857,-1,o),
(257.286,9,cs),
(281.714,19,o),
(303.857,34,o),
(322.857,55,c),
(315,0,l),
(383,0,l),
(433.428,353,ls),
(449.856,468,o),
(394.142,526,o),
(270.142,526,cs),
(159.142,526,o),
(80.856,468,o),
(68.285,380,cs),
(67.571,375,l),
(135.571,375,l),
(135.999,378,ls),
(143.999,434,o),
(193.856,468,o),
(262.856,468,cs),
(338.856,468,o),
(374.428,430,o),
(363.571,354,cs),
(355.142,295,l),
(215.142,295,ls),
(107.142,295,o),
(33.,238,o),
(19.857,146,cs),
(5.714,47,o),
(59.143,-6,o),
(170.143,-6,cs)
);
},
{
closed = 1;
nodes = (
(99.142,211,o),
(141.857,244,o),
(217.857,244,cs),
(347.857,244,l),
(338.143,176,ls),
(326.,91,o),
(280.143,50,o),
(189.143,50,cs),
(114.143,50,o),
(80.714,82,o),
(90.,147,cs)
);
}
);
width = 494;
},
{
anchors = (
{
name = b.uni0324_2;
position = "{215, 0}";
},
{
name = m.uni0308_1;
position = "{291, 530}";
},
{
name = m.uni0328;
position = "{421, 10}";
}
);
layerId = "BED270ED-D05C-40FE-BC6A-D5F2DB2176C1";
shapes = (
{
closed = 1;
nodes = (
(220.143,-6,o),
(253,0,o),
(281.571,11,cs),
(310.143,22,o),
(332.571,39,o),
(349.714,61,c),
(341,0,l),
(373,0,l),
(423.714,355,ls),
(439.142,463,o),
(388.856,517,o),
(272.856,517,cs),
(168.856,517,o),
(94.999,462,o),
(83.571,382,cs),
(82.714,376,l),
(117.714,376,l),
(118.142,379,ls),
(127.713,446,o),
(186.428,486,o),
(271.428,486,cs),
(359.428,486,o),
(402.999,441,o),
(390.428,353,cs),
(380.285,282,l),
(222.285,282,ls),
(118.285,282,o),
(45.285,226,o),
(32.571,137,cs),
(18.857,41,o),
(73.143,-6,o),
(184.143,-6,cs)
);
},
{
closed = 1;
nodes = (
(78.714,215,o),
(128.857,251,o),
(220.857,251,cs),
(375.857,251,l),
(363.857,167,ls),
(349.571,67,o),
(295.286,23,o),
(187.286,23,cs),
(96.286,23,o),
(56.714,61,o),
(67.428,136,cs)
);
}
);
width = 505;
},
{
anchors = (
{
name = b.uni0324_2;
position = "{86, 0}";
},
{
name = m.uni0308_1;
position = "{167, 567}";
},
{
name = m.uni0328;
position = "{190, 10}";
}
);
layerId = "624BE5E0-C167-4D60-8955-1CEBAB9BFDFE";
shapes = (
{
closed = 1;
nodes = (
(164.857,-8,o),
(189.571,-3,o),
(212.143,8,cs),
(234.714,19,o),
(251.714,33,o),
(264.428,52,c),
(257,0,l),
(293,0,l),
(348.571,389,ls),
(362.142,484,o),
(320.856,531,o),
(227.856,531,cs),
(143.856,531,o),
(86.571,480,o),
(76.142,407,cs),
(74.428,395,l),
(111.428,395,l),
(112.571,403,ls),
(120.999,462,o),
(159.999,497,o),
(224.999,497,cs),
(292.999,497,o),
(322.713,460,o),
(312.428,388,cs),
(298.714,292,l),
(191.714,292,ls),
(98.714,292,o),
(39.714,236,o),
(26.571,144,cs),
(12.714,47,o),
(53.857,-8,o),
(138.857,-8,cs)
);
},
{
closed = 1;
nodes = (
(74.714,222,o),
(118.285,261,o),
(190.285,261,cs),
(294.285,261,l),
(277.714,145,ls),
(266.428,66,o),
(219.143,22,o),
(148.286,23,cs),
(80.429,24,o),
(52.,63,o),
(63.285,142,cs)
);
}
);
width = 407;
}
);
leftKerningGroup = a2;
rightKerningGroup = a;
unicode = 97;
},
{
glyphname = b;
layers = (
{
anchors = (
{
name = b.uni0324_2;
position = "{193, 0}";
},
{
name = m.uni0308_1;
position = "{271, 543}";
}
);
layerId = "EB61547D-F7E1-476C-A885-D7B2C933109F";
shapes = (
{
closed = 1;
nodes = (
(284.857,-8,o),
(341.857,48,o),
(358.428,164,cs),
(389.999,385,ls),
(406.999,504,o),
(370.428,556,o),
(293.428,556,c),
(252.57,557,o),
(222.57,543,o),
(201.999,511,c),
(229.999,707,l),
(77.999,707,l),
(-23,0,l),
(122,0,l),
(126.429,31,l),
(151.429,3,o),
(175.857,-8,o),
(208.857,-8,cs)
);
},
{
closed = 1;
nodes = (
(176.142,358,ls),
(182.856,405,o),
(193.999,420,o),
(212.999,420,cs),
(232.999,420,o),
(240.714,404,o),
(233.999,357,cs),
(210.143,190,ls),
(203.714,145,o),
(192.143,127,o),
(171.143,127,cs),
(152.143,127,o),
(146.,147,o),
(152.285,191,cs)
);
}
);
width = 396;
},
{
anchors = (
{
name = b.uni0324_2;
position = "{202, 0}";
},
{
name = m.uni0308_1;
position = "{278, 530}";
}
);
layerId = "8F32FC6E-BE02-4CA7-9492-B77DE78BF7A2";
shapes = (
{
closed = 1;
nodes = (
(362,-6,o),
(443,75,o),
(463,219,cs),
(478,323,ls),
(499,468,o),
(439,548,o),
(330,548,cs),
(287,548,o),
(251,531,o),
(215,499,c),
(245,707,l),
(79,707,l),
(-22,0,l),
(139,0,l),
(144,36,l),
(172,7,o),
(207,-6,o),
(254,-6,cs)
);
},
{
closed = 1;
nodes = (
(188,321,ls),
(195,373,o),
(227,401,o),
(262,401,cs),
(299,401,o),
(321,378,o),
(312,317,cs),
(299,223,ls),
(291,168,o),
(267,139,o),
(227,139,cs),
(187,139,o),
(166,165,o),
(174,222,cs)
);
}
);
width = 490;
},
{
anchors = (
{
name = b.uni0324_2;
position = "{162, 0}";
},
{
name = m.uni0308_1;
position = "{241, 550}";
}
);
layerId = "BECF1E07-6E55-4435-99B7-BB5ED0FBC597";
shapes = (
{
closed = 1;
nodes = (
(278.857,-8,o),
(337.143,50,o),
(353.857,167,cs),
(383.428,374,ls),
(400.428,493,o),
(360.428,549,o),
(279.428,549,c),
(237.428,549,o),
(205.142,533,o),
(181.142,498,c),
(210.999,707,l),
(91.999,707,l),
(-9,0,l),
(106,0,l),
(111.429,38,l),
(133.857,6,o),
(160.857,-8,o),
(197.857,-8,cs)
);
},
{
closed = 1;
nodes = (
(158.571,354,ls),
(167.428,416,o),
(189.142,442,o),
(223.142,442,cs),
(257.142,442,o),
(270.428,416,o),
(261.571,354,cs),
(237.571,186,ls),
(228.571,123,o),
(208.,98,o),
(174.,98,cs),
(140.,98,o),
(126.143,127,o),
(134.571,186,cs)
);
}
);
width = 401;
},
{
anchors = (
{
name = b.uni0324_2;
position = "{207, 0}";
},
{
name = m.uni0308_1;
position = "{283, 530}";
}
);
layerId = "C47A9308-35A1-4D64-9609-F04248EAE8DE";
shapes = (
{
closed = 1;
nodes = (
(354.657,-6,o),
(435.171,73,o),
(455.228,214,cs),
(470.228,319,ls),
(490.457,463,o),
(431.8,539,o),
(321.8,539,cs),
(271.8,539,o),
(229.6,518,o),
(195.314,478,c),
(226.399,707,l),
(98.399,707,l),
(-2,0,l),
(122,0,l),
(127.8,49,l),
(153.686,12,o),
(193.657,-6,o),
(246.657,-6,cs)
);
},
{
closed = 1;
nodes = (
(168.943,314,l),
(178.,385,o),
(217.343,426,o),
(270.343,426,cs),
(324.343,426,o),
(352.4,392,o),
(341.943,314,cs),
(328.457,218,l),
(320.228,144,o),
(288.057,106,o),
(233.057,106,cs),
(176.057,106,o),
(146.343,146,o),
(155.457,218,c)
);
}
);
width = 497;
},
{
anchors = (
{
name = b.uni0324_2;
position = "{115, 0}";
},
{
name = m.uni0308_1;
position = "{195, 560}";
}
);
layerId = "A5CA3E3F-63D1-490B-B4EA-8ECA27DB3C92";
shapes = (
{
closed = 1;
nodes = (
(269.857,-8,o),
(330.428,52,o),
(347.571,172,cs),
(373.999,357,ls),
(390.999,476,o),
(345.856,538,o),
(258.856,538,c),
(215.713,537,o),
(178.856,517,o),
(150.285,478,c),
(182.999,707,l),
(112.999,707,l),
(12,0,l),
(82,0,l),
(88.857,48,l),
(106.571,11,o),
(137.857,-8,o),
(181.857,-8,cs)
);
},
{
closed = 1;
nodes = (
(131.714,348,ls),
(143.713,432,o),
(180.856,475,o),
(237.856,475,cs),
(292.856,475,o),
(314.856,433,o),
(302.857,349,cs),
(278.714,180,ls),
(266.,91,o),
(232.714,54,o),
(177.714,54,cs),
(120.714,54,o),
(96.,98,o),
(107.571,179,cs)
);
}
);
width = 409;
},
{
anchors = (
{
name = b.uni0324_2;
position = "{215, 0}";
},
{
name = m.uni0308_1;
position = "{291, 530}";
}
);
layerId = "BD06E2F8-4593-4D8E-97D3-0F0A9BC781C2";
shapes = (
{
closed = 1;
nodes = (
(345.143,-6,o),
(423.,70,o),
(442.571,207,cs),
(457.714,313,ls),
(478.142,456,o),
(420.142,526,o),
(308.142,526,cs),
(248.142,526,o),
(196.142,498,o),
(160.713,446,c),
(197.999,707,l),
(128.999,707,l),
(28,0,l),
(97,0,l),
(106.857,69,l),
(128.857,20,o),
(173.143,-6,o),
(237.143,-6,cs)
);
},
{
closed = 1;
nodes = (
(140.285,303,ls),
(154.428,402,o),
(208.142,463,o),
(289.142,463,cs),
(369.142,463,o),
(401.856,412,o),
(387.142,309,cs),
(373.142,211,ls),
(358.428,108,o),
(312.,56,o),
(235.,56,cs),
(152.,56,o),
(113.714,117,o),
(127.285,212,cs)
);
}
);
width = 508;
},
{
anchors = (
{
name = b.uni0324_2;
position = "{222, 0}";
},
{
name = m.uni0308_1;
position = "{298, 530}";
}
);
layerId = "BED270ED-D05C-40FE-BC6A-D5F2DB2176C1";
shapes = (
{
closed = 1;
nodes = (
(340.143,-6,o),
(416.571,67,o),
(435.857,202,cs),
(451.142,309,ls),
(471.285,450,o),
(413.856,517,o),
(300.856,517,cs),
(233.856,517,o),
(176.285,485,o),
(140.714,425,c),
(180.999,707,l),
(150.999,707,l),
(50,0,l),
(82,0,l),
(93.714,82,l),
(113.571,25,o),
(161.143,-6,o),
(232.143,-6,cs)
);
},
{
closed = 1;
nodes = (
(123.285,296,ls),
(139.999,413,o),
(201.713,488,o),
(301.713,488,cs),
(398.713,488,o),
(435.714,425,o),
(418.714,306,cs),
(404.428,206,ls),
(387.143,85,o),
(332.286,23,o),
(240.286,23,cs),
(140.286,23,o),
(95.143,99,o),
(110.714,208,cs)
);
}
);
width = 519;
},
{
anchors = (
{
name = b.uni0324_2;
position = "{88, 0}";
},
{
name = m.uni0308_1;
position = "{169, 567}";
}
);
layerId = "624BE5E0-C167-4D60-8955-1CEBAB9BFDFE";
shapes = (
{
closed = 1;
nodes = (
(267.857,-8,o),
(329.714,54,o),
(347.,175,cs),
(371.428,346,ls),
(388.428,465,o),
(339.856,531,o),
(248.856,531,c),
(205.428,528,o),
(164.285,506,o),
(133.428,465,c),
(167.999,707,l),
(130.999,707,l),
(30,0,l),
(70,0,l),
(77.857,55,l),
(92.,14,o),
(126.857,-8,o),
(174.857,-8,cs)
);
},
{
closed = 1;
nodes = (
(118.142,344,ls),
(132.285,443,o),
(178.999,497,o),
(251.999,497,cs),
(319.999,497,o),
(348.571,445,o),
(334.428,346,cs),
(310.143,176,ls),
(294.857,69,o),
(252.571,25,o),
(184.571,25,cs),
(111.571,25,o),
(80.143,78,o),
(93.857,174,cs)
);
}
);
width = 422;
}
);
leftKerningGroup = b2;
rightKerningGroup = b;
unicode = 98;
},
{
glyphname = c;
layers = (
{
anchors = (
{
name = b.uni0324_2;
position = "{189, 0}";
},
{
name = m.uni0308_1;
position = "{267, 543}";
}
);
layerId = "EB61547D-F7E1-476C-A885-D7B2C933109F";
shapes = (
{
closed = 1;
nodes = (
(212.857,-8,o),
(259.,7,o),
(293.429,38,cs),
(326.857,69,o),
(348.428,115,o),
(357.285,177,cs),
(360.142,197,l),
(215.142,197,l),
(212.428,178,ls),
(207.428,143,o),
(193.143,127,o),
(174.143,127,cs),
(158.143,127,o),
(151.428,150,o),
(157.143,190,cs),
(180.999,357,ls),
(187.428,402,o),
(197.999,420,o),
(216.999,420,cs),
(236.999,420,o),
(244.571,403,o),
(240.142,372,cs),
(237.142,351,l),
(382.142,351,l),
(385.714,376,ls),
(402.856,496,o),
(352.428,556,o),
(237.428,556,cs),
(114.428,556,o),
(48.999,497,o),
(27.999,350,cs),
(6.142,197,ls),
(-14.429,53,o),
(34.857,-8,o),
(155.857,-8,cs)
);
}
);
width = 393;
},
{
anchors = (
{
name = b.uni0324_2;
position = "{197, 0}";
},
{
name = m.uni0308_1;
position = "{273, 530}";
}
);
layerId = "8F32FC6E-BE02-4CA7-9492-B77DE78BF7A2";
shapes = (
{
closed = 1;
nodes = (
(269,-6,o),
(327,12,o),
(370,47,cs),
(413,82,o),
(439,131,o),
(448,194,cs),
(449,203,l),
(292,203,l),
(291,196,ls),
(286,160,o),
(262,139,o),
(222,139,cs),
(183,139,o),
(162,167,o),
(170,223,cs),
(183,317,ls),
(191,368,o),
(215,401,o),
(258,401,cs),
(298,401,o),
(317,377,o),
(312,340,cs),
(311,333,l),
(468,333,l),
(469,346,ls),
(488,473,o),
(419,548,o),
(278,548,cs),
(135,548,o),
(42,470,o),
(20,318,cs),
(7,224,ls),
(-15,73,o),
(57,-6,o),
(198,-6,cs)
);
}
);
width = 478;
},
{
anchors = (
{
name = b.uni0324_2;
position = "{158, 0}";
},
{
name = m.uni0308_1;
position = "{237, 550}";
}
);
layerId = "BECF1E07-6E55-4435-99B7-BB5ED0FBC597";
shapes = (
{
closed = 1;
nodes = (
(212.857,-8,o),
(257.,7,o),
(289.286,37,cs),
(322.571,67,o),
(342.857,111,o),
(351.428,171,cs),
(353.857,188,l),
(238.857,188,l),
(236.428,171,ls),
(229.285,121,o),
(208.,98,o),
(173.,98,cs),
(140.,98,o),
(125.,126,o),
(133.571,186,cs),
(157.571,354,ls),
(166.428,416,o),
(187.142,442,o),
(223.142,442,cs),
(258.142,442,o),
(271.714,418,o),
(264.999,371,cs),
(262.285,352,l),
(377.285,352,l),
(380.285,373,ls),
(396.999,490,o),
(347.428,549,o),
(238.428,549,cs),
(123.428,549,o),
(57.856,489,o),
(38.428,353,cs),
(14.714,187,ls),
(-4.572,52,o),
(44.857,-8,o),
(158.857,-8,cs)
);
}
);
width = 398;
},
{
anchors = (
{
name = b.uni0324_2;
position = "{202, 0}";
},
{
name = m.uni0308_1;
position = "{278, 530}";
}
);
layerId = "C47A9308-35A1-4D64-9609-F04248EAE8DE";
shapes = (
{
closed = 1;
nodes = (
(269.657,-6,o),
(324.629,11,o),
(365.571,45,c),
(407.457,78,o),
(433.086,124,o),
(441.457,183,c),
(442.857,190,l),
(320.857,190,l),
(320.514,184,l),
(314.714,135,o),
(279.057,106,o),
(225.057,106,cs),
(166.057,106,o),
(137.057,141,o),
(146.457,218,c),
(159.943,314,l),
(169.228,389,o),
(204.343,426,o),
(265.343,426,cs),
(320.343,426,o),
(347.628,396,o),
(341.714,345,c),
(341.371,339,l),
(462.371,339,l),
(463.943,349,ls),
(481.743,468,o),
(414.8,539,o),
(282.8,539,cs),
(146.8,539,o),
(55.514,464,o),
(34.057,316,c),
(20.4,217,l),
(-1.057,69,o),
(67.657,-6,o),
(203.657,-6,cs)
);
}
);
width = 487;
},
{
anchors = (
{
name = b.uni0324_2;
position = "{112, 0}";
},
{
name = m.uni0308_1;
position = "{192, 560}";
}
);
layerId = "A5CA3E3F-63D1-490B-B4EA-8ECA27DB3C92";
shapes = (
{
closed = 1;
nodes = (
(211.857,-8,o),
(252.857,6,o),
(284.,35,cs),
(315.,63,o),
(335.,105,o),
(343.143,162,cs),
(345.,175,l),
(275.,175,l),
(273.,161,ls),
(262.714,89,o),
(229.714,54,o),
(170.714,54,cs),
(111.714,54,o),
(86.,91,o),
(98.714,180,cs),
(122.857,349,ls),
(135.571,438,o),
(170.856,475,o),
(231.856,475,cs),
(288.856,475,o),
(312.856,440,o),
(302.714,369,cs),
(300.571,354,l),
(370.571,354,l),
(372.714,369,ls),
(388.856,482,o),
(340.856,538,o),
(239.856,538,cs),
(136.856,538,o),
(71.285,478,o),
(53.999,357,cs),
(27.571,172,ls),
(10.286,51,o),
(58.857,-8,o),
(162.857,-8,cs)
);
}
);
width = 406;
},
{
anchors = (
{
name = b.uni0324_2;
position = "{210, 0}";
},
{
name = m.uni0308_1;
position = "{286, 530}";
}
);
layerId = "BD06E2F8-4593-4D8E-97D3-0F0A9BC781C2";
shapes = (
{
closed = 1;
nodes = (
(271.143,-6,o),
(320.429,10,o),
(359.857,41,cs),
(399.286,72,o),
(422.286,114,o),
(429.857,167,cs),
(430.428,171,l),
(362.428,171,l),
(361.714,166,ls),
(351.857,97,o),
(299.,56,o),
(223.,56,cs),
(135.,56,o),
(95.571,102,o),
(111.142,211,cs),
(125.142,309,ls),
(140.999,420,o),
(194.142,463,o),
(282.142,463,cs),
(359.142,463,o),
(398.571,424,o),
(388.428,353,cs),
(387.714,348,l),
(455.714,348,l),
(456.428,353,ls),
(471.713,460,o),
(407.142,526,o),
(288.142,526,cs),
(163.142,526,o),
(76.142,456,o),
(55.714,313,cs),
(40.571,207,ls),
(20.,63,o),
(85.143,-6,o),
(213.143,-6,cs)
);
}
);
width = 501;
},
{
anchors = (
{
name = b.uni0324_2;
position = "{217, 0}";
},
{
name = m.uni0308_1;
position = "{293, 530}";
}
);
layerId = "BED270ED-D05C-40FE-BC6A-D5F2DB2176C1";
shapes = (
{
closed = 1;
nodes = (
(274.143,-6,o),
(319.286,9,o),
(357.571,39,cs),
(394.714,68,o),
(417.286,107,o),
(424.285,156,cs),
(424.571,158,l),
(392.571,158,l),
(392.,154,ls),
(380.143,71,o),
(316.286,23,o),
(225.286,23,cs),
(117.286,23,o),
(70.714,75,o),
(89.428,206,cs),
(103.714,306,ls),
(122.999,441,o),
(186.713,488,o),
(293.713,488,cs),
(385.713,488,o),
(433.142,442,o),
(421.142,358,cs),
(420.571,354,l),
(452.571,354,l),
(452.856,356,ls),
(466.999,455,o),
(402.856,517,o),
(293.856,517,cs),
(174.856,517,o),
(91.285,450,o),
(71.428,311,cs),
(55.571,200,ls),
(35.428,59,o),
(98.143,-6,o),
(221.143,-6,cs)
);
}
);
width = 514;
},
{
anchors = (
{
name = b.uni0324_2;
position = "{85, 0}";
},
{
name = m.uni0308_1;
position = "{166, 567}";
}
);
layerId = "624BE5E0-C167-4D60-8955-1CEBAB9BFDFE";
shapes = (
{
closed = 1;
nodes = (
(215.857,-8,o),
(253.857,6,o),
(284.714,33,cs),
(314.571,60,o),
(333.428,101,o),
(341.285,156,cs),
(342.714,166,l),
(302.714,166,l),
(301.,154,ls),
(288.571,67,o),
(248.571,25,o),
(173.571,25,cs),
(97.571,25,o),
(63.571,67,o),
(79.143,176,cs),
(103.428,346,ls),
(118.713,453,o),
(162.999,497,o),
(241.999,497,cs),
(313.999,497,o),
(343.999,455,o),
(331.571,368,cs),
(329.714,355,l),
(369.714,355,l),
(371.285,366,ls),
(387.142,477,o),
(340.856,531,o),
(244.856,531,cs),
(149.856,531,o),
(84.285,471,o),
(68.428,360,cs),
(40.143,162,ls),
(24.143,50,o),
(72.857,-8,o),
(169.857,-8,cs)
);
}
);
width = 419;
}
);
leftKerningGroup = c;
rightKerningGroup = b;
unicode = 99;
},
